<svg width="85" height="74" viewBox="0 0 85 74" fill="none" xmlns="http://www.w3.org/2000/svg">
<g clip-path="url(#clip0_261_1494)">
<path d="M76.6295 33.2175C76.1595 24.4913 72.5684 16.3457 66.4015 10.1412C59.8961 3.59206 51.3414 0 42.2791 0C33.2167 0 24.6432 3.6102 18.1567 10.1412C11.9898 16.3638 8.37985 24.5094 7.92861 33.2175C3.56665 33.8524 0.201172 37.4808 0.201172 41.8892V48.4021C0.201172 53.2278 4.26231 57.1645 9.28233 57.1645H16.9346C17.7242 57.1645 18.3823 56.5477 18.3823 55.8039V34.5237C18.3823 33.7436 17.7242 33.1267 16.9346 33.1267H10.8053C11.8393 16.2731 25.6585 2.79382 42.2603 2.79382C58.8621 2.79382 72.6812 16.2731 73.7153 33.1086H67.5672C66.7587 33.1086 66.1195 33.7436 66.1195 34.5055V55.7676C66.1195 56.5477 66.7775 57.1645 67.5672 57.1645H69.3157C68.2064 59.3597 65.4238 63.115 59.0501 65.0924C58.0348 62.8429 55.7034 61.2645 52.996 61.2645C49.3673 61.2645 46.3966 64.1128 46.3966 67.6323C46.3966 71.1518 49.3485 74 52.996 74C56.6435 74 59.4825 71.2425 59.5953 67.85C68.4132 65.2376 71.4967 59.5411 72.4368 57.1645H75.2194C80.2394 57.1645 84.3006 53.2278 84.3006 48.3839V41.871C84.3006 37.517 80.9915 33.8706 76.6295 33.2175ZM15.4868 54.3888H9.28233C5.86044 54.3888 3.07781 51.7038 3.07781 48.4021V41.8892C3.07781 38.5874 5.86044 35.9024 9.28233 35.9024H15.4868V54.3888ZM52.996 71.2243C50.9466 71.2243 49.2733 69.6097 49.2733 67.6323C49.2733 65.6548 50.9466 64.0402 52.996 64.0402C55.0453 64.0402 56.7187 65.6548 56.7187 67.6323C56.7187 69.6097 55.0453 71.2243 52.996 71.2243ZM81.4239 48.4021C81.4239 51.7038 78.6413 54.3888 75.2194 54.3888H69.0149V35.9024H75.2194C78.6413 35.9024 81.4239 38.5874 81.4239 41.8892V48.4021ZM48.7468 49.9985V45.7352C48.916 45.6627 49.0664 45.6082 49.2356 45.5357L52.3567 48.5472C52.9208 49.0914 53.842 49.0914 54.4061 48.5472L61.5507 41.6533C61.8139 41.3994 61.9643 41.0365 61.9643 40.6737C61.9643 40.3109 61.8139 39.948 61.5507 39.694L58.4296 36.6825C58.5048 36.5192 58.58 36.3741 58.6364 36.2108H63.0548C63.8633 36.2108 64.5025 35.5759 64.5025 34.8139V25.0537C64.5025 24.2736 63.8445 23.6568 63.0548 23.6568H58.6364C58.5612 23.4935 58.5048 23.3484 58.4296 23.1851L61.5507 20.1736C62.1147 19.6293 62.1147 18.7404 61.5507 18.1961L54.4061 11.3023C53.842 10.758 52.9208 10.758 52.3567 11.3023L49.2356 14.3138C49.0664 14.2412 48.916 14.1687 48.7468 14.1142V9.85094C48.7468 9.07085 48.0888 8.45403 47.2991 8.45403H37.1838C36.3754 8.45403 35.7361 9.08899 35.7361 9.85094V14.1324C35.5669 14.205 35.4165 14.2594 35.2473 14.3319L32.1262 11.3204C31.863 11.0664 31.487 10.9213 31.1109 10.9213C30.7349 10.9213 30.3589 11.0664 30.0957 11.3204L22.9511 18.2143C22.6878 18.4683 22.5374 18.8311 22.5374 19.1939C22.5374 19.5568 22.6878 19.9196 22.9511 20.1736L26.0909 23.1851C26.0157 23.3484 25.9405 23.4935 25.8841 23.6568H21.4657C20.6573 23.6568 20.018 24.2917 20.018 25.0537V34.8139C20.018 35.594 20.6761 36.2108 21.4657 36.2108H25.8841C25.9593 36.3741 26.0157 36.5192 26.0909 36.6825L22.9699 39.694C22.7066 39.948 22.5562 40.3109 22.5562 40.6737C22.5562 41.0365 22.7066 41.3994 22.9699 41.6533L30.1145 48.5472C30.3777 48.8012 30.7537 48.9463 31.1297 48.9463C31.5058 48.9463 31.8818 48.8012 32.145 48.5472L35.2473 45.5175C35.4165 45.5901 35.5669 45.6627 35.7361 45.7171V49.9804C35.7361 50.7605 36.3942 51.3773 37.1838 51.3773H47.2991C48.1076 51.3773 48.7468 50.7605 48.7468 49.9985ZM45.8702 44.7556V48.6016H38.6504V44.7737C38.6504 44.175 38.2555 43.6308 37.6539 43.4494C36.9582 43.2317 36.2814 42.9596 35.6233 42.633C35.0593 42.3609 34.3824 42.4697 33.95 42.887L31.1297 45.6082L26.0157 40.6737L28.836 37.9524C29.2684 37.5352 29.3812 36.8821 29.0992 36.3378C28.7607 35.7029 28.4787 35.0498 28.2531 34.3785C28.0651 33.798 27.501 33.417 26.8806 33.417H22.8947V26.4506H26.8806C27.501 26.4506 28.0651 26.0696 28.2531 25.4891C28.4787 24.8178 28.7607 24.1647 29.0992 23.5298C29.3812 22.9855 29.2684 22.3324 28.836 21.9152L26.0157 19.1939L31.1297 14.2594L33.95 16.9806C34.3824 17.3979 35.0593 17.5067 35.6233 17.2346C36.2814 16.9081 36.9582 16.6359 37.6539 16.4182C38.2555 16.2368 38.6504 15.6926 38.6504 15.0939V11.2479H45.8702V15.0939C45.8702 15.6926 46.265 16.2368 46.8667 16.4182C47.5623 16.6359 48.2392 16.9081 48.8972 17.2346C49.4613 17.5067 50.1381 17.3979 50.5706 16.9806L53.3908 14.2594L58.5048 19.1758L55.6846 21.897C55.2522 22.3143 55.1393 22.9674 55.4214 23.5116C55.7598 24.1466 56.0418 24.7997 56.2674 25.4709C56.4555 26.0515 57.0195 26.4325 57.6399 26.4325H61.6259V33.3989H57.6399C57.0195 33.3989 56.4555 33.7798 56.2674 34.3604C56.0418 35.0316 55.7598 35.6847 55.4214 36.3197C55.1393 36.8639 55.2522 37.517 55.6846 37.9343L58.5048 40.6556L53.3908 45.5901L50.5706 42.8688C50.1193 42.4516 49.4613 42.3427 48.8972 42.6149C48.2392 42.9414 47.5623 43.2135 46.8667 43.4312C46.265 43.6126 45.8702 44.1569 45.8702 44.7556ZM53.09 29.9157C53.09 24.1466 48.2392 19.466 42.2603 19.466C36.2814 19.466 31.4306 24.1466 31.4306 29.9157C31.4306 35.6847 36.2814 40.3653 42.2603 40.3653C48.2392 40.3653 53.09 35.6847 53.09 29.9157ZM42.2603 37.5715C37.8795 37.5715 34.326 34.1427 34.326 29.9157C34.326 25.6886 37.8795 22.2599 42.2603 22.2599C46.641 22.2599 50.1945 25.7068 50.1945 29.9157C50.1945 34.1245 46.641 37.5715 42.2603 37.5715Z" fill="#272727"/>
</g>
<defs>
<clipPath id="clip0_261_1494">
<rect width="84.0994" height="74" fill="white" transform="translate(0.201172)"/>
</clipPath>
</defs>
</svg>
