<svg width="79" height="67" viewBox="0 0 79 67" fill="none" xmlns="http://www.w3.org/2000/svg">
<g clip-path="url(#clip0_261_1481)">
<path d="M0.27832 58.121C1.10262 55.6972 3.12761 55.6204 5.31013 55.7831V54.8149C5.31013 42.6289 5.30843 30.4428 5.31183 18.2567C5.31183 15.6785 6.81141 13.702 9.21363 13.1352C9.72456 13.0151 10.2687 12.9934 10.7984 12.9934C21.6326 12.9858 32.4669 12.9825 43.3012 13.0017C43.8504 13.0025 44.14 12.8715 44.2694 12.3448C44.346 12.0352 44.4848 11.7313 44.6475 11.4534C45.0136 10.8257 44.977 10.2865 44.5581 9.65637C43.7559 8.44945 43.9398 6.93537 44.931 5.86534C45.3739 5.38707 45.8431 4.92968 46.3301 4.49482C47.455 3.49072 48.9802 3.32462 50.2583 4.14927C50.88 4.55074 51.4122 4.56493 52.0176 4.22439C52.1931 4.1259 52.3761 4.02157 52.5695 3.9765C53.6203 3.73361 54.2087 3.17355 54.4931 2.07514C54.8107 0.848182 55.83 0.165428 57.1363 0.0502448C57.8908 -0.0165282 58.6589 -0.0098509 59.4168 0.0352209C60.9019 0.123695 62.0745 1.08105 62.3631 2.50916C62.5019 3.19525 62.8528 3.56167 63.4931 3.7478C63.735 3.81791 63.9904 3.88468 64.2016 4.01322C65.0787 4.54907 65.8587 4.55325 66.7954 3.99069C67.3345 3.66684 68.2218 3.56835 68.8324 3.75197C70.6461 4.29868 71.8962 5.56319 72.5196 7.31765C72.8227 8.17067 72.5945 9.05124 72.0512 9.79993C71.7021 10.2815 71.6459 10.7423 71.9499 11.2531C72.0512 11.4234 72.1423 11.6078 72.196 11.7973C72.5076 12.884 73.0356 13.6118 74.318 13.8998C75.4949 14.1644 76.1591 15.186 76.28 16.4046C76.3507 17.1191 76.3515 17.8469 76.3141 18.5647C76.2323 20.1297 75.3075 21.1881 73.7449 21.5829C73.5755 21.6254 73.412 21.6872 73.2425 21.7406V55.7598C73.8556 55.7598 74.4321 55.7506 75.0078 55.7614C77.0396 55.7982 78.2973 57.1119 78.2241 59.1118C78.0725 63.245 74.6076 66.7206 70.4077 66.9484C70.0024 66.9701 69.597 66.9885 69.1908 66.9885C49.2229 66.9902 29.254 66.981 9.28602 67.0002C6.14635 67.0035 3.53294 65.9694 1.79493 63.3744C1.07963 62.306 0.773071 60.9739 0.280875 59.762V58.1202L0.27832 58.121ZM7.59399 55.698H70.8463V30.3268C69.6532 31.5537 68.2729 32.0671 66.8491 31.3C65.8264 30.7491 65.031 30.7666 64.108 31.285C63.8908 31.4068 63.643 31.4836 63.4012 31.5537C62.8059 31.7257 62.5036 32.0871 62.375 32.7039C62.0515 34.2472 60.7886 35.2254 59.169 35.2671C58.7381 35.278 58.3063 35.2705 57.8755 35.2697C55.8709 35.2655 54.7877 34.4442 54.2725 32.5378C54.0452 31.6965 51.4258 30.5204 50.6322 30.9085C50.4738 30.9862 50.3409 31.1281 50.1774 31.1756C49.6265 31.3376 49.0687 31.5838 48.5093 31.5938C46.5473 31.6305 44.0786 29.1958 44.0974 27.2728C44.1016 26.8145 44.1451 26.2586 44.4039 25.9189C45.0945 25.0108 44.954 24.1845 44.4252 23.3048C44.2983 23.0936 44.2123 22.8515 44.1485 22.6128C43.9884 22.0177 43.6086 21.7181 42.9938 21.582C41.346 21.2156 40.3633 20.0387 40.3591 18.3911C40.3557 17.3628 40.4613 16.3337 40.5226 15.2261H39.803C30.1873 15.2261 20.5716 15.2261 10.9559 15.2261C8.64139 15.2261 7.59654 16.2419 7.59654 18.4896C7.59654 30.6006 7.59654 42.7115 7.59654 54.8225V55.698H7.59399ZM25.9764 57.9983H21.2069C15.4231 57.9983 9.63941 57.9983 3.85568 57.9983C2.71035 57.9983 2.44722 58.283 2.59283 59.3864C2.78784 60.8687 3.42054 62.1374 4.5497 63.1582C5.8977 64.3768 7.51564 64.7608 9.30986 64.7591C29.2736 64.7458 49.2373 64.7508 69.2019 64.7499C69.4804 64.7499 69.7597 64.7432 70.0381 64.7274C73.1276 64.5504 75.4123 62.523 75.8951 59.5316C76.0935 58.303 75.8329 57.9975 74.5752 57.9975C67.5235 57.9975 60.471 57.9975 53.4193 57.9975H52.5771C52.5592 58.3147 52.5388 58.5334 52.5362 58.752C52.5047 61.2185 51.1916 62.483 48.6523 62.4846C46.0645 62.4863 43.4775 62.4846 40.8896 62.4846C37.1351 62.4846 33.3806 62.4905 29.627 62.4822C27.367 62.4771 26.0011 61.1258 25.9781 58.8981C25.9755 58.631 25.9781 58.3631 25.9781 57.9975L25.9764 57.9983ZM48.4956 5.81192C48.2393 5.96049 47.9839 6.06733 47.7812 6.23676C47.4729 6.49384 47.1996 6.79098 46.9152 7.07476C46.2297 7.75668 46.199 8.00708 46.7082 8.82338C47.3222 9.80661 47.3895 10.8299 46.9475 11.8899C46.6886 12.5101 46.411 13.1219 46.1598 13.7445C45.7162 14.8438 44.92 15.5249 43.7406 15.797C42.7971 16.0148 42.637 16.2352 42.6285 17.1884C42.6259 17.4863 42.6259 17.7851 42.6285 18.0831C42.637 19.028 42.8226 19.2567 43.7491 19.467C44.8936 19.7274 45.6906 20.3835 46.1317 21.456C46.3966 22.1004 46.6818 22.7364 46.9492 23.3791C47.3903 24.4399 47.3196 25.4615 46.704 26.4448C46.1973 27.2536 46.2331 27.5198 46.9143 28.1967C47.128 28.4087 47.3426 28.6207 47.5589 28.8302C48.2504 29.4996 48.5169 29.5297 49.3455 29.0397C50.3742 28.4313 51.4369 28.357 52.5431 28.8277C53.1698 29.0948 53.8025 29.3486 54.436 29.5981C55.5311 30.0288 56.2005 30.8092 56.4661 31.9318C56.6816 32.8433 56.9158 33.0236 57.8772 33.0303C58.1565 33.0328 58.4349 33.0311 58.7142 33.0303C59.7923 33.0269 59.989 32.89 60.2325 31.8759C60.4488 30.9778 60.9342 30.2517 61.7628 29.8435C62.7106 29.3778 63.6847 28.8753 64.7057 28.6716C65.4653 28.5197 66.3901 28.6516 67.1148 28.9513C68.3972 29.4804 68.3606 29.5739 69.3279 28.6291C69.4897 28.4713 69.6422 28.3036 69.8142 28.1567C70.4145 27.6433 70.4588 27.1075 70.0032 26.4556C69.3756 25.5584 69.2624 24.5684 69.6745 23.546C69.9819 22.7848 70.2911 22.0236 70.6308 21.2765C71.0481 20.3592 71.7821 19.7741 72.7606 19.5029C73.9732 19.1673 74.0396 19.0989 74.043 17.8828C74.043 17.6591 74.0455 17.4354 74.043 17.2117C74.0302 16.201 73.8991 16.0223 72.8849 15.7836C71.9141 15.5549 71.1596 15.0383 70.7262 14.1644C70.3064 13.318 69.9368 12.4433 69.6098 11.5577C69.2811 10.6705 69.4131 9.79159 69.884 8.97112C70.5116 7.87854 70.5056 7.79257 69.6328 6.93537C69.4719 6.77679 69.3101 6.61904 69.1483 6.46129C68.4066 5.74097 68.1954 5.71426 67.3098 6.23927C66.3603 6.80266 65.3699 6.92703 64.3294 6.51137C63.5791 6.21172 62.8255 5.92042 62.0855 5.59741C61.1241 5.17841 60.511 4.45726 60.2479 3.45316C59.9592 2.35057 59.8298 2.25125 58.6989 2.24374C58.4196 2.24207 58.1411 2.23956 57.8618 2.24374C56.874 2.26043 56.6884 2.40733 56.4627 3.3505C56.2013 4.44307 55.5465 5.21096 54.4888 5.64499C53.8587 5.90373 53.22 6.14411 52.5967 6.41872C51.4386 6.93037 50.3384 6.8494 49.2697 6.17833C49.0423 6.03561 48.7809 5.94546 48.4948 5.81192H48.4956ZM28.3318 58.0276C28.0968 59.6919 28.3556 60.3003 30.1984 60.2653C33.5714 60.2019 36.9469 60.2469 40.3216 60.2469C43.1632 60.2469 46.0048 60.2411 48.8465 60.2511C49.526 60.2536 50.0804 60.0758 50.2098 59.3547C50.2856 58.9323 50.2234 58.4866 50.2234 58.0276H28.3318Z" fill="#272727"/>
<path d="M12.9834 20.4868V50.4587H65.5632V49.5815C65.5632 45.0309 65.5632 40.4803 65.5632 35.9289C65.5632 35.6802 65.5478 35.4281 65.5853 35.1844C65.6713 34.6227 66.0222 34.2921 66.597 34.2454C67.1718 34.1987 67.589 34.4616 67.7525 35.0075C67.836 35.2871 67.8419 35.5951 67.8428 35.8905C67.8479 40.6406 67.8479 45.3898 67.8453 50.1399C67.8453 51.9711 67.0321 52.7549 65.1442 52.7549C47.8918 52.7549 30.6403 52.7549 13.3879 52.7549C11.4582 52.7549 10.6637 51.9803 10.6629 50.0873C10.6612 40.3643 10.6612 30.6405 10.6629 20.9175C10.6629 19.0078 11.4361 18.2499 13.3785 18.2499C20.8372 18.2491 28.2968 18.2499 35.7555 18.2499C35.9837 18.2499 36.2145 18.2383 36.4393 18.2666C37.0209 18.3409 37.3556 18.6957 37.4126 19.2474C37.4705 19.8049 37.1997 20.2256 36.6437 20.3858C36.3354 20.4752 35.9948 20.4827 35.6687 20.4835C28.4382 20.4885 21.2076 20.4877 13.9763 20.4877H12.9817L12.9834 20.4868Z" fill="#272727"/>
<path d="M21.0988 44.1486C21.1065 44.0652 21.0716 43.8899 21.1406 43.7731C21.7264 42.774 20.9967 42.0996 20.5087 41.3934C20.3708 41.1931 20.0233 41.0654 19.7551 41.0295C18.3271 40.84 17.4585 40.0663 17.1928 38.6808C17.123 38.3152 17.0489 37.9488 17.0063 37.579C16.8598 36.3103 17.3886 35.3597 18.5519 34.7712C19.3157 34.3848 19.6546 32.7497 19.1071 32.0928C18.2768 31.0962 18.201 29.936 18.9078 28.8485C19.1394 28.4921 19.3787 28.1398 19.641 27.8051C20.3793 26.8645 21.4011 26.4037 22.5192 26.8202C23.7012 27.2609 24.2062 26.3353 24.9785 25.9463C25.0884 25.8912 25.0841 25.5874 25.1045 25.3963C25.2459 24.0642 26.0838 23.1602 27.4301 22.9032C27.7784 22.8364 28.1275 22.7771 28.4775 22.7212C29.8196 22.5067 30.8763 23.0284 31.4912 24.2061C31.8812 24.9531 33.5621 25.2986 34.2178 24.767C35.2235 23.9515 36.4182 23.8722 37.5278 24.5583C37.8914 24.7837 38.2474 25.0232 38.5922 25.2761C39.6098 26.0223 39.9658 27.1366 39.5775 28.3176C39.2948 29.1773 40.217 30.5762 41.1188 30.6555C42.305 30.7598 43.2238 31.4893 43.5261 32.6119C43.6615 33.1144 43.7671 33.6302 43.8216 34.1469C43.9519 35.3789 43.4044 36.3295 42.2888 36.8963C41.5079 37.2927 41.1546 38.9078 41.7038 39.5664C42.523 40.5488 42.6047 41.7407 41.915 42.8149C41.6995 43.1512 41.4679 43.4784 41.2295 43.7998C40.4537 44.8423 39.328 45.2062 38.0796 44.8281C37.2178 44.5668 35.8256 45.4182 35.7166 46.2737C35.542 47.6459 34.779 48.4639 33.3901 48.7635C33.0691 48.8328 32.7455 48.8929 32.4219 48.9521C31.0569 49.2025 29.9626 48.675 29.3376 47.4681C28.9433 46.7069 27.2794 46.3697 26.5922 46.9114C25.5686 47.7185 24.3799 47.7936 23.2788 47.1059C22.8939 46.8663 22.5141 46.6167 22.1531 46.3438C21.4386 45.8029 21.092 45.0801 21.0997 44.1503L21.0988 44.1486ZM21.8346 32.4183C21.6481 33.3406 21.517 33.9975 21.3816 34.6527C21.1883 35.5875 20.6995 36.3279 19.7755 36.6793C19.165 36.9113 19.2442 37.3253 19.3413 37.7685C19.4477 38.2534 19.4009 38.8243 20.2124 38.8235C21.2368 38.8235 21.964 39.3844 22.4835 40.2257C22.6802 40.5437 22.8845 40.8592 23.1042 41.1622C23.7029 41.9894 23.9149 42.8841 23.4917 43.8323C23.1792 44.5334 23.7446 44.687 24.1261 44.9691C24.5008 45.2454 24.8406 45.495 25.3098 45.0351C26.0344 44.3248 26.9524 44.2121 27.9257 44.4182C28.3217 44.5017 28.7126 44.6119 29.1119 44.6745C30.1151 44.8306 30.8917 45.3247 31.2612 46.247C31.6087 47.1134 32.2073 46.6384 32.7251 46.6184C33.259 46.5975 33.4455 46.3021 33.4565 45.7854C33.4744 44.9032 33.9351 44.2346 34.67 43.7463C35.0472 43.4959 35.4483 43.2781 35.8153 43.0143C36.6822 42.3917 37.624 42.2206 38.6101 42.6346C39.2071 42.885 39.3884 42.4969 39.6115 42.1455C39.8593 41.7557 40.3754 41.4126 39.8244 40.8634C39.0597 40.1014 38.9295 39.1749 39.1994 38.1683C39.2769 37.8803 39.3518 37.589 39.391 37.2952C39.5358 36.201 40.0544 35.373 41.1265 34.9523C41.6536 34.7453 41.6084 34.3514 41.4798 33.9666C41.341 33.5501 41.5539 32.8974 40.7433 32.879C39.6354 32.854 38.8307 32.3181 38.2925 31.375C38.1443 31.1154 37.9757 30.8658 37.7943 30.6271C37.1242 29.7466 36.9019 28.8034 37.3498 27.7601C37.6572 27.0431 36.9658 26.9538 36.6192 26.665C36.3092 26.4062 35.9916 26.17 35.5692 26.5798C34.7781 27.3469 33.8185 27.5113 32.7574 27.2234C32.3921 27.124 32.0191 27.0506 31.6453 26.9872C30.6456 26.8152 29.8954 26.3027 29.5275 25.3746C29.2371 24.6409 28.7074 24.9765 28.2536 25.029C27.8048 25.08 27.3646 25.1417 27.3688 25.8011C27.3748 26.7685 26.8621 27.4905 26.0344 28.0038C25.6921 28.2158 25.3447 28.4228 25.016 28.654C24.1517 29.2616 23.2235 29.4678 22.2237 29.0463C21.5544 28.7642 21.3841 29.275 21.1235 29.6464C20.8757 29.9986 20.5402 30.2824 20.9669 30.8099C21.3858 31.3274 21.6132 31.9943 21.8354 32.4216L21.8346 32.4183Z" fill="#272727"/>
<path d="M58.284 26.6507C53.2053 26.6407 49.1213 22.6084 49.1358 17.618C49.1503 12.6159 53.2982 8.57276 58.3998 8.58695C63.4384 8.60114 67.5786 12.6927 67.5642 17.6447C67.5505 22.6418 63.4086 26.6607 58.2831 26.6507H58.284ZM58.3104 24.4113C62.1381 24.4297 65.2658 21.4082 65.2786 17.6814C65.2905 13.9313 62.2198 10.8672 58.4134 10.8322C54.5976 10.7971 51.4452 13.8236 51.423 17.5437C51.4001 21.3673 54.4341 24.393 58.3104 24.4113Z" fill="#272727"/>
<path d="M30.4222 42.3475C26.7614 42.3584 23.775 39.4696 23.7444 35.8872C23.7146 32.2882 26.7086 29.3276 30.3907 29.3143C34.0711 29.3009 37.0856 32.2539 37.0669 35.8547C37.0481 39.4471 34.0915 42.3367 30.4222 42.3475ZM30.4163 40.1073C32.8236 40.1031 34.76 38.2209 34.7856 35.8622C34.8111 33.5001 32.8227 31.5478 30.3975 31.5545C28.0038 31.5603 26.041 33.4709 26.0265 35.8079C26.012 38.1859 27.9791 40.1123 30.4163 40.1081V40.1073Z" fill="#272727"/>
</g>
<defs>
<clipPath id="clip0_261_1481">
<rect width="77.9458" height="67" fill="white" transform="translate(0.27832)"/>
</clipPath>
</defs>
</svg>
