<svg width="79" height="76" viewBox="0 0 79 76" fill="none" xmlns="http://www.w3.org/2000/svg">
<g clip-path="url(#clip0_261_1467)">
<path d="M58.823 36.4462C57.93 36.4462 57.1657 37.1927 57.1657 38.0625C57.1657 47.6406 49.1309 55.4756 39.3082 55.4756C38.4152 55.4756 37.6509 56.2221 37.6509 57.0919C37.6509 57.9616 38.4152 58.7081 39.3082 58.7081C50.9149 58.7081 60.4822 49.5051 60.4822 38.0606C60.4822 37.189 59.7179 36.4443 58.823 36.4443V36.4462Z" fill="#272727"/>
<path d="M40.9651 19.0313C40.9651 18.1597 40.2008 17.415 39.3078 17.415C27.7011 17.415 18.1338 26.6181 18.1338 38.0626C18.1338 38.9342 18.8981 39.6788 19.7911 39.6788C20.6841 39.6788 21.4503 38.9323 21.4503 38.0626C21.4503 28.4844 29.4851 20.6494 39.3078 20.6494C40.2008 20.6494 40.9651 19.9029 40.9651 19.0332V19.0313Z" fill="#272727"/>
<path d="M76.6803 31.7188H67.8793C67.1149 28.6094 65.8379 25.6232 64.052 22.8872L70.3009 16.7935C70.9384 16.172 70.9384 15.1754 70.3009 14.5539L63.4144 7.83871C62.7768 7.21721 61.7552 7.21721 61.1176 7.83871L54.8669 13.9324C52.0612 12.1911 49.0001 10.9481 45.8104 10.2015V1.61813C45.8104 0.746544 45.0442 0 44.1512 0H34.4572C33.5642 0 32.7999 0.746544 32.7999 1.61813V10.1997C29.612 10.9462 26.551 12.1911 23.7434 13.9305L17.4926 7.83684C16.855 7.21534 15.8353 7.21534 15.1977 7.83684L8.31128 14.552C7.67371 15.1735 7.67371 16.1701 8.31128 16.7916L14.5602 22.8853C12.7742 25.6214 11.4991 28.6076 10.7348 31.7169H1.93561C1.04264 31.7169 0.27832 32.4634 0.27832 33.3332V42.7863C0.27832 43.6579 1.04453 44.4025 1.93561 44.4025H10.7367C11.501 47.5119 12.778 50.4981 14.4353 53.2342L8.18641 59.3278C7.54884 59.9493 7.54884 60.946 8.18641 61.5675L15.0729 68.2826C15.7104 68.9041 16.7302 68.9041 17.3677 68.2826L23.6166 62.1889C26.4223 63.9303 29.4834 65.1733 32.6731 65.7948V74.3781C32.6731 75.2497 33.4374 75.9944 34.3304 75.9944H44.0244C44.9174 75.9944 45.6836 75.2479 45.6836 74.3781V65.7948C48.8715 65.0482 51.9325 63.8052 54.7401 62.1889L60.989 68.2826C61.6266 68.9041 62.6482 68.9041 63.2858 68.2826L70.1722 61.5675C70.8098 60.946 70.8098 59.9493 70.1722 59.3278L63.9214 53.2342C65.7074 50.4981 66.9825 47.5119 67.7487 44.4025H76.5498C77.4427 44.4025 78.2071 43.656 78.2071 42.7863V33.3332C78.3338 32.4616 77.5695 31.7169 76.6765 31.7169L76.6803 31.7188ZM75.0211 41.1719H66.4755C65.7112 41.1719 65.0717 41.6702 64.8182 42.5399C64.1806 46.1476 62.7768 49.507 60.6087 52.4913C60.0979 53.1128 60.2266 53.9844 60.7355 54.4828L66.7309 60.3301L62.1393 64.8074L56.1439 58.9601C55.6331 58.4637 54.7401 58.3386 54.1025 58.837C51.0415 60.9515 47.5982 62.3196 43.8977 62.9411C43.1334 63.0643 42.4939 63.6876 42.4939 64.5574V72.8906H36.1163V64.5574C36.1163 63.8108 35.6055 63.1893 34.7126 62.9411C31.0139 62.3196 27.5688 60.9515 24.5096 58.837C23.8721 58.3386 22.9791 58.4637 22.4683 58.9601L16.4729 64.8074L11.8813 60.3301L17.8767 54.4828C18.3856 53.9844 18.5142 53.1128 18.0034 52.4913C15.8353 49.507 14.4315 46.1476 13.794 42.5399C13.6672 41.7934 13.0296 41.1719 12.1367 41.1719H3.5948V34.9532H12.1405C12.9048 34.9532 13.5442 34.4549 13.7978 33.5851C14.4353 29.9775 15.8391 26.618 18.0072 23.6337C18.518 23.0122 18.3894 22.1406 17.8804 21.6423L11.8851 15.795L16.4767 11.3176L22.4721 17.1649C22.9829 17.6614 23.8758 17.7864 24.5134 17.2881C27.5745 15.1735 31.0177 13.8055 34.7164 13.184C35.4826 13.0608 36.1201 12.4374 36.1201 11.5677V3.2344H42.4977V11.5677C42.4977 12.3142 43.0085 12.9357 43.9015 13.184C47.6001 13.8055 51.0452 15.1735 54.1063 17.2881C54.7439 17.7864 55.6368 17.6614 56.1477 17.1649L62.1431 11.3176L66.7347 15.795L60.7393 21.6423C60.2285 22.1406 60.1017 23.0122 60.6125 23.6337C62.7806 26.618 64.1844 29.9775 64.822 33.5851C64.9487 34.3317 65.5863 34.9532 66.4793 34.9532H75.0249V41.1719H75.0211Z" fill="#272727"/>
<path d="M49.002 47.5157V42.7901C49.002 39.1842 46.9606 36.0749 44.0282 34.4568C45.1766 33.3388 45.8141 31.8457 45.8141 30.1025C45.8141 26.6199 42.8798 23.7588 39.3098 23.7588C35.7398 23.7588 32.8055 26.6199 32.8055 30.1025C32.8055 31.8439 33.4431 33.3369 34.5914 34.4568C31.5304 36.0749 29.6177 39.1842 29.6177 42.7901V47.5157C29.6177 48.3873 30.3839 49.1338 31.275 49.1338H47.4733C48.3663 49.1338 49.0038 48.3873 49.0038 47.5157H49.002ZM36.1201 30.1007C36.1201 28.3594 37.522 26.9913 39.3079 26.9913C41.0939 26.9913 42.4958 28.3612 42.4958 30.1007C42.4958 31.8401 41.092 33.21 39.3079 33.21C37.522 33.3351 36.1201 31.842 36.1201 30.1007ZM45.8141 46.0226H32.8036V42.9132C32.8036 39.4287 35.7379 36.5695 39.3079 36.5695C42.8779 36.5695 45.8122 39.4306 45.8122 42.9132V46.0226H45.8141Z" fill="#272727"/>
</g>
<defs>
<clipPath id="clip0_261_1467">
<rect width="77.9458" height="76" fill="white" transform="translate(0.27832)"/>
</clipPath>
</defs>
</svg>
