<?xml version="1.0" encoding="UTF-8"?>
<svg id="Capa_4" data-name="Capa 4" xmlns="http://www.w3.org/2000/svg" xmlns:xlink="http://www.w3.org/1999/xlink" viewBox="0 0 120 120">
  <defs>
    <style>
      .cls-1 {
        fill: url(#Degradado_sin_nombre_28);
      }

      .cls-2 {
        fill: url(#Degradado_sin_nombre_28-2);
      }

      .cls-3 {
        fill: url(#Degradado_sin_nombre_28-3);
      }
    </style>
    <linearGradient id="Degradado_sin_nombre_28" data-name="Degradado sin nombre 28" x1="60" y1="97.23" x2="60" y2="22.77" gradientUnits="userSpaceOnUse">
      <stop offset="0" stop-color="#f7a615"/>
      <stop offset="1" stop-color="#ffbd47"/>
    </linearGradient>
    <linearGradient id="Degradado_sin_nombre_28-2" data-name="Degradado sin nombre 28" x1="59.97" y1="75.67" x2="59.97" y2="32.57" xlink:href="#Degradado_sin_nombre_28"/>
    <linearGradient id="Degradado_sin_nombre_28-3" data-name="Degradado sin nombre 28" x1="59.98" y1="63.91" x2="59.98" y2="52.17" xlink:href="#Degradado_sin_nombre_28"/>
  </defs>
  <path class="cls-1" d="M108.05,81.57h-2.02V30.6c0-4.32-3.51-7.83-7.83-7.83H21.75c-4.32,0-7.83,3.51-7.83,7.83v50.97h-1.97c-1.08,0-1.95.87-1.95,1.95,0,7.56,6.15,13.71,13.71,13.71h72.52c7.4,0,13.46-5.9,13.71-13.25.3-1.24-.63-2.42-1.9-2.42ZM17.83,30.6c0-2.17,1.76-3.93,3.93-3.93h76.44c2.17,0,3.93,1.76,3.93,3.93v50.97h-31.37c-.52,0-1.01.21-1.38.57l-3.35,3.35h-14.06l-3.35-3.35c-.37-.37-.86-.57-1.38-.57h-29.41V30.6ZM96.24,93.33H23.71c-4.74,0-8.7-3.38-9.61-7.85h32.32l3.35,3.35c.37.37.86.57,1.38.57h15.68c.52,0,1.01-.21,1.38-.57l3.35-3.35h34.28c-.91,4.48-4.87,7.85-9.61,7.85Z"/>
  <path class="cls-2" d="M96.23,73.72v-39.2c0-1.08-.87-1.95-1.95-1.95H25.67c-1.08,0-1.95.87-1.95,1.95v39.2c0,1.08.87,1.95,1.95,1.95h68.6c1.08,0,1.95-.87,1.95-1.95ZM92.32,71.77H27.63v-35.3h64.7v35.3Z"/>
  <path class="cls-3" d="M39.39,63.91h41.16c3.24,0,5.87-2.63,5.87-5.87s-2.63-5.87-5.87-5.87h-41.16c-3.24,0-5.87,2.63-5.87,5.87s2.63,5.87,5.87,5.87ZM53.12,60.01h-5.89v-3.93h5.89v3.93ZM57.03,56.07h5.89v3.93h-5.89v-3.93ZM82.52,58.04c0,1.08-.88,1.97-1.97,1.97h-13.73v-3.93h13.73c1.08,0,1.97.88,1.97,1.97ZM39.39,56.07h3.93v3.93h-3.93c-1.08,0-1.97-.88-1.97-1.97s.88-1.97,1.97-1.97Z"/>
</svg>