<svg width="25" height="25" viewBox="0 0 25 25" fill="none" xmlns="http://www.w3.org/2000/svg">
<path fill-rule="evenodd" clip-rule="evenodd" d="M20.2771 4.92997C20.5243 4.82596 20.7947 4.79008 21.0604 4.82608C21.3261 4.86208 21.5773 4.96863 21.7878 5.13465C21.9984 5.30067 22.1606 5.52008 22.2575 5.77005C22.3545 6.02002 22.3827 6.29141 22.3391 6.55597L20.0711 20.313C19.8511 21.64 18.3951 22.401 17.1781 21.74C16.1601 21.187 14.6481 20.335 13.2881 19.446C12.6081 19.001 10.5251 17.576 10.7811 16.562C11.0011 15.695 14.5011 12.437 16.5011 10.5C17.2861 9.73897 16.9281 9.29997 16.0011 9.99997C13.6991 11.738 10.0031 14.381 8.78114 15.125C7.70314 15.781 7.14114 15.893 6.46914 15.781C5.24314 15.577 4.10614 15.261 3.17814 14.876C1.92414 14.356 1.98514 12.632 3.17714 12.13L20.2771 4.92997Z" fill="url(#paint0_linear_261_1834)"/>
<defs>
<linearGradient id="paint0_linear_261_1834" x1="12.3096" y1="21.9825" x2="12.3096" y2="4.8125" gradientUnits="userSpaceOnUse">
<stop stop-color="#1A1A1A"/>
<stop offset="1" stop-color="#585858"/>
</linearGradient>
</defs>
</svg>
