<svg width="21" height="21" viewBox="0 0 21 21" fill="none" xmlns="http://www.w3.org/2000/svg">
<path d="M10.5398 0.500054C5.0798 0.500054 0.629805 4.95005 0.629805 10.4101C0.629805 12.1601 1.0898 13.8601 1.9498 15.3601L0.549805 20.5001L5.7998 19.1201C7.2498 19.9101 8.8798 20.3301 10.5398 20.3301C15.9998 20.3301 20.4498 15.8801 20.4498 10.4201C20.4498 7.77005 19.4198 5.28005 17.5498 3.41005C16.6329 2.48416 15.5408 1.75002 14.3373 1.25042C13.1338 0.750812 11.8429 0.495737 10.5398 0.500054ZM10.5498 2.17005C12.7498 2.17005 14.8098 3.03005 16.3698 4.59005C17.1352 5.35557 17.742 6.26457 18.1556 7.26497C18.5691 8.26538 18.7813 9.33754 18.7798 10.4201C18.7798 14.9601 15.0798 18.6501 10.5398 18.6501C9.0598 18.6501 7.60981 18.2601 6.3498 17.5001L6.0498 17.3301L2.9298 18.1501L3.7598 15.1101L3.5598 14.7901C2.73435 13.4785 2.29747 11.9598 2.2998 10.4101C2.3098 5.87005 5.9998 2.17005 10.5498 2.17005ZM7.0298 5.83005C6.8698 5.83005 6.5998 5.89005 6.3698 6.14005C6.1498 6.39005 5.4998 7.00005 5.4998 8.21005C5.4998 9.43005 6.3898 10.6001 6.4998 10.7701C6.6398 10.9401 8.2598 13.4401 10.7498 14.5001C11.3398 14.7701 11.7998 14.9201 12.1598 15.0301C12.7498 15.2201 13.2898 15.1901 13.7198 15.1301C14.1998 15.0601 15.1798 14.5301 15.3898 13.9501C15.5998 13.3701 15.5998 12.8801 15.5398 12.7701C15.4698 12.6701 15.3098 12.6101 15.0598 12.5001C14.8098 12.3601 13.5898 11.7601 13.3698 11.6801C13.1398 11.6001 12.9998 11.5601 12.8098 11.8001C12.6498 12.0501 12.1698 12.6101 12.0298 12.7701C11.8798 12.9401 11.7398 12.9601 11.4998 12.8401C11.2398 12.7101 10.4398 12.4501 9.4998 11.6101C8.7598 10.9501 8.2698 10.1401 8.1198 9.89005C7.9998 9.65005 8.1098 9.50005 8.2298 9.39005C8.3398 9.28006 8.4998 9.10005 8.5998 8.95005C8.7298 8.81005 8.7698 8.70005 8.8498 8.54005C8.9298 8.37005 8.8898 8.23005 8.8298 8.11005C8.7698 8.00005 8.2698 6.76005 8.0598 6.27005C7.85981 5.79005 7.6598 5.85005 7.4998 5.84005C7.3598 5.84005 7.1998 5.83005 7.0298 5.83005Z" fill="url(#paint0_linear_261_1840)"/>
<defs>
<linearGradient id="paint0_linear_261_1840" x1="10.4998" y1="20.5001" x2="10.4998" y2="0.5" gradientUnits="userSpaceOnUse">
<stop stop-color="#1A1A1A"/>
<stop offset="1" stop-color="#585858"/>
</linearGradient>
</defs>
</svg>
