<svg width="41" height="41" viewBox="0 0 41 41" fill="none" xmlns="http://www.w3.org/2000/svg">
<g clip-path="url(#clip0_261_8847)">
<path d="M20.6819 29.7892H20.3181C17.9887 29.7892 16.0574 27.9675 15.9214 25.6421L14.6944 4.66143C14.624 3.45585 15.0587 2.26077 15.8873 1.38231C16.7158 0.503771 17.8836 0 19.0912 0H21.9088C23.1163 0 24.2841 0.503771 25.1127 1.38223C25.9413 2.26069 26.3761 3.45593 26.3057 4.66135L25.0788 25.6421C24.9427 27.9676 23.0113 29.7892 20.6819 29.7892Z" fill="#A7A7A6"/>
<path d="M20.5 40.9999C18.0715 40.9999 16.0957 39.0242 16.0957 36.5957C16.0957 34.1672 18.0715 32.1914 20.5 32.1914C22.9285 32.1914 24.9043 34.1672 24.9043 36.5956C24.9043 39.0242 22.9285 40.9999 20.5 40.9999Z" fill="#A7A7A6"/>
<path d="M12.1249 32.172C11.7116 32.172 11.3094 31.9585 11.0862 31.5758C10.12 29.9191 9.60938 28.0273 9.60938 26.1048C9.60938 24.1823 10.12 22.2905 11.0862 20.6339C11.4203 20.0609 12.1557 19.867 12.7289 20.2015C13.3019 20.5356 13.4956 21.2711 13.1614 21.8442C12.4092 23.1339 12.0117 24.6071 12.0117 26.1048C12.0117 27.6025 12.4092 29.0758 13.1614 30.3655C13.4956 30.9385 13.3019 31.674 12.7289 32.0083C12.5386 32.1192 12.3303 32.172 12.1249 32.172Z" fill="#A7A7A6"/>
<path d="M7.97138 34.5849C7.55801 34.5849 7.15586 34.3715 6.9326 33.9887C5.54053 31.6014 4.80469 28.8753 4.80469 26.105C4.80469 23.3346 5.54053 20.6085 6.93268 18.2213C7.26677 17.6482 8.00229 17.4545 8.57541 17.7888C9.14852 18.123 9.34215 18.8585 9.00791 19.4316C7.82972 21.4518 7.20703 23.7594 7.20703 26.105C7.20703 28.4505 7.82972 30.7581 9.00791 32.7784C9.34207 33.3515 9.14844 34.087 8.57541 34.4212C8.38506 34.5321 8.17686 34.5849 7.97138 34.5849Z" fill="#A7A7A6"/>
<path d="M3.8118 37.0013C3.39812 37.0013 2.99572 36.7875 2.77255 36.4042C0.958776 33.2886 0 29.7272 0 26.1049C0 22.4827 0.958776 18.9212 2.77255 15.8056C3.10631 15.2323 3.84167 15.0379 4.41495 15.3719C4.98823 15.7056 5.18242 16.441 4.84873 17.0143C3.24829 19.7634 2.40234 22.9068 2.40234 26.1049C2.40234 29.303 3.24829 32.4464 4.84873 35.1954C5.1825 35.7687 4.98831 36.5041 4.41495 36.8378C4.22492 36.9485 4.01696 37.0013 3.8118 37.0013Z" fill="#A7A7A6"/>
<path d="M28.8853 32.155C28.6806 32.155 28.4733 32.1027 28.2835 31.9926C27.7097 31.6596 27.5146 30.9245 27.8475 30.3507C28.5938 29.0648 28.9882 27.5968 28.9882 26.1051C28.9882 24.6134 28.5938 23.1454 27.8475 21.8595C27.5146 21.2857 27.7097 20.5506 28.2835 20.2176C28.8572 19.8847 29.5924 20.0797 29.9253 20.6536C30.8839 22.3053 31.3906 24.1905 31.3906 26.1051C31.3906 28.0198 30.8839 29.9048 29.9253 31.5565C29.7025 31.9405 29.2995 32.155 28.8853 32.155Z" fill="#A7A7A6"/>
<path d="M33.0386 34.5676C32.8336 34.5676 32.6261 34.515 32.4361 34.4046C31.8626 34.0712 31.6679 33.336 32.0013 32.7625C33.1732 30.7463 33.7927 28.4441 33.7927 26.1048C33.7927 23.7655 33.1732 21.4633 32.0013 19.4471C31.6679 18.8736 31.8626 18.1384 32.4361 17.805C33.0093 17.4716 33.7448 17.6662 34.0782 18.2399C35.4631 20.6223 36.1951 23.3419 36.1951 26.1048C36.1951 28.8678 35.4631 31.5874 34.0782 33.9698C33.8552 34.3534 33.4525 34.5676 33.0386 34.5676Z" fill="#A7A7A6"/>
<path d="M37.1984 36.9842C36.9935 36.9842 36.7861 36.9318 36.5962 36.8215C36.0225 36.4884 35.8275 35.7532 36.1607 35.1796C37.755 32.4348 38.5976 29.2969 38.5976 26.1051C38.5976 22.9135 37.755 19.7755 36.1608 17.0308C35.8276 16.4572 36.0225 15.722 36.5963 15.3888C37.1697 15.0556 37.905 15.2504 38.2382 15.8243C40.0449 18.935 40.9999 22.4902 40.9999 26.1051C40.9999 29.7201 40.0449 33.2753 38.2382 36.3861C38.0153 36.7699 37.6124 36.9842 37.1984 36.9842Z" fill="#A7A7A6"/>
</g>
<defs>
<clipPath id="clip0_261_8847">
<rect width="41" height="41" fill="white"/>
</clipPath>
</defs>
</svg>
