<svg width="39" height="39" viewBox="0 0 39 39" fill="none" xmlns="http://www.w3.org/2000/svg">
<path d="M29.25 17.0625V31.0781C29.25 31.4782 29.1712 31.8744 29.0181 32.2441C28.8649 32.6138 28.6405 32.9497 28.3576 33.2326C28.0747 33.5155 27.7388 33.7399 27.3691 33.8931C26.9994 34.0462 26.6032 34.125 26.2031 34.125H7.92187C7.11379 34.125 6.33881 33.804 5.76741 33.2326C5.19601 32.6612 4.875 31.8862 4.875 31.0781V12.7969C4.875 11.9888 5.19601 11.2138 5.76741 10.6424C6.33881 10.071 7.11379 9.75 7.92187 9.75H20.6791" stroke="url(#paint0_linear_261_3417)" stroke-width="2" stroke-linecap="round"/>
<path d="M35.0346 4.05617C34.9233 3.93387 34.7883 3.83541 34.6379 3.76673C34.4875 3.69806 34.3247 3.66059 34.1594 3.65661C33.994 3.65262 33.8296 3.68219 33.6761 3.74354C33.5225 3.80488 33.3829 3.89673 33.2659 4.01352L32.3236 4.95119C32.2094 5.06546 32.1453 5.2204 32.1453 5.38195C32.1453 5.54349 32.2094 5.69843 32.3236 5.8127L33.1874 6.67496C33.244 6.73185 33.3113 6.77699 33.3855 6.80779C33.4596 6.83859 33.539 6.85445 33.6193 6.85445C33.6996 6.85445 33.779 6.83859 33.8532 6.80779C33.9273 6.77699 33.9946 6.73185 34.0512 6.67496L34.9698 5.7609C35.4345 5.29701 35.4779 4.54139 35.0346 4.05617ZM30.4186 6.85549L16.668 20.5817C16.5847 20.6647 16.5241 20.7678 16.4921 20.881L15.856 22.7754C15.8408 22.8268 15.8397 22.8814 15.8529 22.9333C15.8661 22.9853 15.8931 23.0327 15.931 23.0707C15.9689 23.1086 16.0163 23.1355 16.0683 23.1487C16.1203 23.1619 16.1748 23.1608 16.2262 23.1456L18.1191 22.5096C18.2323 22.4776 18.3354 22.417 18.4185 22.3336L32.1446 8.58155C32.2716 8.4532 32.3428 8.27993 32.3428 8.09938C32.3428 7.91882 32.2716 7.74556 32.1446 7.61721L31.3867 6.85549C31.2582 6.72734 31.0841 6.65538 30.9026 6.65538C30.7212 6.65538 30.5471 6.72734 30.4186 6.85549Z" fill="url(#paint1_linear_261_3417)"/>
<defs>
<linearGradient id="paint0_linear_261_3417" x1="17.0625" y1="34.125" x2="17.0625" y2="9.75" gradientUnits="userSpaceOnUse">
<stop stop-color="#F7A615"/>
<stop offset="1" stop-color="#FFBD47"/>
</linearGradient>
<linearGradient id="paint1_linear_261_3417" x1="25.5938" y1="23.1579" x2="25.5938" y2="3.65625" gradientUnits="userSpaceOnUse">
<stop stop-color="#F7A615"/>
<stop offset="1" stop-color="#FFBD47"/>
</linearGradient>
</defs>
</svg>
