<svg width="21" height="20" viewBox="0 0 21 20" fill="none" xmlns="http://www.w3.org/2000/svg">
<path d="M10.5761 10C11.464 10 12.332 9.74341 13.0704 9.26268C13.8087 8.78195 14.3841 8.09867 14.7239 7.29924C15.0637 6.49982 15.1526 5.62015 14.9794 4.77148C14.8062 3.92281 14.3786 3.14326 13.7507 2.53141C13.1228 1.91956 12.3228 1.50288 11.452 1.33407C10.5811 1.16526 9.67835 1.2519 8.85799 1.58303C8.03762 1.91416 7.33645 2.47492 6.84313 3.19438C6.3498 3.91385 6.0865 4.75971 6.0865 5.625C6.0865 6.78532 6.5595 7.89812 7.40146 8.71859C8.24342 9.53907 9.38537 10 10.5761 10ZM10.5761 11.25C7.79334 11.25 2.23828 12.925 2.23828 16.25V18.75H18.9139V16.25C18.9139 12.925 13.3588 11.25 10.5761 11.25Z" fill="#F7A615"/>
</svg>
