<svg width="27" height="20" viewBox="0 0 27 20" fill="none" xmlns="http://www.w3.org/2000/svg">
<path fill-rule="evenodd" clip-rule="evenodd" d="M18.7582 14.9725H7.85629C7.63763 14.9725 7.46582 14.8024 7.46582 14.5858V12.9927C7.46582 12.7761 7.63763 12.606 7.85629 12.606C8.07495 12.606 8.24676 12.7761 8.24676 12.9927V14.2146H18.4146V12.9927C18.4146 12.7761 18.5864 12.606 18.8051 12.606C19.0237 12.606 19.1955 12.7761 19.1955 12.9927V14.5858C19.1487 14.8024 18.9769 14.9725 18.7582 14.9725Z" fill="#272727"/>
<path fill-rule="evenodd" clip-rule="evenodd" d="M13.3075 13.4725C13.1826 13.4725 13.042 13.4106 12.9795 13.2869L10.6055 9.2652C10.543 9.15692 10.543 9.00224 10.6055 8.8785C10.6679 8.77022 10.7929 8.67742 10.9334 8.67742H11.73V5.04246C11.73 4.82591 11.9018 4.65576 12.1205 4.65576H14.4945C14.7132 4.65576 14.885 4.82591 14.885 5.04246V8.70835H15.7128C15.8378 8.70835 15.9627 8.77022 16.0408 8.89397C16.1033 9.00224 16.1033 9.15692 16.0408 9.28067L13.6355 13.2869C13.573 13.4106 13.4637 13.4725 13.3075 13.4725ZM11.6051 9.45081L13.3231 12.3588L15.0568 9.45081H14.4945C14.2759 9.45081 14.1041 9.28067 14.1041 9.07958V5.39822H12.4797V9.06411C12.4797 9.28067 12.3079 9.43534 12.0892 9.43534H11.6051V9.45081Z" fill="#272727"/>
<path fill-rule="evenodd" clip-rule="evenodd" d="M24.2714 17.2929H2.34262C2.12396 17.2929 1.95215 17.1228 1.95215 16.9062V8.77011C1.95215 8.55356 2.12396 8.38342 2.34262 8.38342C2.54566 8.38342 2.73309 8.55356 2.73309 8.77011V16.5505H23.9122V3.29448C23.9122 3.17073 23.8029 3.06246 23.6935 3.06246H8.57452C8.35586 3.06246 8.18405 2.89231 8.18405 2.67576C8.18405 2.45921 8.35586 2.28906 8.57452 2.28906H23.6935C24.2402 2.28906 24.6619 2.72216 24.6619 3.27901V16.9062C24.6619 17.1383 24.4901 17.2929 24.2714 17.2929Z" fill="#272727"/>
<path fill-rule="evenodd" clip-rule="evenodd" d="M24.8808 20.0001H1.73369C0.780947 20.0001 0.015625 19.2267 0.015625 18.2987V16.922C0.015625 16.7209 0.187432 16.5508 0.406095 16.5508H26.2708C26.4895 16.5508 26.6613 16.7209 26.6613 16.922V18.2987C26.6145 19.2422 25.8335 20.0001 24.8808 20.0001ZM0.749709 17.2932V18.2987C0.749709 18.8091 1.18704 19.2422 1.70246 19.2422H24.8808C25.4274 19.2422 25.8491 18.8091 25.8491 18.2987V17.2932H0.749709Z" fill="#272727"/>
<path fill-rule="evenodd" clip-rule="evenodd" d="M16.4621 18.7318H10.1521C9.77723 18.7318 9.48047 18.4224 9.48047 18.0666V16.922C9.48047 16.7209 9.65228 16.5508 9.87094 16.5508H16.7901C17.0087 16.5508 17.1805 16.7209 17.1805 16.922V18.0666C17.1649 18.4224 16.8525 18.7318 16.4621 18.7318ZM10.2146 17.9738H16.384V17.3087H10.2146V17.9738Z" fill="#272727"/>
<path fill-rule="evenodd" clip-rule="evenodd" d="M5.79458 9.99227H4.24832C4.04527 9.99227 3.88908 9.85306 3.87347 9.66744L3.68604 8.35267C3.6548 8.35267 3.63918 8.3372 3.59233 8.3372L2.53025 9.12606C2.37406 9.23434 2.17101 9.23434 2.03045 9.07966L0.905891 7.99691C0.780941 7.8577 0.749703 7.65661 0.859035 7.50193L1.68683 6.43465C1.67121 6.40371 1.67121 6.38825 1.63998 6.34184L0.327995 6.15623C0.12495 6.12529 0 5.95514 0 5.785V4.22274C0 4.03712 0.12495 3.88244 0.327995 3.85151L1.63998 3.66589C1.67121 3.65043 1.67121 3.61949 1.68683 3.57309L0.890272 2.5058C0.780941 2.35112 0.780941 2.15004 0.937129 2.01083L2.06168 0.928074C2.18663 0.788863 2.4053 0.773395 2.54587 0.881671L3.60795 1.67053C3.63918 1.65507 3.6548 1.65507 3.70166 1.65507L3.88908 0.324826C3.92032 0.123743 4.09213 0 4.26394 0H5.82582C6.01324 0 6.16943 0.123743 6.18505 0.324826L6.38809 1.65507C6.40371 1.65507 6.41933 1.67053 6.46619 1.67053L7.52827 0.881671C7.68446 0.773395 7.90312 0.773395 8.02807 0.928074L9.137 2.01083C9.26196 2.15004 9.27757 2.35112 9.16824 2.5058L8.37168 3.57309C8.40292 3.60402 8.40292 3.65043 8.41854 3.66589L9.73052 3.85151C9.93356 3.88244 10.0585 4.05259 10.0585 4.22274V5.785C10.0585 5.98608 9.93356 6.12529 9.73052 6.15623L8.41854 6.34184C8.3873 6.37278 8.3873 6.38825 8.37168 6.43465L9.16824 7.50193C9.27757 7.65661 9.26196 7.8577 9.137 7.99691L8.02807 9.07966C7.90312 9.21887 7.68446 9.23434 7.52827 9.12606L6.46619 8.3372C6.45057 8.35267 6.41933 8.35267 6.38809 8.35267L6.18505 9.66744C6.13819 9.85306 5.99762 9.99227 5.79458 9.99227ZM4.56069 9.23434H5.46658L5.66963 8.01237C5.68525 7.8577 5.79458 7.76489 5.93515 7.71848C6.0601 7.67208 6.21629 7.62568 6.34124 7.54834C6.46619 7.48647 6.62238 7.50193 6.73171 7.57927L7.70007 8.32173L8.35606 7.67208L7.62198 6.68214C7.52827 6.55839 7.51265 6.40371 7.59074 6.27997C7.6376 6.18716 7.70007 6.06342 7.74693 5.95514L7.79379 5.8778C7.82502 5.73859 7.96559 5.66125 8.09054 5.63032L9.30881 5.46017V4.56303L8.09054 4.39289C7.96559 4.37742 7.82502 4.28461 7.79379 4.16087C7.74693 4.03712 7.68446 3.88244 7.62198 3.7587C7.54389 3.61949 7.54389 3.48028 7.6376 3.34107L8.37168 2.35112L7.73131 1.71694L6.74733 2.44393C6.63799 2.53674 6.49743 2.5522 6.35686 2.49033C6.23191 2.42846 6.07572 2.35112 5.95077 2.32019C5.82582 2.27378 5.71649 2.16551 5.68525 2.01083L5.49782 0.788863H4.56069L4.37327 2.01083C4.34203 2.16551 4.24832 2.27378 4.10775 2.32019C3.9828 2.35112 3.82661 2.39753 3.70166 2.49033C3.57671 2.5522 3.42052 2.53674 3.31119 2.44393L2.31158 1.71694L1.67121 2.35112L2.42092 3.34107C2.51463 3.48028 2.53025 3.61949 2.45215 3.7587C2.37406 3.88244 2.31158 4.03712 2.26473 4.16087C2.23349 4.28461 2.09292 4.37742 1.96797 4.39289L0.749703 4.56303V5.46017L1.96797 5.63032C2.09292 5.66125 2.20225 5.73859 2.26473 5.8778L2.31158 5.95514C2.35844 6.09435 2.4053 6.18716 2.46777 6.29544C2.53025 6.43465 2.53025 6.6048 2.45215 6.71307L1.68683 7.68755L2.34282 8.3372L3.32681 7.61021C3.43614 7.5174 3.59233 7.50193 3.71728 7.56381C3.85785 7.62568 3.99842 7.68755 4.13899 7.73395C4.26394 7.78036 4.37327 7.88863 4.38889 8.04331L4.56069 9.23434Z" fill="#272727"/>
<path fill-rule="evenodd" clip-rule="evenodd" d="M5.01384 7.02247C3.88929 7.02247 2.9834 6.12534 2.9834 4.99618C2.9834 3.88249 3.88929 2.98535 5.01384 2.98535C6.1384 2.98535 7.05991 3.88249 7.05991 4.99618C7.05991 6.12534 6.1384 7.02247 5.01384 7.02247ZM5.01384 3.75875C4.32662 3.75875 3.74872 4.31559 3.74872 5.01165C3.74872 5.72317 4.311 6.29548 5.01384 6.29548C5.73231 6.29548 6.29459 5.72317 6.29459 5.01165C6.29459 4.33106 5.71669 3.75875 5.01384 3.75875Z" fill="#272727"/>
</svg>
