<svg width="42" height="42" viewBox="0 0 42 42" fill="none" xmlns="http://www.w3.org/2000/svg">
<g clip-path="url(#clip0_281_2303)">
<path d="M21.4775 22.9527C24.2854 22.9527 30.8872 19.5734 30.8872 11.4762C30.8872 10.3468 30.8597 9.25572 30.7666 8.22485C30.6138 6.19605 30.1983 4.39805 29.1637 3.0201C27.8366 1.14493 25.5148 0 21.4775 0C17.4408 0 15.1192 1.14447 13.7921 3.01905C12.7568 4.39735 12.341 6.19582 12.1883 8.22532C12.0953 9.25607 12.0679 10.347 12.0679 11.4763C12.0678 19.5734 18.6695 22.9527 21.4775 22.9527ZM24.5489 4.20438C24.2749 4.89702 24.1376 5.24339 23.8634 5.93592C22.0932 5.43579 20.8615 5.43579 19.0913 5.93592C18.8172 5.24339 18.6799 4.89702 18.4057 4.20438C20.6195 3.5342 22.3354 3.53432 24.5489 4.20438ZM13.4676 9.72059C13.5761 9.95768 14.0366 10.8694 14.7495 10.9548C15.569 11.0531 16.9293 8.0526 21.4775 8.04526C26.0255 8.0526 27.3859 11.0531 28.2054 10.9548C28.9183 10.8692 29.3789 9.95768 29.4873 9.72059C29.5093 10.3016 29.5175 10.8898 29.5175 11.4763C29.5175 15.4342 27.7699 17.8865 26.3037 19.2468C24.4565 20.9609 22.4054 21.583 21.4776 21.583C20.5497 21.583 18.4987 20.9609 16.6514 19.2468C15.1852 17.8865 13.4377 15.4342 13.4377 11.4763C13.4376 10.8898 13.4456 10.3016 13.4676 9.72059Z" fill="#272727"/>
<path d="M38.9469 34.7225C38.4664 31.7354 37.4776 27.8876 35.4938 26.5202C34.139 25.5861 29.4126 23.061 27.3943 21.9827L27.3602 21.9646C27.1295 21.8413 26.8477 21.8661 26.6422 22.0275C25.5849 22.8575 24.4268 23.4169 23.2001 23.6901C22.9833 23.7384 22.8054 23.8923 22.7268 24.0999L21.4776 27.3927L20.2283 24.0999C20.1497 23.8923 19.9719 23.7384 19.755 23.6901C18.5284 23.4169 17.3703 22.8575 16.3131 22.0275C16.1071 21.866 15.8256 21.8413 15.5949 21.9646C13.6006 23.0302 8.81641 25.6069 7.46744 26.5162C5.18374 28.0546 4.18535 33.6221 4.00832 34.7226C3.99086 34.8318 4.00098 34.9434 4.03776 35.0477C4.08618 35.1843 4.84144 37.1406 8.61855 38.7135C8.83631 38.4391 9.12636 38.231 9.4526 38.1139C9.04733 37.97 8.6956 37.688 8.47061 37.3095C8.13541 36.7455 8.12295 36.0377 8.43733 35.4638C9.40569 33.6911 11.2603 32.5882 13.2796 32.5855C15.1579 32.5855 16.8606 33.5189 17.8717 35.0359H25.0793C25.2772 34.7404 25.5041 34.464 25.7588 34.2085C26.8005 33.1638 28.1864 32.5874 29.6613 32.5853H29.6624H29.6636C31.6813 32.5853 33.5382 33.6822 34.51 35.4488C34.8249 36.0221 34.8143 36.7285 34.4811 37.2944C34.2574 37.673 33.9066 37.9559 33.5018 38.1011C33.8337 38.2186 34.1283 38.4299 34.3477 38.7091C38.1152 37.137 38.8693 35.1843 38.9177 35.0479C38.9543 34.9433 38.9645 34.8315 38.9469 34.7225Z" fill="#272727"/>
<path d="M32.8821 39.6233H32.8816L29.409 39.628C29.3474 39.4818 29.2292 39.0759 29.228 38.1074C29.2264 37.1388 29.3432 36.7321 29.4047 36.5856L32.8764 36.5805C32.9594 36.58 33.036 36.5363 33.078 36.465C33.1202 36.3934 33.1214 36.3054 33.0816 36.2328C32.3966 34.9877 31.0896 34.2144 29.6633 34.2144C28.6235 34.2159 27.6467 34.6223 26.9127 35.3586C26.5344 35.7378 26.2457 36.1819 26.0533 36.6651H16.8971C16.3223 35.2317 14.9194 34.2147 13.2795 34.2147C11.8575 34.2167 10.55 34.9944 9.86715 36.2447C9.82734 36.3173 9.82897 36.4056 9.87122 36.4768C9.91347 36.5479 9.99006 36.5913 10.0728 36.5913H10.073L13.5457 36.5858C13.6075 36.732 13.7255 37.138 13.7267 38.1068C13.7283 39.0755 13.6114 39.482 13.55 39.6283L10.0783 39.6335C9.99553 39.6336 9.91894 39.6776 9.87669 39.7487C9.83468 39.8201 9.83328 39.9084 9.87332 39.981C10.558 41.2261 11.8656 42 13.2857 42H13.2914C14.3314 41.9983 15.3079 41.5919 16.0422 40.8555C16.4205 40.476 16.7091 40.0318 16.9013 39.5486H26.0573C26.6323 40.9825 28.0341 41.9994 29.67 41.9996C29.67 41.9996 29.6752 41.9996 29.6754 41.9996C31.0971 41.9976 32.4049 41.2194 33.0878 39.97C33.1276 39.8972 33.1259 39.8088 33.0837 39.7378C33.0414 39.6667 32.9649 39.6233 32.8821 39.6233Z" fill="#272727"/>
</g>
<defs>
<clipPath id="clip0_281_2303">
<rect width="42" height="42" fill="white"/>
</clipPath>
</defs>
</svg>
