<svg width="30" height="28" viewBox="0 0 30 28" fill="none" xmlns="http://www.w3.org/2000/svg">
<path d="M28.8974 21.2472L18.6531 2.41551C17.0072 -0.355411 12.995 -0.359092 11.3468 2.41551L1.10305 21.2472C-0.57952 24.0786 1.45756 27.664 4.75535 27.664H25.2443C28.5393 27.664 30.58 24.0815 28.8974 21.2472ZM15 24.2656C14.0633 24.2656 13.3008 23.5031 13.3008 22.5664C13.3008 21.6296 14.0633 20.8672 15 20.8672C15.9367 20.8672 16.6992 21.6296 16.6992 22.5664C16.6992 23.5031 15.9367 24.2656 15 24.2656ZM16.6992 17.4687C16.6992 18.4054 15.9367 19.1679 15 19.1679C14.0633 19.1679 13.3008 18.4054 13.3008 17.4687V8.97262C13.3008 8.0359 14.0633 7.2734 15 7.2734C15.9367 7.2734 16.6992 8.0359 16.6992 8.97262V17.4687Z" fill="white"/>
</svg>
