<svg width="18" height="14" viewBox="0 0 18 14" fill="none" xmlns="http://www.w3.org/2000/svg">
<g clip-path="url(#clip0_281_1783)">
<path fill-rule="evenodd" clip-rule="evenodd" d="M3.92993 1.19924H14.0712C14.3928 1.19924 14.6522 1.44677 14.6522 1.75228V6.96222C14.6522 7.26838 14.3928 7.51526 14.0712 7.51526H3.92993C3.60831 7.51526 3.34896 7.26838 3.34896 6.96222V1.75228C3.34896 1.44612 3.60831 1.19924 3.92993 1.19924ZM3.47898 0C2.75636 0 2.17334 0.561511 2.17334 1.25982V8.36991C2.17334 9.06821 2.75636 9.63103 3.47898 9.63103H14.5222C15.2455 9.63103 15.8278 9.06821 15.8278 8.36991V1.25982C15.8278 0.561511 15.2455 0 14.5222 0H3.47898Z" fill="#272727"/>
<path fill-rule="evenodd" clip-rule="evenodd" d="M2.43444 10.4877C2.03549 10.4877 1.83499 10.7665 1.71524 11.0524L0.560832 13.2672C0.40139 13.6476 0.559463 14 0.958408 14H17.0421C17.4397 14 17.5978 13.6483 17.4383 13.2672L16.2846 11.0524C16.1642 10.7665 15.9637 10.4877 15.5654 10.4877H2.43444Z" fill="#272727"/>
<path d="M7.76841 2.66691V2.33339C7.76841 2.18617 7.89364 2.06696 8.04829 2.06696H9.95132C10.106 2.06696 10.2312 2.18617 10.2312 2.33339V2.68515L10.6623 2.66691V2.21027C10.6623 1.90411 10.4016 1.65527 10.0793 1.65527H7.91896C7.59734 1.65527 7.33594 1.90346 7.33594 2.21027V2.70273L7.76704 2.66691H7.76841Z" fill="#272727"/>
<path d="M11.7012 4.43604V4.87964C11.7012 4.96107 11.6314 5.02751 11.5458 5.02751H10.7431C10.6576 5.02751 10.5878 4.96107 10.5878 4.87964V4.43604H7.41199V4.87964C7.41199 4.96107 7.34219 5.02751 7.25665 5.02751H6.45397C6.36843 5.02751 6.29863 4.96107 6.29863 4.87964V4.43604H5.44189V6.18701C5.44189 6.58958 5.78473 6.91659 6.20831 6.91659H11.7922C12.2151 6.91659 12.5586 6.59023 12.5586 6.18701V4.43604H11.7018H11.7012Z" fill="#272727"/>
<path d="M12.1035 2.56523H9.10764L8.77233 2.56588H5.89555C5.45486 2.56523 5.09766 2.90526 5.09766 3.32477V4.11101H6.29791V3.94621C6.29791 3.81788 6.40672 3.71431 6.54152 3.71431H7.12728C7.2614 3.71431 7.37089 3.81788 7.37089 3.94555V4.11101L8.86129 4.11166H10.5871V3.94621C10.5878 3.81853 10.6966 3.71496 10.8314 3.71496H11.4171C11.5519 3.71496 11.6608 3.81853 11.6608 3.94686V4.11166H12.9014V3.32411C12.9014 2.90461 12.5442 2.56458 12.1035 2.56458V2.56523Z" fill="#272727"/>
<path d="M7.05883 4.06604H6.63525V4.6712H7.05883V4.06604Z" fill="#272727"/>
<path d="M11.4231 4.06604H10.9995V4.6712H11.4231V4.06604Z" fill="#272727"/>
</g>
<defs>
<clipPath id="clip0_281_1783">
<rect width="17" height="14" fill="white" transform="translate(0.5)"/>
</clipPath>
</defs>
</svg>
