<svg width="131" height="123" viewBox="0 0 131 123" fill="none" xmlns="http://www.w3.org/2000/svg">
<g clip-path="url(#clip0_261_1940)">
<path d="M104.206 96.684L75.9333 84.3458C74.91 83.8984 73.7827 83.845 72.7518 84.1526C72.1196 84.3407 71.5254 84.6662 71.01 85.1187C69.6567 86.3111 69.1159 88.1772 69.6186 89.9111L78.2667 119.652C78.7668 121.368 80.204 122.647 81.9661 122.939C82.677 123.056 83.3879 123.008 84.0506 122.809C85.0358 122.517 85.9143 121.899 86.5262 121.025L89.7127 116.479L93.3385 120.577C94.5141 121.909 96.1315 122.7 97.8987 122.809C98.6782 122.86 99.4526 122.771 100.204 122.548C101.121 122.273 101.956 121.813 102.682 121.18C102.7 121.164 102.715 121.149 102.733 121.134C104.033 119.967 104.815 118.36 104.932 116.609C104.932 116.596 104.932 116.583 104.932 116.57C105.036 114.796 104.447 113.095 103.271 111.773L99.6938 107.723L104.439 105.331C106.039 104.525 107.034 102.87 106.996 101.075L106.991 100.841C106.953 99.028 105.864 97.4035 104.203 96.6789L104.206 96.684ZM102.355 101.179L94.8366 104.967C94.212 105.282 93.7676 105.87 93.6356 106.559C93.501 107.248 93.6991 107.957 94.1612 108.483L99.8004 114.864C100.151 115.256 100.326 115.77 100.296 116.301C100.26 116.832 100.024 117.32 99.6329 117.671C99.2317 118.022 98.7163 118.203 98.1907 118.167C97.6575 118.137 97.1725 117.9 96.8196 117.498L91.1829 111.125C90.7182 110.601 90.0377 110.321 89.3395 110.367C89.1719 110.38 89.0069 110.41 88.852 110.459C88.3543 110.606 87.9151 110.926 87.6206 111.369L82.7252 118.35L74.0772 88.6094L102.35 100.948L102.355 101.181V101.179Z" fill="url(#paint0_linear_261_1940)"/>
<path d="M87.8438 52.8813H91.9062C93.0285 52.8813 93.9375 51.9711 93.9375 50.8474C93.9375 49.7236 93.0285 48.8135 91.9062 48.8135H87.8438C86.7215 48.8135 85.8125 49.7236 85.8125 50.8474C85.8125 51.9711 86.7215 52.8813 87.8438 52.8813Z" fill="url(#paint1_linear_261_1940)"/>
<path d="M87.8438 63.0507H91.9062C93.0285 63.0507 93.9375 62.1405 93.9375 61.0168C93.9375 59.8931 93.0285 58.9829 91.9062 58.9829H87.8438C86.7215 58.9829 85.8125 59.8931 85.8125 61.0168C85.8125 62.1405 86.7215 63.0507 87.8438 63.0507Z" fill="url(#paint2_linear_261_1940)"/>
<path d="M87.8438 73.2201H91.9062C93.0285 73.2201 93.9375 72.31 93.9375 71.1862C93.9375 70.0625 93.0285 69.1523 91.9062 69.1523H87.8438C86.7215 69.1523 85.8125 70.0625 85.8125 71.1862C85.8125 72.31 86.7215 73.2201 87.8438 73.2201Z" fill="url(#paint3_linear_261_1940)"/>
<path d="M87.8438 83.3901H91.9062C93.0285 83.3901 93.9375 82.4799 93.9375 81.3562C93.9375 80.2324 93.0285 79.3223 91.9062 79.3223H87.8438C86.7215 79.3223 85.8125 80.2324 85.8125 81.3562C85.8125 82.4799 86.7215 83.3901 87.8438 83.3901Z" fill="url(#paint4_linear_261_1940)"/>
<path d="M98 50.8474C98 51.9711 98.909 52.8813 100.031 52.8813H116.281C117.404 52.8813 118.312 51.9711 118.312 50.8474C118.312 49.7236 117.404 48.8135 116.281 48.8135H100.031C98.909 48.8135 98 49.7236 98 50.8474Z" fill="url(#paint5_linear_261_1940)"/>
<path d="M87.8438 36.6103H104.094C105.216 36.6103 106.125 35.7001 106.125 34.5764C106.125 33.4526 105.216 32.5425 104.094 32.5425H87.8438C86.7215 32.5425 85.8125 33.4526 85.8125 34.5764C85.8125 35.7001 86.7215 36.6103 87.8438 36.6103Z" fill="url(#paint6_linear_261_1940)"/>
<path d="M116.281 58.9829H100.031C98.909 58.9829 98 59.8931 98 61.0168C98 62.1405 98.909 63.0507 100.031 63.0507H116.281C117.404 63.0507 118.312 62.1405 118.312 61.0168C118.312 59.8931 117.404 58.9829 116.281 58.9829Z" fill="url(#paint7_linear_261_1940)"/>
<path d="M116.281 69.1523H100.031C98.909 69.1523 98 70.0625 98 71.1862C98 72.31 98.909 73.2201 100.031 73.2201H116.281C117.404 73.2201 118.312 72.31 118.312 71.1862C118.312 70.0625 117.404 69.1523 116.281 69.1523Z" fill="url(#paint8_linear_261_1940)"/>
<path d="M116.281 79.3223H100.031C98.909 79.3223 98 80.2324 98 81.3562C98 82.4799 98.909 83.3901 100.031 83.3901H116.281C117.404 83.3901 118.312 82.4799 118.312 81.3562C118.312 80.2324 117.404 79.3223 116.281 79.3223Z" fill="url(#paint9_linear_261_1940)"/>
<path d="M70.6543 88.3119L72.0609 91.5254H14.7188V32.5424H75.6562V84.9966L73.8586 84.2085L70.6543 88.3119ZM78.3172 105.763H77.5555ZM78.3172 105.763L73.0436 88.1771L74.3969 87.5415L79.7188 86.7864V30.5085C79.7188 29.3847 78.8098 28.4746 77.6875 28.4746H12.6875C11.5652 28.4746 10.6562 29.3847 10.6562 30.5085V93.5593C10.6562 94.6831 11.5652 95.5932 12.6875 95.5932H73.8484M126.438 16.2712H4.5625V10.1695C4.5625 6.80085 7.29199 4.0678 10.6562 4.0678H120.344C123.708 4.0678 126.438 6.80085 126.438 10.1695V16.2712ZM77.5555 105.763H10.6562C7.29199 105.763 4.5625 103.03 4.5625 99.661V20.339H126.438V99.661C126.438 103.03 123.708 105.763 120.344 105.763H98L98.716 109.831H120.344C125.953 109.831 130.5 105.277 130.5 99.661V10.1695C130.5 4.55339 125.953 0 120.344 0H10.6562C5.04746 0 0.5 4.55339 0.5 10.1695V99.661C0.5 105.277 5.04746 109.831 10.6562 109.831H77.5555L78.3172 105.763" fill="url(#paint10_linear_261_1940)"/>
<path d="M118.312 8.13574H106.125C105.003 8.13574 104.094 9.04591 104.094 10.1696C104.094 11.2934 105.003 12.2035 106.125 12.2035H118.312C119.435 12.2035 120.344 11.2934 120.344 10.1696C120.344 9.04591 119.435 8.13574 118.312 8.13574Z" fill="url(#paint11_linear_261_1940)"/>
<path d="M98 8.13574H93.9375C92.8152 8.13574 91.9062 9.04591 91.9062 10.1696C91.9062 11.2934 92.8152 12.2035 93.9375 12.2035H98C99.1223 12.2035 100.031 11.2934 100.031 10.1696C100.031 9.04591 99.1223 8.13574 98 8.13574Z" fill="url(#paint12_linear_261_1940)"/>
<path d="M12.6875 12.2035C13.8093 12.2035 14.7188 11.2929 14.7188 10.1696C14.7188 9.04635 13.8093 8.13574 12.6875 8.13574C11.5657 8.13574 10.6562 9.04635 10.6562 10.1696C10.6562 11.2929 11.5657 12.2035 12.6875 12.2035Z" fill="url(#paint13_linear_261_1940)"/>
<path d="M20.8125 12.2035C21.9343 12.2035 22.8438 11.2929 22.8438 10.1696C22.8438 9.04635 21.9343 8.13574 20.8125 8.13574C19.6907 8.13574 18.7812 9.04635 18.7812 10.1696C18.7812 11.2929 19.6907 12.2035 20.8125 12.2035Z" fill="url(#paint14_linear_261_1940)"/>
<path d="M28.9375 12.2035C30.0593 12.2035 30.9688 11.2929 30.9688 10.1696C30.9688 9.04635 30.0593 8.13574 28.9375 8.13574C27.8157 8.13574 26.9062 9.04635 26.9062 10.1696C26.9062 11.2929 27.8157 12.2035 28.9375 12.2035Z" fill="url(#paint15_linear_261_1940)"/>
<path d="M71.5938 54.9153C71.5938 53.7916 70.6848 52.8814 69.5625 52.8814H46.3047L36.7578 37.5662C36.1637 36.6103 34.9094 36.3204 33.9547 36.9153C33 37.5103 32.7105 38.7662 33.3047 39.7221L41.5313 52.8814H20.8125C19.6902 52.8814 18.7812 53.7916 18.7812 54.9153C18.7812 56.0391 19.6902 56.9492 20.8125 56.9492H22.1125L25.9109 81.6611C26.0633 82.6628 26.9291 83.4026 27.9422 83.3899H62.4734C63.4865 83.4026 64.3523 82.6628 64.5047 81.6611L68.2625 56.9492H69.5625C70.6848 56.9492 71.5938 56.0391 71.5938 54.9153ZM37.0625 56.9492H43.1562V61.017H37.0625V56.9492ZM33 79.3221H29.6687L26.2359 56.9492H33V79.3221ZM43.1562 79.3221H37.0625V75.2543H43.1562V79.3221ZM53.3125 79.3221H47.2188V75.2543H53.3125V79.3221ZM53.3125 71.1865H37.0625V65.0848H53.3125V71.1865ZM53.3125 61.017H47.2188V56.9492H53.3125V61.017ZM60.7062 79.3221H57.375V56.9492H64.1391L60.7062 79.3221Z" fill="url(#paint16_linear_261_1940)"/>
</g>
<defs>
<linearGradient id="paint0_linear_261_1940" x1="88.2154" y1="123.002" x2="88.2154" y2="83.9585" gradientUnits="userSpaceOnUse">
<stop stop-color="#1A1A1A"/>
<stop offset="1" stop-color="#585858"/>
</linearGradient>
<linearGradient id="paint1_linear_261_1940" x1="89.875" y1="52.8813" x2="89.875" y2="48.8135" gradientUnits="userSpaceOnUse">
<stop stop-color="#1A1A1A"/>
<stop offset="1" stop-color="#585858"/>
</linearGradient>
<linearGradient id="paint2_linear_261_1940" x1="89.875" y1="63.0507" x2="89.875" y2="58.9829" gradientUnits="userSpaceOnUse">
<stop stop-color="#1A1A1A"/>
<stop offset="1" stop-color="#585858"/>
</linearGradient>
<linearGradient id="paint3_linear_261_1940" x1="89.875" y1="73.2201" x2="89.875" y2="69.1523" gradientUnits="userSpaceOnUse">
<stop stop-color="#1A1A1A"/>
<stop offset="1" stop-color="#585858"/>
</linearGradient>
<linearGradient id="paint4_linear_261_1940" x1="89.875" y1="83.3901" x2="89.875" y2="79.3223" gradientUnits="userSpaceOnUse">
<stop stop-color="#1A1A1A"/>
<stop offset="1" stop-color="#585858"/>
</linearGradient>
<linearGradient id="paint5_linear_261_1940" x1="108.156" y1="52.8813" x2="108.156" y2="48.8135" gradientUnits="userSpaceOnUse">
<stop stop-color="#1A1A1A"/>
<stop offset="1" stop-color="#585858"/>
</linearGradient>
<linearGradient id="paint6_linear_261_1940" x1="95.9688" y1="36.6103" x2="95.9688" y2="32.5425" gradientUnits="userSpaceOnUse">
<stop stop-color="#1A1A1A"/>
<stop offset="1" stop-color="#585858"/>
</linearGradient>
<linearGradient id="paint7_linear_261_1940" x1="108.156" y1="63.0507" x2="108.156" y2="58.9829" gradientUnits="userSpaceOnUse">
<stop stop-color="#1A1A1A"/>
<stop offset="1" stop-color="#585858"/>
</linearGradient>
<linearGradient id="paint8_linear_261_1940" x1="108.156" y1="73.2201" x2="108.156" y2="69.1523" gradientUnits="userSpaceOnUse">
<stop stop-color="#1A1A1A"/>
<stop offset="1" stop-color="#585858"/>
</linearGradient>
<linearGradient id="paint9_linear_261_1940" x1="108.156" y1="83.3901" x2="108.156" y2="79.3223" gradientUnits="userSpaceOnUse">
<stop stop-color="#1A1A1A"/>
<stop offset="1" stop-color="#585858"/>
</linearGradient>
<linearGradient id="paint10_linear_261_1940" x1="65.5" y1="109.831" x2="65.5" y2="0" gradientUnits="userSpaceOnUse">
<stop stop-color="#1A1A1A"/>
<stop offset="1" stop-color="#585858"/>
</linearGradient>
<linearGradient id="paint11_linear_261_1940" x1="112.219" y1="12.2035" x2="112.219" y2="8.13574" gradientUnits="userSpaceOnUse">
<stop stop-color="#1A1A1A"/>
<stop offset="1" stop-color="#585858"/>
</linearGradient>
<linearGradient id="paint12_linear_261_1940" x1="95.9688" y1="12.2035" x2="95.9688" y2="8.13574" gradientUnits="userSpaceOnUse">
<stop stop-color="#1A1A1A"/>
<stop offset="1" stop-color="#585858"/>
</linearGradient>
<linearGradient id="paint13_linear_261_1940" x1="12.6875" y1="12.2035" x2="12.6875" y2="8.13574" gradientUnits="userSpaceOnUse">
<stop stop-color="#1A1A1A"/>
<stop offset="1" stop-color="#585858"/>
</linearGradient>
<linearGradient id="paint14_linear_261_1940" x1="20.8125" y1="12.2035" x2="20.8125" y2="8.13574" gradientUnits="userSpaceOnUse">
<stop stop-color="#1A1A1A"/>
<stop offset="1" stop-color="#585858"/>
</linearGradient>
<linearGradient id="paint15_linear_261_1940" x1="28.9375" y1="12.2035" x2="28.9375" y2="8.13574" gradientUnits="userSpaceOnUse">
<stop stop-color="#1A1A1A"/>
<stop offset="1" stop-color="#585858"/>
</linearGradient>
<linearGradient id="paint16_linear_261_1940" x1="45.1875" y1="83.3901" x2="45.1875" y2="36.6064" gradientUnits="userSpaceOnUse">
<stop stop-color="#1A1A1A"/>
<stop offset="1" stop-color="#585858"/>
</linearGradient>
<clipPath id="clip0_261_1940">
<rect width="130" height="123" fill="white" transform="translate(0.5)"/>
</clipPath>
</defs>
</svg>
