<svg width="131" height="121" viewBox="0 0 131 121" fill="none" xmlns="http://www.w3.org/2000/svg">
<g clip-path="url(#clip0_261_1962)">
<path d="M58.2027 90.9292C55.4555 90.9292 53.2211 88.6954 53.2211 85.9457C53.2211 83.1961 55.4555 80.9623 58.2027 80.9623C60.95 80.9623 63.1844 83.1961 63.1844 85.9457C63.1844 88.6954 60.95 90.9292 58.2027 90.9292ZM58.2027 85.1579C57.7686 85.1579 57.4131 85.5112 57.4131 85.9457C57.4131 86.8148 58.9898 86.8148 58.9898 85.9457C58.9898 85.5112 58.6344 85.1579 58.2002 85.1579H58.2027ZM76.9309 90.9292C74.1836 90.9292 71.9518 88.6954 71.9518 85.9457C71.9518 83.1961 74.1836 80.9623 76.9309 80.9623C79.6781 80.9623 81.91 83.1961 81.91 85.9457C81.91 88.6954 79.6781 90.9292 76.9309 90.9292ZM76.9309 85.1579C76.4967 85.1579 76.1438 85.5112 76.1438 85.9457C76.1438 86.8148 77.7154 86.8148 77.7154 85.9457C77.7154 85.5112 77.3625 85.1579 76.9283 85.1579H76.9309ZM92.6172 43.0644C91.6879 41.8522 90.2736 41.1559 88.7477 41.1559H41.1021L39.8605 36.5104C39.2309 34.1521 37.0904 32.5054 34.6504 32.5054H31.5248C30.367 32.5054 29.4275 33.4431 29.4275 34.6045C29.4275 35.7658 30.3645 36.7036 31.5248 36.7036H34.6504C35.1938 36.7036 35.6686 37.0695 35.8082 37.5955L45.8248 75.0767C46.5586 77.8238 49.0545 79.7425 51.8932 79.7425H85.5104C86.6682 79.7425 87.6076 78.8048 87.6076 77.6434C87.6076 76.482 86.6707 75.5443 85.5104 75.5443H51.8932C50.9486 75.5443 50.1184 74.9039 49.8746 73.9941L49.1104 71.1327H80.6734C84.4693 71.1327 87.8082 68.566 88.7908 64.8939L93.4627 47.3032C93.8563 45.8242 93.5439 44.2791 92.6147 43.0669L92.6172 43.0644ZM89.291 45.6209C89.3697 45.7225 89.4865 45.9334 89.4104 46.2206L87.3309 54.0426H79.965L81.133 45.3515H88.7451C89.0396 45.3515 89.2123 45.5192 89.291 45.6209ZM75.7375 54.0452H68.0314V45.354H76.9055L75.735 54.0452H75.7375ZM63.8369 45.354V54.0452H56.1385L54.9604 45.354H63.8344H63.8369ZM50.7303 45.354L51.9059 54.0452H44.5553L42.2295 45.354H50.7303ZM52.4746 58.2434L53.6502 66.9345H48.0059L45.6801 58.2434H52.4746ZM56.7072 58.2434H63.8369V66.9345H57.8828L56.7072 58.2434ZM68.0314 66.932V58.2408H75.1713L74.0008 66.932H68.0289H68.0314ZM80.6734 66.932H78.2334L79.4014 58.2408H86.2162L84.7359 63.8062C84.2434 65.6461 82.5727 66.9294 80.6734 66.9294V66.932ZM36.0139 9.63903C36.0139 8.55137 35.1354 7.67209 34.0486 7.67209H12.4793C11.3926 7.67209 10.5141 8.55137 10.5141 9.63903C10.5141 10.7267 11.3926 11.606 12.4793 11.606H34.0512C35.1379 11.606 36.0164 10.7267 36.0164 9.63903H36.0139ZM95.2553 9.63903C95.2553 10.7979 94.3158 11.7381 93.158 11.7381C92.0002 11.7381 91.0607 10.7979 91.0607 9.63903C91.0607 8.48022 92.0002 7.53995 93.158 7.53995C94.3158 7.53995 95.2553 8.48022 95.2553 9.63903ZM101.809 7.53995C100.651 7.53995 99.7113 8.48022 99.7113 9.63903C99.7113 10.7979 100.651 11.7381 101.809 11.7381C102.966 11.7381 103.906 10.7979 103.906 9.63903C103.906 8.48022 102.966 7.53995 101.809 7.53995ZM110.459 7.53995C109.301 7.53995 108.362 8.48022 108.362 9.63903C108.362 10.7979 109.301 11.7381 110.459 11.7381C111.617 11.7381 112.556 10.7979 112.556 9.63903C112.556 8.48022 111.617 7.53995 110.459 7.53995ZM128.964 99.2493L122.532 93.8237C122.537 93.6941 122.558 93.567 122.558 93.4374V11.4459C122.558 5.14353 117.419 0 111.122 0H11.9359C5.63906 0 0.5 5.14353 0.5 11.4459V93.4374C0.5 99.7397 5.63906 104.883 11.9359 104.883H99.9652V112.743C99.9652 114.436 100.917 115.933 102.448 116.649C103.967 117.358 105.734 117.137 107.031 116.06L110.959 112.792L113.146 117.493C113.821 118.959 115.035 120.075 116.548 120.629C117.223 120.875 117.929 120.997 118.625 120.997C119.493 120.997 120.362 120.809 121.171 120.431C122.634 119.75 123.749 118.538 124.3 117.02C124.853 115.501 124.782 113.856 124.099 112.398L121.915 107.691L126.94 106.794C128.603 106.494 129.906 105.295 130.343 103.658C130.782 102.027 130.249 100.334 128.959 99.2467L128.964 99.2493ZM4.68437 11.4459C4.68437 7.46117 7.93438 4.20834 11.9359 4.20834H111.122C115.123 4.20834 118.373 7.46117 118.373 11.4459V15.0646H4.68437V11.4459ZM99.9602 84.0474L99.9652 100.675H11.9359C7.93438 100.675 4.68437 97.4221 4.68437 93.4374V19.273H118.373V90.3142L107.042 80.7514C105.744 79.6535 103.982 79.4325 102.451 80.1415C100.915 80.8556 99.9602 82.3498 99.9602 84.0474ZM126.204 102.665L118.5 104.042C117.861 104.156 117.31 104.563 117.01 105.14C116.708 105.717 116.695 106.403 116.969 106.993L120.303 114.174C120.511 114.616 120.532 115.122 120.364 115.585C120.191 116.047 119.851 116.421 119.409 116.629C118.96 116.835 118.452 116.858 117.993 116.687C117.525 116.52 117.157 116.179 116.949 115.729L113.615 108.555C113.341 107.966 112.808 107.534 112.173 107.392C112.021 107.358 111.866 107.343 111.713 107.343C111.231 107.343 110.756 107.511 110.375 107.826L104.162 112.746L104.337 83.9585L126.26 102.459L126.201 102.667L126.204 102.665Z" fill="url(#paint0_linear_261_1962)"/>
</g>
<defs>
<linearGradient id="paint0_linear_261_1962" x1="65.497" y1="120.997" x2="65.497" y2="0" gradientUnits="userSpaceOnUse">
<stop stop-color="#1A1A1A"/>
<stop offset="1" stop-color="#585858"/>
</linearGradient>
<clipPath id="clip0_261_1962">
<rect width="130" height="121" fill="white" transform="translate(0.5)"/>
</clipPath>
</defs>
</svg>
