<svg width="131" height="113" viewBox="0 0 131 113" fill="none" xmlns="http://www.w3.org/2000/svg">
<path d="M118.32 0.5C125.027 0.500203 130.5 5.99279 130.5 12.7227C130.5 12.8472 130.478 100.552 130.473 100.69C130.489 107.208 125.227 112.5 118.731 112.5H12.6797C5.98136 112.5 0.5 106.999 0.5 100.277V12.7227C0.5 6.00094 5.98136 0.500206 12.6797 0.5H118.32ZM4.95703 100.277C4.95703 104.532 8.41792 108.006 12.6797 108.006H115.018C121.108 108.006 126.043 103.054 126.043 96.9424V21.0811H4.95703V100.277ZM97.4893 78.8984C98.0489 78.7331 98.6577 78.7634 99.2119 79.0049L114.507 85.6943H114.504C115.402 86.0878 115.991 86.9698 116.016 87.9521V88.0791C116.037 89.0506 115.499 89.9488 114.634 90.3857L112.064 91.6836L114.001 93.8789C114.636 94.5953 114.956 95.5179 114.899 96.4785V96.4971C114.835 97.4468 114.412 98.3179 113.709 98.9502C113.701 98.9583 113.69 98.9665 113.682 98.9746C113.287 99.3165 112.838 99.5666 112.341 99.7158C111.935 99.8379 111.516 99.8836 111.094 99.8564C110.139 99.7967 109.263 99.3682 108.628 98.6465L106.667 96.4238L104.941 98.8877C104.612 99.3625 104.136 99.6963 103.604 99.8564C103.244 99.9623 102.86 99.9928 102.476 99.9277C101.524 99.7676 100.745 99.0753 100.475 98.1445L95.7959 82.0195C95.5229 81.0807 95.8151 80.0687 96.5479 79.4229C96.8237 79.1759 97.1485 79.0016 97.4893 78.8984ZM102.884 97.4443L105.531 93.6592C105.691 93.4178 105.926 93.2465 106.196 93.165C106.283 93.1406 106.373 93.1244 106.462 93.1162C106.84 93.0892 107.209 93.2405 107.46 93.5254L110.51 96.9805C110.702 97.1976 110.962 97.3245 111.251 97.3408C111.535 97.3598 111.816 97.2622 112.032 97.0723C112.246 96.8823 112.374 96.6167 112.393 96.3291C112.409 96.0414 112.313 95.7615 112.124 95.5498L109.074 92.0898C108.823 91.8049 108.717 91.4223 108.79 91.0479C108.86 90.6735 109.102 90.3565 109.439 90.1855L113.501 88.1328V88.0088L98.2051 81.3193L102.884 97.4443ZM65.6377 28.4922C74.4968 28.4949 82.8151 31.9572 89.0674 38.2393C95.3224 44.5215 98.7625 52.872 98.7598 61.7539C98.7516 80.0795 83.8915 94.9912 65.6377 94.9912H65.624C60.0804 94.9884 54.6337 93.5938 49.7959 90.9453L32.2373 95.5664L36.9375 78.3428C34.0385 73.3034 32.5156 67.5854 32.5156 61.7266C32.5238 43.401 47.3812 28.4923 65.6377 28.4922ZM65.6484 34.1035C50.4641 34.1037 38.1138 46.4947 38.1084 61.7266C38.1057 66.9477 39.5607 72.0308 42.3164 76.4297L42.9707 77.4746L40.1904 87.6699L50.6104 84.9258L51.6162 85.5254C55.843 88.041 60.6863 89.3769 65.627 89.377H65.6377V89.374C80.8114 89.374 93.1616 76.9801 93.167 61.748C93.1696 54.3669 90.3089 47.4252 85.1113 42.2041C79.9137 36.983 73.0013 34.1035 65.6484 34.1035ZM53.9121 46.3779C54.4665 46.3779 55.0186 46.3838 55.5 46.4082C56.0083 46.4325 56.6901 46.2153 57.3633 47.832C58.0529 49.4955 59.7076 53.5829 59.9131 53.998C60.1212 54.4131 60.259 54.8987 59.9834 55.4521C59.7076 56.0057 58.8092 57.1786 57.9141 58.2939C57.5463 58.7524 57.0705 59.1573 57.5518 59.9902C58.0332 60.8208 59.6945 63.5425 62.1553 65.7432C65.316 68.573 67.9818 69.45 68.8096 69.8652C69.6369 70.2803 70.1186 70.2095 70.6025 69.6562C71.0866 69.1027 72.672 67.2298 73.2236 66.3994C73.7726 65.5693 74.3269 65.7076 75.084 65.9844C75.8412 66.2639 79.9104 68.2721 80.7383 68.6875L80.7441 68.6904C81.5715 69.1055 82.1236 69.3119 82.3291 69.6592C82.537 70.0049 82.5369 71.668 81.8477 73.6074C81.1553 75.5475 77.851 77.3166 76.2607 77.5557C74.833 77.77 73.0289 77.8597 71.0469 77.2275C69.8435 76.8449 68.3013 76.3341 66.3271 75.4766C58.0253 71.8781 52.6032 63.4928 52.1895 62.9365C51.7749 62.3791 48.8098 58.4317 48.8096 54.3457C48.8096 50.259 50.9478 48.2474 51.7051 47.417C52.4622 46.5839 53.3577 46.3779 53.9121 46.3779ZM12.6797 4.99414C8.41792 4.99435 4.95703 8.46769 4.95703 12.7227V16.5869H126.043V12.7227C126.043 8.46769 122.582 4.99434 118.32 4.99414H12.6797ZM99.1875 8.55176C100.42 8.55193 101.421 9.55568 101.421 10.793C101.421 12.0303 100.421 13.034 99.1875 13.0342C97.9543 13.0342 96.9531 12.0304 96.9531 10.793C96.9532 9.55557 97.9544 8.55176 99.1875 8.55176ZM108.4 8.55176C109.634 8.55176 110.635 9.55506 110.635 10.793C110.635 12.0309 109.634 13.0342 108.4 13.0342C107.167 13.034 106.167 12.0308 106.167 10.793C106.167 9.55515 107.167 8.5519 108.4 8.55176ZM117.614 8.55176C118.848 8.55183 119.848 9.55511 119.848 10.793C119.848 12.0309 118.848 13.0341 117.614 13.0342C116.381 13.0342 115.381 12.0309 115.381 10.793C115.381 9.55506 116.381 8.55176 117.614 8.55176ZM36.2314 8.69238C37.3888 8.69238 38.3251 9.63155 38.3252 10.793H38.3271C38.3271 11.9544 37.3918 12.8935 36.2344 12.8936H13.2588C12.1014 12.8936 11.166 11.9544 11.166 10.793C11.1661 9.63155 12.1014 8.69238 13.2588 8.69238H36.2314Z" fill="url(#paint0_linear_261_1986)"/>
<defs>
<linearGradient id="paint0_linear_261_1986" x1="65.5" y1="112.5" x2="65.5" y2="0.5" gradientUnits="userSpaceOnUse">
<stop stop-color="#1A1A1A"/>
<stop offset="1" stop-color="#585858"/>
</linearGradient>
</defs>
</svg>
