<svg width="131" height="97" viewBox="0 0 131 97" fill="none" xmlns="http://www.w3.org/2000/svg">
<path d="M115.16 0C120.773 0.000107873 125.341 4.57931 125.341 10.2041V76.5938H127.958C129.599 76.5938 130.82 78.1386 130.424 79.749C130.102 89.3145 122.233 96.9999 112.608 97H18.3276C8.49893 97 0.500488 88.9883 0.500488 79.1377C0.500731 77.7336 1.63814 76.5938 3.03955 76.5938H5.59619V10.2041C5.59626 4.5767 10.1644 0 15.7808 0H115.16ZM5.83252 81.6826C7.01334 87.5109 12.168 91.9121 18.3276 91.9121H112.61C118.769 91.9121 123.924 87.5109 125.105 81.6826H80.5347L76.1821 86.043C75.7048 86.5211 75.06 86.7881 74.3872 86.7881H54.0015C53.3286 86.7881 52.6829 86.5187 52.2056 86.043L47.854 81.6826H5.83252ZM15.7808 5.08789C12.965 5.08789 10.6744 7.3828 10.6743 10.2041V76.5938H48.9048C49.5776 76.5938 50.2233 76.8641 50.7007 77.3398L55.0522 81.7002H73.3335L77.6851 77.3398C78.1624 76.8616 78.8081 76.5938 79.481 76.5938H120.26V10.2041C120.26 7.3828 117.973 5.08789 115.157 5.08789H15.7808ZM110.061 12.7656C111.463 12.7656 112.6 13.9062 112.6 15.3105V66.3721C112.6 67.7764 111.463 68.916 110.061 68.916H20.8765C19.4749 68.916 18.3374 67.7764 18.3374 66.3721V15.3105C18.3374 13.9062 19.4749 12.7656 20.8765 12.7656H110.061ZM23.4155 63.8281H107.522V17.8545H23.4155V63.8281ZM56.9976 20.4189C65.8282 20.4191 73.412 26.4741 75.4712 34.9609C75.4733 34.9715 75.5162 35.198 75.5298 35.4639L90.7466 41.0234H90.7485C92.0155 41.4865 92.8995 42.6464 93.0112 43.9922L93.0269 44.165C93.136 45.4981 92.4725 46.7747 91.3198 47.4463L87.9028 49.4443L90.7466 52.291C91.6782 53.2196 92.1962 54.4585 92.1987 55.7812V55.8096C92.191 57.1195 91.6858 58.3479 90.772 59.2764C90.7593 59.2891 90.7485 59.2998 90.7358 59.3125C90.2231 59.816 89.6266 60.1972 88.9565 60.4414C88.4082 60.6424 87.8367 60.7422 87.2554 60.7422C85.9377 60.7447 84.6985 60.2281 83.7642 59.292L80.8823 56.4092L78.7212 59.9355C78.3048 60.6122 77.68 61.1114 76.9614 61.376C76.4767 61.5539 75.9514 61.6242 75.4185 61.5684C74.0956 61.431 72.9675 60.5462 72.5181 59.292L70.2319 52.9121L70.1167 53.082L68.8696 54.3516C65.5182 57.0379 61.3391 58.5536 56.9976 58.5537C46.5062 58.5537 37.9673 49.9984 37.9673 39.4863C37.9673 28.9743 46.5062 20.4189 56.9976 20.4189ZM75.771 58.1191L79.0923 52.7031C79.2903 52.3622 79.6023 52.102 79.9653 51.9697C80.0796 51.929 80.2019 51.8987 80.3237 51.8809C80.8391 51.8122 81.3599 51.9905 81.728 52.3594L86.2065 56.8418C86.4858 57.1242 86.8593 57.2773 87.2554 57.2773C87.6488 57.2798 88.0244 57.1216 88.3062 56.8418C88.5804 56.562 88.7358 56.1879 88.7358 55.791C88.7332 55.3943 88.5804 55.0208 88.3013 54.7461L83.8198 50.2578C83.4493 49.889 83.2719 49.3704 83.3403 48.8516C83.4063 48.3327 83.7105 47.8744 84.1597 47.6123L89.5757 44.4502L89.561 44.2764L67.9858 36.3955L75.771 58.1191ZM56.9976 23.8838C48.4131 23.8838 41.4275 30.8821 41.4272 39.4834C41.4272 48.0849 48.413 55.084 56.9976 55.084C61.098 55.0839 65.0211 53.4382 67.9282 50.5635C67.9345 50.5566 68.4526 49.9761 68.8804 49.1416L64.7339 37.5684C64.2794 36.3015 64.5964 34.8894 65.5483 33.9404C65.9089 33.5792 66.3362 33.3095 66.7983 33.1416C67.5498 32.867 68.3904 32.8567 69.1724 33.1416L71.5825 34.0215L71.5737 33.9834C69.3343 27.9949 63.5836 23.884 56.9976 23.8838ZM58.729 31.1396C60.7373 31.8572 62.1899 33.765 62.1899 36.0215H58.729C58.729 35.0649 57.9517 34.2891 56.9995 34.2891C56.0475 34.2892 55.271 35.065 55.271 36.0215C55.2711 36.9779 56.0475 37.7538 56.9995 37.7539C59.861 37.7539 62.1899 40.0869 62.1899 42.9541C62.1899 45.2105 60.7373 47.1185 58.729 47.8359V51.6211H55.2681V47.8359C53.2597 47.1185 51.8072 45.2106 51.8071 42.9541H55.2681C55.2682 43.9106 56.0455 44.6865 56.9976 44.6865C57.9495 44.6863 58.726 43.9105 58.7261 42.9541C58.7261 41.9977 57.9495 41.2219 56.9976 41.2217C54.1361 41.2217 51.8072 38.8886 51.8071 36.0215C51.8071 33.7649 53.2597 31.8571 55.2681 31.1396V27.3535H58.729V31.1396ZM90.2339 32.5488L81.5806 34.2812L80.9028 30.8799L89.5552 29.1475L90.2339 32.5488ZM82.7329 22.9521L79.2749 29.8828L76.1821 28.333L79.6401 21.4033L82.7329 22.9521Z" fill="url(#paint0_linear_261_2003)"/>
<defs>
<linearGradient id="paint0_linear_261_2003" x1="65.5" y1="97" x2="65.5" y2="0" gradientUnits="userSpaceOnUse">
<stop stop-color="#1A1A1A"/>
<stop offset="1" stop-color="#585858"/>
</linearGradient>
</defs>
</svg>
