<svg width="131" height="97" viewBox="0 0 131 97" fill="none" xmlns="http://www.w3.org/2000/svg">
<path d="M115.16 0C120.773 0.000107873 125.341 4.57931 125.341 10.2041V76.5938H127.958C129.599 76.5938 130.82 78.1386 130.424 79.749C130.102 89.3145 122.233 96.9999 112.608 97H18.3276C8.49893 97 0.500488 88.9883 0.500488 79.1377C0.500731 77.7336 1.63814 76.5938 3.03955 76.5938H5.59619V10.2041C5.59626 4.5767 10.1644 0 15.7808 0H115.16ZM5.83252 81.6826C7.01334 87.5109 12.168 91.9121 18.3276 91.9121H112.61C118.769 91.9121 123.924 87.5109 125.105 81.6826H80.5347L76.1821 86.043C75.7048 86.5211 75.06 86.7881 74.3872 86.7881H54.0015C53.3286 86.7881 52.6829 86.5187 52.2056 86.043L47.854 81.6826H5.83252ZM15.7808 5.08789C12.965 5.08789 10.6744 7.3828 10.6743 10.2041V76.5938H48.9048C49.5776 76.5938 50.2233 76.8641 50.7007 77.3398L55.0522 81.7002H73.3335L77.6851 77.3398C78.1624 76.8616 78.8081 76.5938 79.481 76.5938H120.26V10.2041C120.26 7.3828 117.973 5.08789 115.157 5.08789H15.7808ZM110.061 12.7656C111.463 12.7656 112.6 13.9062 112.6 15.3105V66.3721C112.6 67.7764 111.463 68.916 110.061 68.916H20.8765C19.4749 68.916 18.3374 67.7764 18.3374 66.3721V15.3105C18.3374 13.9062 19.4749 12.7656 20.8765 12.7656H110.061ZM23.4155 17.8545V63.8281H107.522V17.8545H23.4155ZM96.7974 48.0674C99.2651 48.0675 101.268 49.6652 101.268 51.6367V56.9893C101.268 58.9608 99.2677 60.5584 96.7974 60.5586H34.2036C31.7358 60.5584 29.7329 58.9608 29.7329 56.9893V51.6367C29.733 49.6652 31.7333 48.0676 34.2036 48.0674H96.7974ZM34.2036 56.9873H37.5991L42.9634 51.6348H34.2036V56.9873ZM43.3267 56.9873H51.0122L56.3774 51.6348H48.6919L43.3267 56.9873ZM56.7407 56.9873H65.5005V51.6348H62.106L56.7407 56.9873ZM69.9722 56.9873H96.7974V51.6348H69.9722V56.9873ZM44.1392 28.4404C45.1218 28.4404 45.9194 29.2391 45.9194 30.2236V38.4053L46.4419 37.8809C47.1401 37.2067 48.2499 37.2149 48.938 37.9043C49.6235 38.5937 49.6339 39.7057 48.9585 40.4053L45.396 43.9736C45.2285 44.1389 45.0332 44.2713 44.8149 44.3604C44.3782 44.5435 43.8878 44.5435 43.4536 44.3604C43.2354 44.2713 43.0375 44.1389 42.8726 43.9736L42.8804 43.9717L39.3198 40.4053C38.647 39.7057 38.6578 38.5912 39.3433 37.9043C40.0288 37.2174 41.1411 37.2071 41.8394 37.8838L42.3599 38.4053V30.2236C42.3599 29.2391 43.1566 28.4405 44.1392 28.4404ZM65.5005 19.5205C72.3839 19.5205 77.9644 25.1128 77.9644 32.0098C77.9642 38.9065 72.3838 44.498 65.5005 44.498C58.6198 44.4904 53.0444 38.904 53.0366 32.0098C53.0366 25.1128 58.6171 19.5205 65.5005 19.5205ZM86.8745 28.4404C87.857 28.4405 88.6538 29.2391 88.6538 30.2236V38.4053L89.1772 37.8809C89.8755 37.2068 90.9853 37.2149 91.6733 37.9043C92.3586 38.5938 92.3692 39.7057 91.6938 40.4053L88.1313 43.9736C87.9638 44.139 87.7651 44.2713 87.5493 44.3604C87.1126 44.5435 86.6231 44.5435 86.189 44.3604C85.9706 44.2713 85.772 44.139 85.6069 43.9736L85.6177 43.9717L82.0581 40.4053C81.3828 39.7058 81.3924 38.5938 82.0776 37.9043C82.7632 37.2174 83.8755 37.2071 84.5737 37.8838L85.0942 38.4053V30.2236C85.0942 29.2391 85.8919 28.4404 86.8745 28.4404ZM65.5005 23.0898C60.5874 23.0949 56.6058 27.087 56.5981 32.0098C56.5983 36.9349 60.585 40.9287 65.5005 40.9287C70.416 40.9287 74.4026 36.9349 74.4028 32.0098C74.4028 27.0845 70.4161 23.0898 65.5005 23.0898ZM65.5005 26.6562C68.4509 26.6562 70.8423 29.0536 70.8423 32.0098C70.8421 34.9658 68.4508 37.3623 65.5005 37.3623C62.5502 37.3623 60.1589 34.9658 60.1587 32.0098C60.1587 29.0536 62.5501 26.6562 65.5005 26.6562ZM65.5005 30.2256C64.5179 30.2256 63.7202 31.0252 63.7202 32.0098C63.7204 32.9941 64.518 33.793 65.5005 33.793C66.483 33.793 67.2806 32.9941 67.2808 32.0098C67.2808 31.0252 66.4831 30.2256 65.5005 30.2256Z" fill="url(#paint0_linear_261_2028)"/>
<defs>
<linearGradient id="paint0_linear_261_2028" x1="65.5" y1="97" x2="65.5" y2="0" gradientUnits="userSpaceOnUse">
<stop stop-color="#1A1A1A"/>
<stop offset="1" stop-color="#585858"/>
</linearGradient>
</defs>
</svg>
