<?xml version="1.0" encoding="UTF-8"?>
<svg id="Capa_4" data-name="Capa 4" xmlns="http://www.w3.org/2000/svg" xmlns:xlink="http://www.w3.org/1999/xlink" viewBox="0 0 120 120">
  <defs>
    <style>
      .cls-1 {
        fill: none;
      }

      .cls-2 {
        fill: #a7a7a6;
      }

      .cls-3 {
        clip-path: url(#clippath);
      }
    </style>
    <clipPath id="clippath">
      <rect class="cls-1" x="10" y="16.43" width="100" height="87.14"/>
    </clipPath>
  </defs>
  <g class="cls-3">
    <g>
      <path class="cls-2" d="M65.32,66.93c0,.71-.58,1.29-1.29,1.29h-12.87c-.71,0-1.29-.58-1.29-1.29s.57-1.29,1.29-1.29h12.87c.71,0,1.29.57,1.29,1.29Z"/>
      <path class="cls-2" d="M75.62,61.78c0,.71-.58,1.29-1.29,1.29h-23.18c-.71,0-1.29-.58-1.29-1.29s.57-1.29,1.29-1.29h23.18c.71,0,1.29.57,1.29,1.29Z"/>
      <path class="cls-2" d="M75.62,56.64c0,.71-.58,1.29-1.29,1.29h-23.18c-.71,0-1.29-.58-1.29-1.29s.57-1.29,1.29-1.29h23.18c.71,0,1.29.57,1.29,1.29Z"/>
      <path class="cls-2" d="M38.27,70.79c3.61,0,6.44-2.83,6.44-6.43,0-2.92-1.99-5.05-5.9-6.32l-.29-.1c-1.46-.48-2.82-1.12-2.82-2.59s1.06-2.57,2.57-2.57c1.81,0,3.02.97,3.03.98.55.46,1.36.39,1.82-.15.45-.55.39-1.35-.16-1.81-.07-.06-1.92-1.59-4.69-1.59-2.94,0-5.15,2.21-5.15,5.15,0,3.54,3.46,4.66,4.59,5.03l.29.1c2.78.9,4.13,2.18,4.13,3.88,0,2.2-1.66,3.86-3.86,3.86-2.39,0-3.76-1.57-4.12-2.06-.43-.57-1.24-.68-1.8-.26-.58.43-.69,1.23-.27,1.8.55.73,2.61,3.09,6.19,3.09Z"/>
      <path class="cls-2" d="M38.29,73.36c.71,0,1.29-.57,1.29-1.28v-1.29c0-.71-.58-1.29-1.29-1.29s-1.29.57-1.29,1.29v1.29c0,.71.58,1.28,1.29,1.28Z"/>
      <path class="cls-2" d="M38.29,51.5c.71,0,1.29-.58,1.29-1.29v-1.29c0-.71-.58-1.29-1.29-1.29s-1.29.57-1.29,1.29v1.29c0,.71.58,1.29,1.29,1.29Z"/>
      <path class="cls-2" d="M102.12,58.96v28.96h-31.37c-.52,0-1.01.2-1.38.57l-3.35,3.34h-14.06l-3.35-3.34c-.37-.36-.86-.57-1.38-.57h-29.41v-50.92c0-2.17,1.76-3.92,3.93-3.92h41.62c1.08,0,1.95-.87,1.95-1.95s-.87-1.95-1.95-1.95H21.75c-4.33,0-7.83,3.5-7.83,7.83v50.92h-1.97c-1.08,0-1.95.88-1.95,1.96,0,7.55,6.15,13.69,13.71,13.69h72.52c7.4,0,13.46-5.89,13.71-13.23.3-1.23-.63-2.42-1.9-2.42h-2.02v-28.96c0-1.08-.87-1.95-1.95-1.95s-1.95.87-1.95,1.95ZM96.24,99.67H23.71c-4.74,0-8.7-3.38-9.61-7.85h32.32l3.35,3.34c.37.36.86.57,1.38.57h15.68c.52,0,1.01-.2,1.38-.57l3.35-3.34h34.29c-.91,4.47-4.87,7.85-9.61,7.85h0Z"/>
      <path class="cls-2" d="M92.33,62.45v15.68H27.63v-35.26h35.75c1.08,0,1.95-.88,1.95-1.95s-.88-1.95-1.95-1.95H25.68c-1.08,0-1.95.88-1.95,1.95v39.16c0,1.08.88,1.95,1.95,1.95h68.6c1.08,0,1.95-.87,1.95-1.95v-17.63c0-1.08-.87-1.95-1.95-1.95s-1.95.87-1.95,1.95Z"/>
      <path class="cls-2" d="M90.7,41.4h-.04c-.45-.01-.88-.21-1.17-.56l-7.81-9.37c-.55-.67-.46-1.65.2-2.2.67-.55,1.65-.46,2.21.2l6.67,7.99,15.98-17.41c.59-.64,1.57-.68,2.21-.1.63.58.68,1.57.09,2.21l-17.18,18.73c-.3.32-.71.51-1.15.51h0Z"/>
      <path class="cls-2" d="M90.68,53.89c-10.34,0-18.75-8.4-18.75-18.73s8.41-18.73,18.75-18.73c3.32,0,6.59.88,9.44,2.55.74.43.99,1.39.56,2.13-.44.75-1.4.99-2.14.56-2.38-1.39-5.1-2.12-7.87-2.12-8.62,0-15.62,7-15.62,15.61s7.01,15.61,15.62,15.61,15.62-7,15.62-15.61c0-1.13-.13-2.26-.36-3.35-.19-.84.34-1.68,1.19-1.86.86-.18,1.68.35,1.86,1.19.29,1.32.43,2.67.43,4.02,0,10.33-8.41,18.73-18.75,18.73Z"/>
    </g>
  </g>
</svg>