<?xml version="1.0" encoding="UTF-8"?>
<svg id="Capa_4" data-name="Capa 4" xmlns="http://www.w3.org/2000/svg" viewBox="0 0 120 120">
  <defs>
    <style>
      .cls-1 {
        fill: #a7a7a6;
        fill-rule: evenodd;
      }
    </style>
  </defs>
  <path class="cls-1" d="M12.45,104.85c-1.5-1.24-2.45-3.11-2.45-5.2v-45.19c0-2.09.96-3.97,2.48-5.22,0,0,.02-.02.03-.03.03-.03.06-.05.09-.08h0c1.16-.91,2.63-1.46,4.21-1.46h45.11c-1.17-2.86-1.82-5.98-1.83-9.25,0-.03,0-.06,0-.09,0-13.69,11.17-24.78,24.95-24.78s24.95,11.1,24.95,24.78c0,6.82-2.78,13-7.27,17.48-.01.01-.02.03-.04.04-1.06,1.05-2.22,2.01-3.46,2.87v40.92c0,1.82-.73,3.48-1.92,4.7h0c-1.24,1.27-2.98,2.07-4.9,2.07H16.82c-.73,0-1.43-.11-2.08-.32-.81-.26-1.56-.67-2.21-1.19-.03-.02-.05-.04-.07-.06ZM13.51,52.27c-.42.63-.67,1.38-.67,2.19v45.19c0,.82.25,1.58.68,2.21l28.54-24.83-28.55-24.76ZM63.3,50.5H16.82c-.32,0-.62.04-.92.11l38.83,33.66,25.29-21.65c-2.66-.54-5.16-1.5-7.44-2.81-1.89-1.09-3.63-2.42-5.17-3.94-.02-.02-.04-.04-.05-.06-1.58-1.58-2.94-3.36-4.05-5.31ZM102.04,52.41c3.2-3.81,5.12-8.71,5.12-14.06,0-12.13-9.9-21.97-22.12-21.97s-22.12,9.84-22.12,21.97h0c0,5.35,1.92,10.25,5.12,14.06,3.35-5.89,9.7-9.86,16.99-9.86s13.65,3.97,16.99,9.86ZM96.04,101.3c.23-.5.36-1.06.36-1.64v-39.23c-3.4,1.73-7.26,2.71-11.35,2.71,0,0,0,0,0,0-.42,0-.84-.01-1.25-.03l-16.11,13.8,28.36,24.4ZM15.92,103.51c.29.07.59.1.9.1h75.6c.57,0,1.11-.12,1.6-.34l-28.5-24.52-9.87,8.45c-.53.46-1.33.46-1.86,0l-9.58-8.3-28.29,24.62ZM74.32,57.56c3.18,1.76,6.84,2.76,10.73,2.76,5.76,0,11-2.18,14.93-5.76-2.73-5.45-8.39-9.19-14.93-9.19s-12.2,3.74-14.93,9.19c1.27,1.16,2.68,2.17,4.2,3.01ZM75.27,30.87c0-5.36,4.38-9.71,9.77-9.71s9.78,4.35,9.78,9.71-4.37,9.71-9.78,9.71-9.77-4.35-9.77-9.71ZM78.11,30.87c0,3.81,3.11,6.89,6.94,6.89s6.94-3.09,6.94-6.89-3.11-6.9-6.94-6.9-6.94,3.09-6.94,6.9Z"/>
</svg>