<?xml version="1.0" encoding="UTF-8"?>
<svg id="Capa_4" data-name="Capa 4" xmlns="http://www.w3.org/2000/svg" xmlns:xlink="http://www.w3.org/1999/xlink" viewBox="0 0 120 120">
  <defs>
    <style>
      .cls-1 {
        fill: none;
      }

      .cls-2 {
        fill-rule: evenodd;
      }

      .cls-2, .cls-3 {
        fill: #e00521;
      }

      .cls-4 {
        clip-path: url(#clippath);
      }
    </style>
    <clipPath id="clippath">
      <rect class="cls-1" x="10" y="19.29" width="100" height="81.43"/>
    </clipPath>
  </defs>
  <g class="cls-4">
    <g>
      <path class="cls-3" d="M16.44,52.66v32.92h-1.92c-1.05,0-1.9.84-1.9,1.89,0,7.3,5.99,13.24,13.35,13.24h70.62c7.21,0,13.1-5.7,13.35-12.79.3-1.19-.62-2.34-1.85-2.34h-1.96v-49.22c0-4.17-3.42-7.57-7.63-7.57h-54.98l-2.03,3.77h57.01c2.11,0,3.82,1.7,3.82,3.79v49.22h-30.55c-.5,0-.99.2-1.34.55l-3.26,3.23h-13.69l-3.26-3.23c-.36-.35-.84-.55-1.34-.55h-28.64v-32.92h-3.8ZM96.6,96.94H25.97c-4.61,0-8.48-3.26-9.36-7.58h31.48l3.26,3.23c.36.35.84.55,1.34.55h15.27c.5,0,.99-.2,1.34-.55l3.26-3.23h33.39c-.88,4.32-4.75,7.58-9.36,7.58h0Z"/>
      <path class="cls-3" d="M25.98,56.01v21.99c0,1.04.85,1.89,1.9,1.89h66.81c1.05,0,1.9-.84,1.9-1.89v-37.86c0-1.04-.85-1.89-1.9-1.89h-47.02l-.25,3.77h45.37v34.09H29.78v-19.77l-3.8-.34h0Z"/>
      <path class="cls-2" d="M75.55,72.8h-28.78c-.57,0-1.02-.45-1.02-1.01v-4.18c0-.57.64-1.2,1.21-1.2s1.21.64,1.21,1.2v2.83h26.29v-2.83c0-.57.64-1.2,1.21-1.2s1.21.64,1.21,1.2v4.18c-.12.57-.76,1.01-1.34,1.01h0Z"/>
      <path class="cls-2" d="M61.25,68.86c-.33,0-.7-.16-.86-.49l-6.23-10.56c-.16-.28-.16-.69,0-1.01.16-.28.49-.53.86-.53h2.09v-9.55c0-.57.45-1.01,1.02-1.01h6.23c.57,0,1.02.45,1.02,1.01v9.63h2.17c.33,0,.66.16.86.49.16.28.16.69,0,1.01l-6.31,10.52c-.16.32-.45.49-.86.49h0ZM56.78,58.3l4.51,7.64,4.55-7.64h-1.47c-.57,0-1.02-.45-1.02-.98v-9.67h-4.26v9.63c0,.57-.45.98-1.02.98h-1.27v.04h0Z"/>
      <path class="cls-2" d="M32.79,58.65h-6.08c-.8,0-1.41-.55-1.47-1.28l-.74-5.18c-.12,0-.18-.06-.37-.06l-4.18,3.11c-.61.43-1.41.43-1.97-.18l-4.42-4.26c-.49-.55-.61-1.34-.18-1.95l3.26-4.2c-.06-.12-.06-.18-.18-.37l-5.16-.73c-.8-.12-1.29-.79-1.29-1.46v-6.15c0-.73.49-1.34,1.29-1.46l5.16-.73c.12-.06.12-.18.18-.37l-3.13-4.2c-.43-.61-.43-1.4.18-1.95l4.42-4.26c.49-.55,1.35-.61,1.9-.18l4.18,3.11c.12-.06.18-.06.37-.06l.74-5.24c.12-.79.8-1.28,1.47-1.28h6.14c.74,0,1.35.49,1.41,1.28l.8,5.24c.06,0,.12.06.31.06l4.18-3.11c.61-.43,1.47-.43,1.97.18l4.36,4.26c.49.55.55,1.34.12,1.95l-3.13,4.2c.12.12.12.31.18.37l5.16.73c.8.12,1.29.79,1.29,1.46v6.15c0,.79-.49,1.34-1.29,1.46l-5.16.73c-.12.12-.12.18-.18.37l3.13,4.2c.43.61.37,1.4-.12,1.95l-4.36,4.26c-.49.55-1.35.61-1.97.18l-4.18-3.11c-.06.06-.18.06-.31.06l-.8,5.18c-.18.73-.74,1.28-1.54,1.28h0ZM27.94,55.66h3.56l.8-4.81c.06-.61.49-.98,1.04-1.16.49-.18,1.11-.37,1.6-.67.49-.24,1.11-.18,1.54.12l3.81,2.93,2.58-2.56-2.89-3.9c-.37-.49-.43-1.1-.12-1.58.18-.37.43-.85.61-1.28l.18-.31c.12-.55.68-.85,1.17-.98l4.79-.67v-3.53l-4.79-.67c-.49-.06-1.04-.43-1.17-.91-.18-.49-.43-1.1-.68-1.58-.31-.55-.31-1.1.06-1.64l2.89-3.9-2.52-2.5-3.87,2.86c-.43.37-.98.43-1.54.18-.49-.24-1.11-.55-1.6-.67-.49-.18-.92-.61-1.04-1.22l-.74-4.81h-3.69l-.74,4.81c-.12.61-.49,1.04-1.04,1.22-.49.12-1.1.31-1.6.67-.49.24-1.11.18-1.54-.18l-3.93-2.86-2.52,2.5,2.95,3.9c.37.55.43,1.1.12,1.64-.31.49-.55,1.1-.74,1.58-.12.49-.68.85-1.17.91l-4.79.67v3.53l4.79.67c.49.12.92.43,1.17.98l.18.31c.18.55.37.91.61,1.34.25.55.25,1.22-.06,1.64l-3.01,3.84,2.58,2.56,3.87-2.86c.43-.37,1.04-.43,1.54-.18.55.24,1.1.49,1.66.67.49.18.92.61.98,1.22l.68,4.69h0Z"/>
      <path class="cls-2" d="M29.72,46.95c-4.42,0-7.99-3.53-7.99-7.98s3.56-7.92,7.99-7.92,8.05,3.53,8.05,7.92-3.63,7.98-8.05,7.98ZM29.72,34.09c-2.7,0-4.98,2.19-4.98,4.94s2.21,5.06,4.98,5.06,5.04-2.25,5.04-5.06-2.27-4.94-5.04-4.94Z"/>
    </g>
  </g>
</svg>