<svg width="135" height="135" viewBox="0 0 135 135" fill="none" xmlns="http://www.w3.org/2000/svg">
<mask id="mask0_261_4584" style="mask-type:luminance" maskUnits="userSpaceOnUse" x="0" y="0" width="135" height="135">
<path d="M135 135L0.000140786 135L0.000152588 -1.18021e-05L135 0L135 135Z" fill="white"/>
</mask>
<g mask="url(#mask0_261_4584)">
<path d="M119.344 11.4395C114.877 6.97298 107.635 6.97289 103.168 11.4395C98.7015 15.9061 98.7015 23.1486 103.168 27.6152C106.769 31.2166 112.174 31.912 116.475 29.7061C124.555 40.1601 129.363 53.2645 129.363 67.501C129.363 101.667 101.666 129.364 67.5 129.364C63.2786 129.364 59.1587 128.942 55.1797 128.138C53.5558 127.81 51.9726 128.86 51.6445 130.484C51.3167 132.108 52.3676 133.69 53.9912 134.019C58.3591 134.901 62.8772 135.364 67.5 135.364C104.98 135.364 135.363 104.981 135.363 67.501C135.363 51.7111 129.966 37.1755 120.92 25.6455C123.725 21.2233 123.201 15.2969 119.344 11.4395ZM67.501 -0.361334C30.0212 -0.361337 -0.362307 30.0221 -0.362311 67.5019C-0.362297 83.292 5.03583 97.8274 14.082 109.357C11.2759 113.78 11.7994 119.707 15.6572 123.564C20.1239 128.031 27.3664 128.031 31.833 123.564C36.2995 119.098 36.2994 111.855 31.833 107.389C28.232 103.788 22.8276 103.092 18.5273 105.297C10.4468 94.8427 5.6377 81.7387 5.63769 67.5019C5.63769 33.3358 33.3349 5.63866 67.501 5.63867C71.6807 5.63871 75.7606 6.05327 79.7031 6.84179C81.3277 7.16663 82.9084 6.11281 83.2334 4.48828C83.5583 2.86381 82.5052 1.28324 80.8809 0.958003C76.553 0.0923812 72.0783 -0.361291 67.501 -0.361334ZM19.9004 111.632C22.0239 109.508 25.4664 109.508 27.5898 111.632C29.7131 113.755 29.7131 117.198 27.5898 119.321C25.4664 121.445 22.0239 121.445 19.9004 119.321C17.7769 117.198 17.7769 113.755 19.9004 111.632ZM59.2559 19.1504C57.5992 19.1506 56.2559 20.4937 56.2559 22.1504L56.2559 26.9873C52.9139 27.9121 49.7391 29.2381 46.7871 30.9111L43.3721 27.4971C42.8094 26.9344 42.0458 26.618 41.25 26.6182C40.4542 26.6184 39.6904 26.9351 39.1279 27.498L27.4746 39.1601C26.304 40.3318 26.3045 42.2311 27.4756 43.4023L30.8867 46.8125C29.2135 49.7649 27.8869 52.9397 26.9619 56.2822L22.1435 56.2822C20.4868 56.2824 19.1435 57.6255 19.1435 59.2822L19.1435 75.7685C19.1436 77.4253 20.4868 78.7684 22.1435 78.7685L26.9619 78.7685C27.8868 82.1108 29.2137 85.2851 30.8867 88.2373L27.4951 91.6299C26.9325 92.1926 26.6161 92.9562 26.6162 93.7519C26.6165 94.5475 26.9333 95.3106 27.4961 95.873L39.1582 107.526C40.3298 108.697 42.2282 108.696 43.3994 107.525L46.7871 104.138C49.7391 105.811 52.9136 107.137 56.2558 108.062L56.2558 112.854C56.2559 114.51 57.5993 115.853 59.2558 115.854L75.7432 115.854C77.3999 115.853 78.7431 114.51 78.7432 112.854L78.7432 108.062C82.0856 107.137 85.2607 105.811 88.2129 104.138L91.5996 107.525C92.7708 108.697 94.6691 108.697 95.8408 107.526L107.503 95.873C108.066 95.3106 108.383 94.5476 108.383 93.752C108.383 92.9562 108.067 92.1926 107.504 91.6299L104.113 88.2373C105.786 85.2853 107.112 82.1107 108.037 78.7686L112.847 78.7686C114.503 78.7685 115.846 77.4266 115.847 75.7705L115.855 59.2842C115.856 58.4882 115.54 57.7241 114.978 57.1611C114.415 56.5983 113.651 56.2822 112.855 56.2822L108.037 56.2822C107.112 52.9398 105.786 49.7648 104.113 46.8125L107.523 43.4023C108.695 42.2311 108.695 40.3319 107.524 39.1602L95.8711 27.498C95.3086 26.9352 94.5448 26.6183 93.749 26.6182C92.9533 26.6181 92.1896 26.9344 91.627 27.4971L88.2129 30.9111C85.2606 29.2379 82.0854 27.9122 78.7432 26.9873L78.7432 22.1504C78.7432 20.4936 77.3999 19.1505 75.7432 19.1504L59.2559 19.1504ZM72.7432 29.3359C72.7432 30.7497 73.7302 31.9723 75.1123 32.2695C79.4261 33.1964 83.4545 34.8935 87.0449 37.2139C88.2324 37.9813 89.7951 37.8151 90.7949 36.8154L93.748 33.8623L101.16 41.2793L98.21 44.2305C97.2103 45.2303 97.0442 46.793 97.8115 47.9805C100.132 51.5708 101.829 55.5985 102.756 59.9121C103.053 61.2944 104.275 62.282 105.688 62.2822L109.854 62.2822L109.849 72.7686L105.688 72.7686C104.275 72.7687 103.052 73.7563 102.755 75.1387C101.828 79.4524 100.131 83.4802 97.8105 87.0703C97.0433 88.2578 97.2094 89.8205 98.209 90.8203L101.14 93.75L93.7217 101.162L90.7939 98.2353L90.5996 98.0576C89.5998 97.2186 88.1572 97.1175 87.0439 97.8369C83.4539 100.157 79.4267 101.855 75.1133 102.781C73.731 103.078 72.7432 104.3 72.7432 105.714L72.7432 109.854L62.2558 109.854L62.2559 105.714C62.2558 104.3 61.2682 103.078 59.8857 102.781C55.5724 101.855 51.5451 100.157 47.9551 97.8369L47.7275 97.7041C46.5738 97.0938 45.1423 97.2981 44.2051 98.2353L41.2783 101.162L33.8603 93.75L36.79 90.8203C37.7898 89.8205 37.9558 88.2578 37.1885 87.0703C34.8683 83.4802 33.1701 79.4525 32.2432 75.1387L32.1777 74.8838C31.7935 73.6364 30.6361 72.7685 29.3105 72.7685L25.1435 72.7685L25.1435 62.2822L29.3105 62.2822C30.7244 62.2821 31.9461 61.2944 32.2432 59.9121C33.17 55.5985 34.8674 51.5708 37.1875 47.9805C37.9549 46.7929 37.7889 45.2303 36.7891 44.2305L33.8389 41.2793L41.251 33.8613L44.2041 36.8154C45.2039 37.8152 46.7665 37.9812 47.9541 37.2139C51.5444 34.8935 55.573 33.1964 59.8867 32.2695C61.2689 31.9723 62.2558 30.7498 62.2559 29.3359L62.2559 25.1504L72.7432 25.1504L72.7432 29.3359ZM67.499 45.3516C55.2661 45.352 45.3486 55.2687 45.3486 67.5019C45.3487 79.735 55.2662 89.6519 67.499 89.6523C79.7322 89.6523 89.6503 79.7352 89.6504 67.5019C89.6504 55.2684 79.7322 45.3516 67.499 45.3516ZM67.499 51.3516C76.4186 51.3516 83.6504 58.5822 83.6504 67.5019C83.6503 76.4214 76.4186 83.6523 67.499 83.6523C58.5798 83.6519 51.3487 76.4212 51.3486 67.5019C51.3486 58.5824 58.5798 51.352 67.499 51.3516ZM107.411 15.6826C109.535 13.5592 112.977 13.5593 115.101 15.6826C117.224 17.8061 117.224 21.2485 115.101 23.3721C112.977 25.4955 109.535 25.4956 107.411 23.3721C105.288 21.2486 105.288 17.8061 107.411 15.6826Z" fill="url(#paint0_linear_261_4584)"/>
</g>
<defs>
<linearGradient id="paint0_linear_261_4584" x1="67.5005" y1="135.364" x2="67.5005" y2="-0.361334" gradientUnits="userSpaceOnUse">
<stop stop-color="#1A1A1A"/>
<stop offset="1" stop-color="#585858"/>
</linearGradient>
</defs>
</svg>
