<svg width="154" height="154" viewBox="0 0 154 154" fill="none" xmlns="http://www.w3.org/2000/svg">
<path d="M74.7852 9.40625C76.2237 8.93595 77.7753 8.93604 79.2139 9.40625L105.445 17.9824C108.375 18.9403 110.357 21.6735 110.357 24.7559V29.9814C110.357 31.3004 110.317 32.6152 110.237 33.9238H130.657L130.915 33.9307C133.563 34.0651 135.669 36.2552 135.669 38.9365V110.075L152.576 130.286H152.574C152.596 130.313 152.617 130.339 152.637 130.364C152.975 130.777 153.231 131.232 153.409 131.71C153.411 131.715 153.412 131.721 153.414 131.726C153.635 132.3 153.744 132.903 153.744 133.505V139.937C153.743 142.703 151.499 144.948 148.731 144.948H26.8115C25.7072 144.948 24.8119 144.052 24.8115 142.948C24.8116 141.844 25.707 140.948 26.8115 140.948H59.6582V134.411H4.25586V139.937C4.25653 140.494 4.71068 140.948 5.26855 140.948H16.9873C18.0918 140.948 18.9872 141.844 18.9873 142.948C18.9869 144.052 18.0916 144.948 16.9873 144.948H5.26855C2.50181 144.948 0.256523 142.704 0.255859 139.937V133.505C0.255859 132.904 0.363418 132.301 0.583984 131.728C0.586002 131.722 0.587785 131.716 0.589844 131.71C0.768157 131.233 1.02564 130.778 1.36328 130.365C1.38257 130.34 1.40271 130.313 1.4248 130.286H1.42383L18.3301 110.075V38.9365C18.3303 36.1686 20.5749 33.924 23.3428 33.9238H43.7627C43.6835 32.6152 43.6416 31.3004 43.6416 29.9814V24.7559C43.6418 21.6736 45.6243 18.9404 48.5537 17.9824L74.7852 9.40625ZM94.3428 140.948H148.731C149.289 140.948 149.743 140.494 149.744 139.937V134.411H94.3428V140.948ZM63.6582 140.947H90.3428V134.411H63.6582V140.947ZM6.53418 130.411H26.9111L36.5498 112.802H21.2646L6.53418 130.411ZM31.4717 130.411H61.6396C61.6457 130.411 61.6522 130.41 61.6582 130.41H92.3428L92.3613 130.411H122.529L112.891 112.802H41.1094L31.4717 130.411ZM127.089 130.411H147.466L132.735 112.802H117.451L127.089 130.411ZM22.3301 108.802H131.669V99.8115H22.3301V108.802ZM23.3428 37.9238C22.784 37.924 22.3303 38.3778 22.3301 38.9365V95.8115H37.9229V63.2168C37.9229 60.4511 40.165 58.2091 42.9307 58.209H50.0732C47.0172 51.8484 44.9965 45 44.1279 37.9238H23.3428ZM77.9707 13.208C77.3399 13.0019 76.6591 13.0018 76.0283 13.208L49.7969 21.7842C48.5118 22.2045 47.6418 23.404 47.6416 24.7559V29.9814C47.6417 47.1696 54.8725 63.5664 67.5645 75.1572L76.3193 83.1523H76.3203C76.7051 83.5036 77.2939 83.5036 77.6787 83.1523L85.5508 75.9639C86.3663 75.2191 87.632 75.2765 88.377 76.0918C89.1213 76.9074 89.0635 78.1723 88.248 78.917L80.376 86.1055C78.4635 87.852 75.5345 87.853 73.6221 86.1064L64.8672 78.1104C59.775 73.4599 55.5082 68.0831 52.167 62.209H42.9307C42.3741 62.2091 41.9229 62.6602 41.9229 63.2168V95.8115H112.077V63.2168C112.077 62.6603 111.626 62.2092 111.069 62.209H101.829C99.9249 65.5559 97.7209 68.742 95.2344 71.7236C94.527 72.5716 93.2652 72.6857 92.417 71.9785C91.5691 71.2711 91.455 70.0093 92.1621 69.1611C101.277 58.2312 106.357 44.3854 106.357 29.9814V24.7559C106.357 23.404 105.488 22.2045 104.203 21.7842L77.9707 13.208ZM109.872 37.9238C109.003 45.0002 106.981 51.8486 103.925 58.209H111.069C113.835 58.2092 116.077 60.4511 116.077 63.2168V95.8115H131.669V38.9365C131.669 38.4124 131.27 37.9803 130.76 37.9287L130.657 37.9238H109.872ZM53.334 86.7461C54.4385 86.7462 55.334 87.6416 55.334 88.7461C55.3338 89.8504 54.4383 90.746 53.334 90.7461H50.1504C49.046 90.7461 48.1506 89.8505 48.1504 88.7461C48.1504 87.6415 49.0458 86.7461 50.1504 86.7461H53.334ZM75.3496 18.7158C76.4214 18.3656 77.5776 18.3655 78.6494 18.7158L97.6738 24.9365C99.857 25.6503 101.333 27.6863 101.333 29.9824C101.333 45.759 94.6966 60.8093 83.0469 71.4482L80.5791 73.7012C78.6149 75.4941 75.6396 75.5502 73.6123 73.8691L73.4189 73.7012L70.9521 71.4482C59.3024 60.8093 52.6653 45.759 52.665 29.9824C52.6651 27.6863 54.142 25.6504 56.3242 24.9365L75.3496 18.7158ZM77.4062 22.5176C77.1424 22.4314 76.8573 22.4313 76.5928 22.5176L57.5674 28.7383C57.0297 28.9145 56.6651 29.4164 56.665 29.9824C56.6653 44.6351 62.8296 58.613 73.6494 68.4941L76.1152 70.7471C76.6151 71.2032 77.3819 71.203 77.8818 70.7471L80.3486 68.4941C91.1686 58.613 97.3328 44.6352 97.333 29.9824C97.3329 29.4162 96.9694 28.9144 96.4316 28.7383H96.4307L77.4062 22.5176ZM33.0479 43.1641C34.1519 43.1643 35.0474 44.06 35.0479 45.1641V46.6416H36.5244L36.7285 46.6523C37.7367 46.7549 38.5242 47.6063 38.5244 48.6416C38.5243 49.6769 37.7368 50.5283 36.7285 50.6309L36.5244 50.6416H35.0479V52.1172C35.0479 53.2216 34.1522 54.1169 33.0479 54.1172C31.9434 54.1171 31.0479 53.2217 31.0479 52.1172V50.6416H29.5713C28.4668 50.6416 27.5715 49.746 27.5713 48.6416C27.5715 47.5372 28.4668 46.6416 29.5713 46.6416H31.0479V45.1641C31.0483 44.0599 31.9436 43.1642 33.0479 43.1641Z" fill="url(#paint0_linear_261_4606)"/>
<defs>
<linearGradient id="paint0_linear_261_4606" x1="77" y1="144.948" x2="77" y2="9.05371" gradientUnits="userSpaceOnUse">
<stop stop-color="#1A1A1A"/>
<stop offset="1" stop-color="#585858"/>
</linearGradient>
</defs>
</svg>
