<svg width="76" height="140" viewBox="0 0 76 140" fill="none" xmlns="http://www.w3.org/2000/svg">
<path d="M54.9873 30.3945C57.8908 30.3946 60.0361 32.8611 60.0361 35.6387L60.0371 58.415H60.4053C62.7399 58.4151 64.4247 60.3906 64.4248 62.5635V63.6289C64.4247 65.7161 63.6883 67.6653 62.4531 69.168C64.8249 71.3545 66.9344 73.8489 68.7256 76.5918C69.3292 77.5165 69.069 78.7554 68.1445 79.3594C67.2198 79.9629 65.9799 79.7037 65.376 78.7793C63.6153 76.0832 61.5175 73.6605 59.1514 71.5781C58.2813 71.9152 57.3358 72.1025 56.3389 72.1025H50.5928C53.2121 78.7648 54.847 87.5853 55.0459 97.2549H71.3359C71.1458 93.565 70.4355 90.0271 69.2803 86.7227C68.9159 85.68 69.4662 84.5393 70.5088 84.1748C71.5514 83.8104 72.6921 84.3598 73.0566 85.4023C74.5663 89.7206 75.3896 94.3887 75.3896 99.2549C75.3896 121.147 58.6764 139.109 37.8037 139.109L37.8027 139.108V139.109L37.8008 139.108C24.9485 139.107 13.6447 132.272 6.88477 121.924C6.28117 120.999 6.54134 119.76 7.46582 119.156C8.39052 118.552 9.63026 118.812 10.2344 119.736C14.703 126.577 21.3262 131.653 29.0283 133.873C27.5548 131.921 26.259 129.507 25.1553 126.77C22.4569 120.078 20.7624 111.114 20.5596 101.255H4.27148C4.45714 104.862 5.13954 108.323 6.24902 111.563C6.60662 112.608 6.04953 113.746 5.00488 114.104C3.96001 114.461 2.82277 113.904 2.46484 112.859C1.01004 108.611 0.217809 104.029 0.217773 99.2559C0.217798 87.267 5.21668 76.4898 13.1553 69.1709C11.919 67.668 11.1827 65.7171 11.1826 63.6289V62.5635C11.1827 60.3904 12.868 58.4153 15.2021 58.415H15.5703V35.6387C15.5703 32.8607 17.7172 30.3948 20.6201 30.3945H54.9873ZM24.5605 101.255C24.7632 110.709 26.3928 119.144 28.8643 125.273C30.1887 128.558 31.7164 131.083 33.3096 132.754C34.8975 134.419 36.4157 135.108 37.8018 135.108H37.8027C39.1891 135.108 40.7084 134.42 42.2969 132.754C43.8899 131.083 45.4168 128.558 46.7412 125.273C49.2128 119.144 50.8431 110.709 51.0459 101.255H24.5605ZM55.0479 101.255C54.8451 111.114 53.1495 120.078 50.4512 126.77C49.3488 129.503 48.0543 131.915 46.583 133.865C60.2391 129.92 70.5289 116.999 71.3369 101.255H55.0479ZM16.4561 71.5791C9.44674 77.7483 4.80357 86.9043 4.27051 97.2549H20.5615C20.7605 87.5852 22.3944 78.7646 25.0137 72.1025H19.2686C18.2717 72.1025 17.326 71.9161 16.4561 71.5791ZM29.3477 72.1025C26.614 78.291 24.7775 87.1852 24.5615 97.2549H51.0459C50.8299 87.1855 48.9934 78.2912 46.2598 72.1025H29.3477ZM15.2305 62.415C15.2113 62.4361 15.1827 62.4843 15.1826 62.5635V63.6289C15.1829 66.2174 17.1269 68.1025 19.2686 68.1025H56.3389C58.4805 68.1025 60.4246 66.2174 60.4248 63.6289V62.5635C60.4247 62.4841 60.3961 62.436 60.377 62.415H15.2305ZM20.6201 34.3945C20.1552 34.3948 19.5703 34.8338 19.5703 35.6387V58.4141H56.0361V35.6387C56.0361 34.8337 55.4523 34.3947 54.9873 34.3945H20.6201ZM37.8037 42.71C38.9083 42.71 39.8037 43.6054 39.8037 44.71V51.291C39.8034 52.3953 38.9081 53.291 37.8037 53.291C36.6994 53.291 35.8041 52.3953 35.8037 51.291V44.71C35.8037 43.6054 36.6991 42.71 37.8037 42.71ZM46.1172 39.5176C47.2216 39.5177 48.1172 40.4131 48.1172 41.5176V51.291C48.1169 52.3952 47.2214 53.2909 46.1172 53.291C45.0128 53.291 44.1175 52.3953 44.1172 51.291V41.5176C44.1172 40.413 45.0126 39.5176 46.1172 39.5176ZM29.4902 46.8525C30.5948 46.8525 31.4902 47.748 31.4902 48.8525V51.29C31.4902 52.3946 30.5948 53.29 29.4902 53.29C28.3858 53.2899 27.4903 52.3945 27.4902 51.29V48.8525C27.4902 47.7481 28.3858 46.8527 29.4902 46.8525ZM37.8037 17.8564C39.786 17.8565 41.5584 18.7155 42.8164 20.0537C43.5726 20.8585 43.5341 22.1244 42.7295 22.8809C41.9248 23.6373 40.6589 23.5975 39.9023 22.793C39.3408 22.1956 38.5983 21.8565 37.8037 21.8564C37.0088 21.8564 36.2665 22.1957 35.7051 22.793C34.9487 23.5976 33.6828 23.6371 32.8779 22.8809C32.0731 22.1244 32.0346 20.8586 32.791 20.0537C34.0494 18.7149 35.8216 17.8564 37.8037 17.8564ZM37.8037 9.87402C41.8582 9.87408 45.5068 11.6262 48.123 14.4092C48.8793 15.2139 48.8407 16.4798 48.0361 17.2363C47.2314 17.9928 45.9656 17.953 45.209 17.1484C43.2894 15.1066 40.6708 13.8741 37.8037 13.874C34.937 13.8741 32.3186 15.1067 30.3994 17.1484C29.6429 17.9531 28.3771 17.9927 27.5723 17.2363C26.7675 16.4798 26.7289 15.214 27.4854 14.4092C30.1014 11.6262 33.7496 9.8741 37.8037 9.87402ZM37.8047 0.783203C44.2187 0.78343 50.0034 3.55271 54.166 7.98047C54.9223 8.78518 54.8836 10.0511 54.0791 10.8076C53.2744 11.5641 52.0086 11.5252 51.252 10.7207C47.7859 7.03381 43.0314 4.78343 37.8047 4.7832C32.5778 4.7832 27.8226 7.03373 24.3564 10.7207C23.5999 11.5252 22.334 11.5639 21.5293 10.8076C20.7247 10.051 20.6859 8.78519 21.4424 7.98047C25.6052 3.55255 31.3904 0.783203 37.8047 0.783203Z" fill="url(#paint0_linear_261_4644)"/>
<defs>
<linearGradient id="paint0_linear_261_4644" x1="37.8037" y1="139.109" x2="37.8037" y2="0.783203" gradientUnits="userSpaceOnUse">
<stop stop-color="#1A1A1A"/>
<stop offset="1" stop-color="#585858"/>
</linearGradient>
</defs>
</svg>
