<svg width="136" height="82" viewBox="0 0 136 82" fill="none" xmlns="http://www.w3.org/2000/svg">
<g clip-path="url(#clip0_261_1806)">
<path d="M16.619 64.5419C10.3308 63.3629 4.91219 68.7107 6.10677 74.9168C6.77573 78.3877 9.60449 81.1795 13.1213 81.8398C19.4096 83.0187 24.8282 77.6709 23.6336 71.4648C22.9646 67.9939 20.1359 65.2021 16.619 64.5419ZM18.4348 73.8888C18.1672 75.2941 17.0013 76.4353 15.5869 76.6994C13.0257 77.1805 10.8277 75.0017 11.3151 72.4834C11.5827 71.0781 12.7486 69.9368 14.1725 69.6727C16.7337 69.1917 18.9317 71.3705 18.4443 73.8888H18.4348Z" fill="#272727"/>
<path d="M40.8925 64.5419C34.6042 63.3629 29.1856 68.7107 30.3802 74.9168C31.0492 78.3877 33.8779 81.1795 37.3948 81.8398C43.683 83.0187 49.1016 77.6709 47.907 71.4648C47.2381 67.9939 44.4093 65.2021 40.8925 64.5419ZM42.7082 73.8888C42.4406 75.2941 41.2747 76.4353 39.8604 76.6994C37.2992 77.1805 35.1012 75.0017 35.5886 72.4834C35.8561 71.0781 37.022 69.9368 38.4364 69.6727C40.9976 69.1917 43.1956 71.3705 42.7082 73.8888Z" fill="#272727"/>
<path d="M115.75 59.3072C107.827 58.0244 101.071 64.6927 102.371 72.5117C103.154 77.2464 107.025 81.0663 111.832 81.8491C119.754 83.1319 126.511 76.4636 125.211 68.6446C124.427 63.9099 120.557 60.09 115.75 59.3072ZM118.435 71.3044C118.129 73.2568 116.514 74.8602 114.527 75.162C111.344 75.643 108.649 72.9738 109.137 69.833C109.442 67.8807 111.057 66.2773 113.045 65.9754C116.228 65.4944 118.923 68.1636 118.435 71.3044Z" fill="#272727"/>
<path d="M135.961 61.816C135.541 60.5332 134.375 60.9954 133.744 59.6089C132.034 55.8834 132.015 47.9795 128.087 46.0083C125.898 44.9142 120.117 43.9144 117.46 43.3202C114.249 42.6034 110.417 42.1884 107.339 41.3112C106.269 41 105.81 40.302 105.208 39.4626C102.571 35.7937 92.326 20.6368 89.717 17.8544C88.121 16.1472 85.8753 15.4021 83.7441 14.6287V10.3938C83.6963 8.92248 83.2185 8.10191 82.7502 7.54543L72.4387 0L73.2414 6.38532C73.2414 6.38532 76.6436 8.50748 78.5453 10.0166C79.0232 10.4033 79.3099 10.9692 79.3099 11.5822V14.0534C75.2292 12.6669 73.2797 12.0538 70.2789 11.4219C63.9046 10.0732 57.2532 10.4599 50.8408 10.6202V57.3264H5.6667C3.38267 57.3264 0.85017 59.4014 0.315 61.5613C-0.0481505 63.0515 -0.000367493 69.6066 -0.000367493 69.6066C-0.000367493 70.0782 -0.000367485 70.8611 0.811944 71.3798H3.36356C4.31922 63.3816 13.312 58.911 20.4699 62.9195C23.442 64.5889 25.7642 68.0126 26.0605 71.3798H27.7616C28.3636 67.211 31.374 63.3251 35.4833 62.0046C42.5934 59.7127 49.4837 64.2682 50.6305 71.3892H98.165C98.5091 59.26 111.745 51.8277 122.334 58.5809C126.701 61.3727 129.243 66.2678 129.463 71.3798H134.49C135.684 71.1534 135.981 70.8894 135.99 69.8424C136.009 67.3807 135.942 61.9197 135.952 61.816H135.961ZM71.3014 29.6536C72.1424 29.6536 72.8305 30.3326 72.8305 31.1626V46.8383C72.8305 47.6683 72.1424 48.3474 71.3014 48.3474H61.3148C60.4738 48.3474 59.7857 47.6683 59.7857 46.8383V31.1626C59.7857 30.3326 60.4738 29.6536 61.3148 29.6536H71.3014ZM53.3924 14.0817C53.3924 13.8553 53.5835 13.6667 53.8129 13.6667H60.1202C60.3496 13.6667 60.5407 13.8553 60.5407 14.0817V14.3363C60.5407 14.5627 60.3496 14.7513 60.1202 14.7513H53.8129C53.5835 14.7513 53.3924 14.5627 53.3924 14.3363V14.0817ZM53.9371 15.9586H65.0801C65.3859 15.9586 65.6344 16.2038 65.6344 16.5056C65.6344 16.8075 65.3859 17.0527 65.0801 17.0527H53.9371C53.6313 17.0527 53.3828 16.8075 53.3828 16.5056C53.3828 16.2038 53.6313 15.9586 53.9371 15.9586ZM94.0939 68.9747H52.991C52.6852 68.9747 52.4367 68.7295 52.4367 68.4277C52.4367 68.1258 52.6852 67.8806 52.991 67.8806H94.0939C94.3997 67.8806 94.6482 68.1258 94.6482 68.4277C94.6482 68.7295 94.3997 68.9747 94.0939 68.9747ZM97.2667 41.5848H82.3202C82.2629 41.5848 81.8615 41.5565 81.6417 41.415C81.4219 41.2735 81.4028 41.0094 81.3454 40.934C81.1543 40.6699 81.0492 28.4086 81.0492 28.4086C81.0778 27.588 81.4123 27.1541 82.2151 27.0787H89.4399C90.3669 27.2013 90.644 27.522 91.1696 28.2576L98.1842 39.9814C98.6142 40.6888 98.0886 41.5942 97.2572 41.5942L97.2667 41.5848Z" fill="#272727"/>
</g>
<defs>
<clipPath id="clip0_261_1806">
<rect width="136" height="82" fill="white"/>
</clipPath>
</defs>
</svg>
