<svg width="75" height="65" viewBox="0 0 75 65" fill="none" xmlns="http://www.w3.org/2000/svg">
<g clip-path="url(#clip0_333_2109)">
<path fill-rule="evenodd" clip-rule="evenodd" d="M16.5625 31.6216C7.41903 31.6216 0 39.0997 0 48.3118C0 57.5238 7.41903 65.002 16.5625 65.002C25.7059 65.002 33.125 57.5258 33.125 48.3118C33.125 39.0978 25.7059 31.6216 16.5625 31.6216ZM16.5625 43.0409C19.4499 43.0409 21.793 45.4021 21.793 48.3118C21.793 51.2215 19.4499 53.5827 16.5625 53.5827C13.6751 53.5827 11.3319 51.2215 11.3319 48.3118C11.3319 45.4021 13.6751 43.0409 16.5625 43.0409Z" fill="#272727"/>
<path fill-rule="evenodd" clip-rule="evenodd" d="M4.22614 32.3874C7.62916 29.7067 11.9106 28.1076 16.5625 28.1076C27.629 28.1076 36.6102 37.158 36.6102 48.3098C36.6102 49.7646 37.7808 50.9443 39.2245 50.9443C40.6682 50.9443 41.8388 49.7646 41.8388 48.3098C41.8388 34.2521 30.5107 22.8367 16.5606 22.8367C10.6961 22.8367 5.29555 24.8534 1.00264 28.2365C-0.133609 29.1333 -0.336033 30.7902 0.551959 31.9371C1.43995 33.084 3.08608 33.2822 4.22424 32.3874H4.22614Z" fill="#272727"/>
<path fill-rule="evenodd" clip-rule="evenodd" d="M12.2028 25.4731V5.27089H34.0646L42.9731 24.7187C43.8936 26.7278 45.8147 28.0845 48.0051 28.2712C52.5997 28.658 63.416 29.5644 63.416 29.5644C64.8521 29.6837 66.1182 28.606 66.2366 27.1569C66.3588 25.706 65.2875 24.4339 63.8476 24.3108L48.4405 23.0176C48.1273 22.9926 47.8542 22.7963 47.7225 22.5115L38.113 1.53181C37.6834 0.59656 36.761 0 35.7393 0H9.58845C8.14474 0 6.97412 1.17965 6.97412 2.63449V25.4731C6.97412 26.9279 8.14474 28.1076 9.58845 28.1076C11.0321 28.1076 12.2028 26.9279 12.2028 25.4731Z" fill="#272727"/>
<path fill-rule="evenodd" clip-rule="evenodd" d="M42.7116 0H4.35798C2.91427 0 1.74365 1.17965 1.74365 2.63449C1.74365 4.08932 2.91427 5.26897 4.35798 5.26897H42.7116C44.1553 5.26897 45.3259 4.08932 45.3259 2.63449C45.3259 1.17965 44.1553 0 42.7116 0Z" fill="#272727"/>
<path fill-rule="evenodd" clip-rule="evenodd" d="M61.0177 25.4731V18.1431C61.0177 17.9102 61.1074 17.687 61.2717 17.5215L63.737 15.0371C64.7587 14.0114 64.7587 12.3391 63.737 11.3134C62.7192 10.2839 61.0597 10.2839 60.0418 11.3134L57.5765 13.7978C56.4288 14.9505 55.7871 16.5131 55.7871 18.145V25.475C55.7871 26.9298 56.9577 28.1095 58.4014 28.1095C59.8451 28.1095 61.0158 26.9298 61.0158 25.475L61.0177 25.4731Z" fill="#272727"/>
<path fill-rule="evenodd" clip-rule="evenodd" d="M45.347 50.9462C45.8034 42.1421 53.0391 35.1355 61.8884 35.1355C64.7262 35.1355 67.3978 35.8552 69.7333 37.1233V28.835C69.7333 26.5623 68.0146 24.6649 65.7689 24.4609L48.179 22.8482C48.0988 22.8405 48.0224 22.8386 47.9422 22.8386H16.5627C15.5066 22.8386 14.5518 23.4814 14.1469 24.4647C13.7421 25.4481 13.9655 26.5835 14.716 27.3359C30.085 28.1403 36.4212 36.8154 37.3799 50.1745C37.4295 50.8731 38.5333 50.9481 39.2284 50.9481H45.3508L45.347 50.9462Z" fill="#272727"/>
<path fill-rule="evenodd" clip-rule="evenodd" d="M61.9246 38.6494C54.7041 38.6494 48.8491 44.5477 48.8491 51.8257C48.8491 59.1037 54.7022 65.002 61.9246 65.002C69.1469 65.002 75 59.1037 75 51.8257C75 44.5477 69.1469 38.6494 61.9246 38.6494ZM65.9005 51.8276C65.9005 54.0407 64.1188 55.8323 61.9227 55.8323C59.7265 55.8323 57.9448 54.0387 57.9448 51.8238C57.9448 49.6088 59.7246 47.8153 61.9227 47.8153C63.0131 47.8153 63.9985 48.256 64.7165 48.9718C64.7222 48.9757 64.726 48.9814 64.7299 48.9853C64.7318 48.9872 64.7356 48.9911 64.7375 48.993C65.4536 49.7185 65.8986 50.7192 65.8986 51.8238L65.9005 51.8276Z" fill="#272727"/>
</g>
<defs>
<clipPath id="clip0_333_2109">
<rect width="75" height="65" fill="white"/>
</clipPath>
</defs>
</svg>
