<svg width="89" height="85" viewBox="0 0 89 85" fill="none" xmlns="http://www.w3.org/2000/svg">
<g clip-path="url(#clip0_333_2108)">
<path fill-rule="evenodd" clip-rule="evenodd" d="M11.9001 79.1346C13.084 79.1346 14.0493 78.1771 14.0493 77.0027C14.0493 75.8284 13.084 74.8708 11.9001 74.8708C10.7163 74.8708 9.75098 75.8284 9.75098 77.0027C9.75098 78.1771 10.7163 79.1346 11.9001 79.1346Z" fill="#272727"/>
<path fill-rule="evenodd" clip-rule="evenodd" d="M24.9348 79.1346C26.1186 79.1346 27.084 78.1771 27.084 77.0027C27.084 75.8284 26.1186 74.8708 24.9348 74.8708C23.751 74.8708 22.7856 75.8284 22.7856 77.0027C22.7856 78.1771 23.751 79.1346 24.9348 79.1346Z" fill="#272727"/>
<path fill-rule="evenodd" clip-rule="evenodd" d="M37.97 79.1346C39.1538 79.1346 40.1191 78.1771 40.1191 77.0027C40.1191 75.8284 39.1538 74.8708 37.97 74.8708C36.7861 74.8708 35.8208 75.8284 35.8208 77.0027C35.8208 78.1771 36.7861 79.1346 37.97 79.1346Z" fill="#272727"/>
<path fill-rule="evenodd" clip-rule="evenodd" d="M51.03 79.1346C52.2139 79.1346 53.1792 78.1771 53.1792 77.0027C53.1792 75.8284 52.2139 74.8708 51.03 74.8708C49.8462 74.8708 48.8809 75.8284 48.8809 77.0027C48.8809 78.1771 49.8462 79.1346 51.03 79.1346Z" fill="#272727"/>
<path fill-rule="evenodd" clip-rule="evenodd" d="M7.43399 69.6538C3.33087 69.6538 0 72.9579 0 77.028C0 81.0982 3.33087 84.4023 7.43399 84.4023H55.4707C59.5738 84.4023 62.9046 81.0982 62.9046 77.028C62.9046 72.9579 59.5738 69.6538 55.4707 69.6538H7.43399ZM51.0302 72.9348C53.3003 72.9348 55.1333 74.7552 55.1333 77.0049C55.1333 79.2546 53.2982 81.075 51.0302 81.075C48.7622 81.075 46.9271 79.2546 46.9271 77.0049C46.9271 74.7552 48.7622 72.9348 51.0302 72.9348ZM37.9698 72.9348C40.2399 72.9348 42.0729 74.7552 42.0729 77.0049C42.0729 79.2546 40.2378 81.075 37.9698 81.075C35.7018 81.075 33.8667 79.2546 33.8667 77.0049C33.8667 74.7552 35.7252 72.9348 37.9698 72.9348ZM24.9349 72.9348C27.2049 72.9348 29.038 74.7552 29.038 77.0049C29.038 79.2546 27.2028 81.075 24.9349 81.075C22.6669 81.075 20.8317 79.2546 20.8317 77.0049C20.8317 74.7552 22.6669 72.9348 24.9349 72.9348ZM11.8999 72.9348C14.17 72.9348 16.003 74.7552 16.003 77.0049C16.003 79.2546 14.1679 81.075 11.8999 81.075C9.63194 81.075 7.79678 79.2546 7.79678 77.0049C7.79678 74.7552 9.63194 72.9348 11.8999 72.9348Z" fill="#272727"/>
<path fill-rule="evenodd" clip-rule="evenodd" d="M9.00391 63.9062H53.9028V67.7133H9.00391V63.9062Z" fill="#272727"/>
<path fill-rule="evenodd" clip-rule="evenodd" d="M23.4137 61.968V51.6958H1.47237C0.676782 51.6958 0 52.3419 0 53.1563V60.5074C0 61.3219 0.651323 61.968 1.47237 61.968H23.4137Z" fill="#272727"/>
<path fill-rule="evenodd" clip-rule="evenodd" d="M11.4185 42.2361C10.5741 42.2361 9.87402 42.6191 9.87402 43.0737V49.7534H14.3887V43.0737C14.3887 42.5939 13.6886 42.2361 12.8442 42.2361H11.4207H11.4185Z" fill="#272727"/>
<path fill-rule="evenodd" clip-rule="evenodd" d="M56.7985 61.968C57.5708 61.968 58.1988 61.345 58.1988 60.579V58.304C58.1988 57.8494 58.0779 57.3949 57.836 57.0118L47.2387 38.9824C46.7805 38.1932 45.9106 37.7134 44.9941 37.7134H27.977C26.5534 37.7134 25.395 38.8624 25.395 40.2746V61.968H56.7985ZM28.798 42.1876C28.798 41.6615 29.2329 41.2069 29.7867 41.2069H44.3428C44.7056 41.2069 45.0196 41.3984 45.1872 41.6867L53.9493 56.8203C54.119 57.1318 54.119 57.4917 53.9493 57.7779C53.7795 58.0893 53.4422 58.2577 53.1049 58.2577H29.7867C29.2563 58.2577 28.798 57.8263 28.798 57.277V42.1918V42.1876Z" fill="#272727"/>
<path fill-rule="evenodd" clip-rule="evenodd" d="M43.7641 43.1704H30.7524V56.3636H51.3911L43.7641 43.1704Z" fill="#272727"/>
<path fill-rule="evenodd" clip-rule="evenodd" d="M69.6406 55.023V59.6214C71.4503 61.848 72.562 64.1714 72.997 66.5411C73.3597 68.5277 73.2134 70.5628 72.5875 72.5263C72.2968 73.4839 71.9107 74.3215 71.5012 75.0412L84.4874 69.3653C87.2391 68.1678 89.0021 65.4614 89.0021 62.4941C89.0021 58.7585 86.2271 55.6228 82.5822 55.0714C82.1961 55.023 81.81 54.9746 81.4238 54.9746L69.6449 55.023H69.6406Z" fill="#272727"/>
<path fill-rule="evenodd" clip-rule="evenodd" d="M81.8059 53.0827L82.4084 13.1663C82.4084 12.6402 82.2641 12.1119 81.9735 11.6574L75.7466 2.31959C74.8301 0.930608 73.1159 0.284521 71.4738 0.739097C70.3642 1.05057 69.4456 1.81661 68.964 2.87098C68.4824 3.92534 68.5057 5.12281 69.0361 6.15192L71.0877 10.2473C71.2319 10.5104 71.2319 10.845 71.0877 11.1102C70.9434 11.3753 70.7015 11.5648 70.3876 11.6363L50.7142 15.275C50.0862 15.395 49.5304 15.7064 49.1442 16.1842L32.8018 35.7478H41.6848L52.5239 22.5777C53.224 21.7401 54.1893 21.1656 55.2522 20.9741L70.2178 18.1729C70.483 18.1245 70.7482 18.1729 70.9667 18.3413C71.1853 18.5097 71.3295 18.7475 71.3529 19.0127L75.6257 53.0869H81.8059V53.0827Z" fill="#272727"/>
<path fill-rule="evenodd" clip-rule="evenodd" d="M12.5279 40.2977C12.7209 40.2977 12.914 40.3209 13.107 40.3693V40.0346C13.107 35.9877 12.6233 34.1672 9.77618 31.3661C9.39005 30.9831 8.78753 30.9831 8.39928 31.3661C8.01103 31.7491 8.01315 32.3468 8.39928 32.732C10.837 35.1501 11.151 36.3707 11.151 40.0346V40.3693C11.344 40.3209 11.5371 40.2977 11.7301 40.2977H12.5257H12.5279Z" fill="#272727"/>
</g>
<defs>
<clipPath id="clip0_333_2108">
<rect width="89" height="83.8083" fill="white" transform="translate(0 0.595947)"/>
</clipPath>
</defs>
</svg>
