<svg width="82" height="82" viewBox="0 0 82 82" fill="none" xmlns="http://www.w3.org/2000/svg">
<mask id="mask0_261_1667" style="mask-type:luminance" maskUnits="userSpaceOnUse" x="5" y="5" width="72" height="72">
<path d="M77 77L4.99999 77L4.99999 4.99999L77 5L77 77Z" fill="white"/>
</mask>
<g mask="url(#mask0_261_1667)">
<path d="M68.2246 11.5244C66.0767 9.37695 62.595 9.37668 60.4473 11.5244C58.2995 13.6722 58.2998 17.1538 60.4473 19.3018C62.3004 21.1549 65.1459 21.4081 67.2715 20.0635C71.8541 25.806 74.5937 33.0816 74.5937 41C74.5936 59.5532 59.5532 74.5937 41 74.5937C38.7085 74.5937 36.4716 74.3643 34.3105 73.9277C33.7692 73.8184 33.2413 74.1687 33.1318 74.71C33.0226 75.2512 33.3728 75.7793 33.9141 75.8887C36.2048 76.3515 38.5745 76.5937 41 76.5937C60.6578 76.5937 76.5936 60.6578 76.5937 41C76.5937 32.5598 73.6526 24.8044 68.7432 18.7031C70.3555 16.5491 70.1828 13.4826 68.2246 11.5244ZM41 5.40625C21.3422 5.40631 5.40626 21.3422 5.40625 41C5.40625 49.4403 8.34834 57.1946 13.2578 63.2959C11.6448 65.4498 11.8163 68.5161 13.7744 70.4746C15.9223 72.6225 19.4038 72.6225 21.5518 70.4746C23.6996 68.3267 23.6997 64.8452 21.5518 62.6973C19.6989 60.8448 16.8548 60.5919 14.7295 61.9355C10.147 56.193 7.40625 48.9184 7.40625 41C7.40626 22.4467 22.4467 7.40631 41 7.40625C43.2691 7.40625 45.4847 7.63129 47.626 8.05957C48.1674 8.16785 48.6942 7.8167 48.8027 7.27539C48.911 6.73391 48.56 6.20706 48.0186 6.09863C45.7488 5.64465 43.4016 5.40625 41 5.40625ZM15.1885 64.1113C16.5552 62.7447 18.7708 62.745 20.1377 64.1113C21.5045 65.4782 21.5045 67.6937 20.1377 69.0605C18.7708 70.4274 16.5553 70.4274 15.1885 69.0605C13.8221 67.6936 13.8218 65.478 15.1885 64.1113ZM36.6035 15.8125C36.0512 15.8125 35.6035 16.2602 35.6035 16.8125L35.6035 19.8535C33.5563 20.374 31.6245 21.1827 29.8545 22.2353L27.707 20.0889L27.6338 20.0225C27.4558 19.8765 27.2322 19.7959 27 19.7959C26.7347 19.7959 26.4805 19.9012 26.293 20.0889L20.0771 26.3086C19.6871 26.6992 19.6878 27.3323 20.0781 27.7227L22.2236 29.8672C21.1709 31.6373 20.3614 33.5688 19.8408 35.6162L16.8096 35.6162C16.2573 35.6163 15.8096 36.064 15.8096 36.6162L15.8096 45.4092C15.8097 45.9614 16.2574 46.4091 16.8096 46.4092L19.8408 46.4092C20.3613 48.4561 21.1702 50.3875 22.2227 52.1572L20.0879 54.292C19.9003 54.4796 19.7949 54.7347 19.7949 55C19.795 55.2652 19.9013 55.5196 20.0889 55.707L26.3086 61.9219C26.6991 62.3119 27.3313 62.312 27.7217 61.9219L29.8555 59.7881C31.6254 60.8407 33.5563 61.6505 35.6035 62.1709L35.6035 65.1875C35.6035 65.7398 36.0512 66.1875 36.6035 66.1875L45.3965 66.1875C45.9486 66.1873 46.3965 65.7396 46.3965 65.1875L46.3965 62.1699C48.4436 61.6494 50.3747 60.8407 52.1445 59.7881L54.2773 61.9219C54.6678 62.3121 55.3009 62.3121 55.6914 61.9219L61.9111 55.707C62.0986 55.5196 62.204 55.2651 62.2041 55C62.2041 54.7347 62.0987 54.4796 61.9111 54.292L59.7773 52.1572C60.8296 50.3876 61.6377 48.456 62.1582 46.4092L65.1846 46.4092C65.7366 46.4092 66.1843 45.9612 66.1846 45.4092L66.1895 36.6172C66.1896 36.3519 66.084 36.0968 65.8965 35.9092C65.7089 35.7216 65.4547 35.6162 65.1895 35.6162L62.1582 35.6162C61.6376 33.5689 60.829 31.6372 59.7764 29.8672L61.9209 27.7227C62.3113 27.3323 62.312 26.6992 61.9219 26.3086L55.7061 20.0889L55.6328 20.0225C55.4549 19.8766 55.2311 19.7959 54.999 19.7959C54.7338 19.7959 54.4795 19.9013 54.292 20.0889L52.1455 22.2353C50.3755 21.1827 48.4437 20.3741 46.3965 19.8535L46.3965 16.8125C46.3965 16.2604 45.9486 15.8127 45.3965 15.8125L36.6035 15.8125ZM44.3965 20.6445C44.3965 21.1157 44.7249 21.5239 45.1855 21.623C47.5585 22.1329 49.7743 23.0666 51.749 24.3428C52.1448 24.5985 52.6657 24.543 52.999 24.21L55 22.209L59.8008 27.0146L57.8027 29.0127C57.4695 29.346 57.4141 29.8668 57.6699 30.2627C58.946 32.2375 59.8798 34.4531 60.3896 36.8262C60.4887 37.287 60.8959 37.6162 61.3672 37.6162L64.1885 37.6162L64.1855 44.4092L61.3672 44.4092L61.2793 44.4131C60.8459 44.451 60.4825 44.7673 60.3896 45.1992C59.8797 47.5722 58.946 49.7881 57.6699 51.7627C57.4142 52.1585 57.4695 52.6785 57.8027 53.0117L59.79 54.999L54.9853 59.8008L52.999 57.8154L52.9346 57.7559C52.6013 57.4761 52.1201 57.4428 51.749 57.6826C49.7745 58.9586 47.5593 59.8926 45.1865 60.4023C44.7257 60.5013 44.3965 60.9085 44.3965 61.3799L44.3965 64.1875L37.6035 64.1875L37.6035 61.3799C37.6035 60.9087 37.2741 60.5015 36.8135 60.4023C34.4405 59.8926 32.2246 58.9587 30.25 57.6826L30.1748 57.6387C29.7901 57.4349 29.3126 57.5028 29 57.8154L27.0146 59.8008L22.21 54.999L24.1963 53.0117C24.5295 52.6785 24.5848 52.1585 24.3291 51.7627C23.053 49.7881 22.1193 47.5722 21.6094 45.1992L21.5879 45.1143C21.4599 44.6983 21.0738 44.4092 20.6318 44.4092L17.8096 44.4092L17.8096 37.6162L20.6318 37.6162C21.1032 37.6162 21.5104 37.287 21.6094 36.8262C22.1193 34.4532 23.053 32.2374 24.3291 30.2627C24.5849 29.8668 24.5296 29.346 24.1963 29.0127L22.1992 27.0146L27 22.209L29 24.21C29.3333 24.5431 29.8542 24.5986 30.25 24.3428C32.2247 23.0665 34.4405 22.1329 36.8135 21.623C37.2742 21.5239 37.6035 21.1158 37.6035 20.6445L37.6035 17.8125L44.3965 17.8125L44.3965 20.6445ZM41 29.7861C34.807 29.7861 29.7861 34.8068 29.7861 41C29.7861 47.1931 34.807 52.2139 41 52.2139C47.1928 52.2136 52.2129 47.1929 52.2129 41C52.2129 34.807 47.1928 29.7864 41 29.7861ZM41 31.7861C46.0883 31.7864 50.2129 35.9115 50.2129 41C50.2129 46.0883 46.0883 50.2136 41 50.2139C35.9115 50.2139 31.7861 46.0884 31.7861 41C31.7861 35.9114 35.9115 31.7861 41 31.7861ZM61.8613 12.9385C63.2281 11.5718 65.4437 11.5721 66.8105 12.9385C68.1774 14.3053 68.1774 16.5208 66.8105 17.8877C65.4437 19.2545 63.2282 19.2545 61.8613 17.8877C60.4949 16.5208 60.4947 14.3052 61.8613 12.9385Z" fill="url(#paint0_linear_261_1667)"/>
</g>
<defs>
<linearGradient id="paint0_linear_261_1667" x1="41" y1="76.5937" x2="41" y2="5.40625" gradientUnits="userSpaceOnUse">
<stop stop-color="#1A1A1A"/>
<stop offset="1" stop-color="#585858"/>
</linearGradient>
</defs>
</svg>
