<svg width="95" height="70" viewBox="0 0 95 70" fill="none" xmlns="http://www.w3.org/2000/svg">
<path d="M83.4072 0C87.4665 0 90.7695 3.30504 90.7695 7.36426V55.2744H92.6621C93.8481 55.2744 94.7317 56.3886 94.4453 57.5508C94.2121 64.4537 88.5223 69.9998 81.5625 70H13.3896C6.28307 69.9997 0.500191 64.2187 0.5 57.1104C0.5 56.0969 1.3225 55.2744 2.33594 55.2744H4.18457V7.36426C4.18457 3.3032 7.48773 0 11.5488 0H83.4072ZM4.35547 58.9463C5.20929 63.1521 8.936 66.3279 13.3896 66.3281H81.5645C86.0181 66.3279 89.7448 63.1521 90.5986 58.9463H58.3701L55.2236 62.0928C54.8785 62.4379 54.4122 62.6309 53.9258 62.6309H39.1846C38.6982 62.6307 38.2318 62.436 37.8867 62.0928L34.7402 58.9463H4.35547ZM11.5488 3.67188C9.51277 3.67188 7.85645 5.32822 7.85645 7.36426V55.2744H35.5C35.9863 55.2744 36.4527 55.4685 36.7979 55.8115L39.9453 58.959H53.1641L56.3105 55.8115C56.6556 55.4665 57.1221 55.2745 57.6084 55.2744H87.0957V7.36426C87.0957 5.32822 85.4413 3.67188 83.4053 3.67188H11.5488ZM79.7207 9.21289C80.7341 9.21289 81.5566 10.0354 81.5566 11.0488V47.8975C81.5566 48.9108 80.7341 49.7334 79.7207 49.7334H15.2334C14.22 49.7334 13.3975 48.9108 13.3975 47.8975V11.0488C13.3975 10.0354 14.22 9.21289 15.2334 9.21289H79.7207ZM17.0693 46.0615H77.8848V12.8848H17.0693V46.0615ZM48.5811 14.9814C48.8124 14.6216 49.263 14.465 49.665 14.6045C50.0686 14.7422 50.3266 15.1388 50.292 15.5645L49.4443 25.7432H55.8906C56.2282 25.7433 56.5379 25.9252 56.7031 26.2188L56.7002 26.2207C56.8653 26.5143 56.8596 26.874 56.6836 27.1621L46.4277 43.9443C46.2552 44.2271 45.9504 44.3906 45.6328 44.3906C45.5374 44.3906 45.4421 44.3759 45.3467 44.3447C44.9373 44.2126 44.6712 43.8162 44.7041 43.3867L45.5596 32.2695H39.1084C38.7669 32.2695 38.4525 32.0843 38.2891 31.7832C38.1258 31.4822 38.1409 31.1174 38.3262 30.8311L48.5811 14.9814ZM41.4268 30.083L46.8662 30.1973C47.1269 30.1973 47.3755 30.3052 47.5518 30.4961C47.7279 30.6869 47.8179 30.9424 47.7979 31.2012L47.1348 38.8311L53.7275 27.9424L48.043 27.9883C47.7824 27.9881 47.5326 27.8783 47.3564 27.6875C47.1803 27.4948 47.0922 27.2391 47.1143 26.9785L47.9678 19.6973L41.4268 30.083Z" fill="url(#paint0_linear_261_1734)"/>
<defs>
<linearGradient id="paint0_linear_261_1734" x1="47.4998" y1="70" x2="47.4998" y2="0" gradientUnits="userSpaceOnUse">
<stop stop-color="#1A1A1A"/>
<stop offset="1" stop-color="#585858"/>
</linearGradient>
</defs>
</svg>
