<svg width="92" height="92" viewBox="0 0 92 92" fill="none" xmlns="http://www.w3.org/2000/svg">
<path d="M44.7373 5.80464C45.5575 5.53648 46.4425 5.53648 47.2627 5.80464L62.9336 10.9277C64.6035 11.4738 65.7333 13.032 65.7334 14.789V17.9111C65.7334 18.7644 65.7052 19.615 65.6494 20.4609H78.0547L78.3408 20.4755C79.7526 20.6188 80.8545 21.8112 80.8545 23.2607V65.83L91 77.958L90.998 77.9589C91.0166 77.9811 91.0332 78.0029 91.0479 78.0234C91.2281 78.2478 91.3681 78.4929 91.4648 78.7519C91.4713 78.7692 91.476 78.7872 91.4814 78.8046C91.5943 79.112 91.6523 79.4341 91.6523 79.7558V83.5976C91.652 85.1428 90.3982 86.3974 88.8525 86.3974H16.0176C15.4655 86.3974 15.0179 85.9494 15.0176 85.3974C15.0176 84.8452 15.4653 84.3974 16.0176 84.3974H35.835V80.1025H2.34766V83.5976L2.35156 83.6796C2.39287 84.0822 2.73416 84.3974 3.14746 84.3974H10.1484C10.7007 84.3974 11.1484 84.8452 11.1484 85.3974C11.1481 85.9494 10.7005 86.3974 10.1484 86.3974H3.14746C1.69863 86.3974 0.505875 85.2951 0.362305 83.8837L0.347656 83.5976V79.7558L0.359375 79.4951C0.383517 79.2356 0.44441 78.978 0.542969 78.7314L0.547852 78.7197C0.643318 78.4742 0.77711 78.2412 0.948242 78.0273C0.963662 78.0056 0.982055 77.9827 1.00195 77.9589L1 77.958L11.1455 65.8291V23.2607C11.1455 21.7146 12.3992 20.4609 13.9453 20.4609H26.3545C26.2987 19.6149 26.2666 18.7645 26.2666 17.9111V14.789C26.2667 13.0319 27.3965 11.4738 29.0664 10.9277L44.7373 5.80464ZM37.835 84.3974H54.166V80.1025H37.835V84.3974ZM56.166 84.3974H88.8525C89.2935 84.3974 89.652 84.0384 89.6523 83.5976V80.1025H56.166V84.3974ZM3.48633 78.1025H16.1924L22.1631 67.1933H12.6123L3.48633 78.1025ZM18.4717 78.1025H73.5283L67.5576 67.1933H24.4424L18.4717 78.1025ZM75.8076 78.1025H88.5137L79.3867 67.1933H69.8369L75.8076 78.1025ZM13.1455 65.1933H78.8545V59.4326H13.1455V65.1933ZM13.9453 22.4609C13.5038 22.4609 13.1455 22.8192 13.1455 23.2607V57.4326H22.8506V37.7656C22.8506 36.2209 24.1028 34.9687 25.6475 34.9687H30.2266C28.3091 31.0584 27.0548 26.8316 26.5381 22.4609H13.9453ZM46.6406 7.706C46.2243 7.56989 45.7757 7.56992 45.3594 7.706L29.6885 12.8291C28.8407 13.1063 28.2667 13.8971 28.2666 14.789V17.9111C28.2667 28.234 32.6089 38.0817 40.2314 45.0429H40.2324L45.4629 49.8193C45.7671 50.0968 46.2329 50.0969 46.5371 49.8193L51.2402 45.5244C51.648 45.1522 52.28 45.1812 52.6523 45.5888C53.0244 45.9965 52.9963 46.6285 52.5889 47.0009L47.8857 51.2958C46.8177 52.2711 45.1814 52.2711 44.1133 51.2958L38.8828 46.5195C35.8277 43.7294 33.2734 40.4985 31.2793 36.9687H25.6475C25.2073 36.9687 24.8506 37.3255 24.8506 37.7656V57.4326H67.1504V37.7656C67.1504 37.353 66.8364 37.0134 66.4346 36.9726L66.3535 36.9687H60.7178C59.5733 38.9938 58.2454 40.9213 56.7432 42.7226C56.3895 43.1463 55.759 43.2039 55.335 42.8505C54.911 42.4969 54.8546 41.8665 55.208 41.4423C60.6823 34.8781 63.7333 26.5618 63.7334 17.9111V14.789C63.7333 13.8971 63.1594 13.1063 62.3115 12.8291L46.6406 7.706ZM65.4629 22.4609C64.9458 26.8314 63.6923 31.0588 61.7744 34.9687H66.3535L66.6387 34.9833C68.0491 35.1264 69.1504 36.3174 69.1504 37.7656V57.4326H78.8545V23.2607C78.8545 22.8468 78.5398 22.5058 78.1367 22.4648L78.0547 22.4609H65.4629ZM31.8613 52.0166C32.4136 52.0166 32.8613 52.4643 32.8613 53.0166C32.8613 53.5688 32.4136 54.0166 31.8613 54.0166H29.96C29.4077 54.0166 28.96 53.5688 28.96 53.0166C28.96 52.4643 29.4077 52.0166 29.96 52.0166H31.8613ZM45.0752 11.3652C45.6761 11.169 46.324 11.1688 46.9248 11.3652L58.29 15.081C59.514 15.4812 60.3416 16.6237 60.3418 17.9111C60.3416 27.281 56.4002 36.2193 49.4814 42.538L48.0068 43.8847C46.87 44.9224 45.129 44.9225 43.9922 43.8847L42.5186 42.538C35.5996 36.2193 31.6574 27.2811 31.6572 17.9111C31.6574 16.6236 32.4853 15.4812 33.709 15.081L45.0742 11.3652H45.0752ZM46.3037 13.2656C46.1067 13.2012 45.8937 13.2021 45.6963 13.2666L34.3301 16.9814C33.9288 17.1128 33.6574 17.4888 33.6572 17.9111C33.6574 26.7192 37.3631 35.1216 43.8672 41.0615L45.3408 42.4072L45.4131 42.4677C45.7846 42.7469 46.3085 42.7263 46.6582 42.4072L48.1318 41.0615C54.6359 35.1216 58.3416 26.7193 58.3418 17.9111C58.3417 17.5414 58.1343 17.2074 57.8135 17.0419L57.6689 16.9824L46.3037 13.2656ZM19.7432 25.9814C20.2952 25.9817 20.7432 26.4293 20.7432 26.9814V28.0585H21.8203C22.3722 28.0591 22.8203 28.5066 22.8203 29.0585C22.8202 29.6104 22.3721 30.058 21.8203 30.0585H20.7432V31.1357C20.7428 31.6875 20.295 32.1354 19.7432 32.1357C19.1911 32.1357 18.7435 31.6877 18.7432 31.1357V30.0585H17.666C17.1138 30.0585 16.6662 29.6107 16.666 29.0585C16.666 28.5063 17.1137 28.0585 17.666 28.0585H18.7432V26.9814C18.7432 26.4291 19.1909 25.9814 19.7432 25.9814Z" fill="url(#paint0_linear_261_1629)"/>
<defs>
<linearGradient id="paint0_linear_261_1629" x1="46" y1="86.3974" x2="46" y2="5.60352" gradientUnits="userSpaceOnUse">
<stop stop-color="#1A1A1A"/>
<stop offset="1" stop-color="#585858"/>
</linearGradient>
</defs>
</svg>
