<svg width="88" height="94" viewBox="0 0 88 94" fill="none" xmlns="http://www.w3.org/2000/svg">
<path d="M55.624 20.4912C57.3764 20.4914 58.6872 21.9888 58.6875 23.6943V39.5254H59.2891L59.541 39.5391C60.7777 39.6719 61.6553 40.7712 61.6553 41.9854V42.709C61.6551 44.1679 61.0965 45.5166 60.1777 46.501C61.8658 48.0215 63.3626 49.7738 64.623 51.7119C64.9237 52.1747 64.7925 52.7936 64.3301 53.0947C63.8671 53.3958 63.2474 53.2647 62.9463 52.8018C61.6968 50.8805 60.1998 49.1597 58.5068 47.6914C57.9044 47.956 57.2412 48.1055 56.5381 48.1055H52.125C54.0242 52.7105 55.2117 58.9899 55.3164 65.9092H67.0527C66.9533 63.2322 66.4576 60.6665 65.626 58.2773C65.4444 57.7558 65.7198 57.1856 66.2412 57.0039C66.7627 56.8224 67.333 57.0977 67.5146 57.6191C68.5225 60.5144 69.0723 63.6458 69.0723 66.9102C69.0718 81.6002 57.908 93.624 44 93.624C35.4337 93.624 27.8934 89.0491 23.3799 82.1113C23.0788 81.6485 23.2101 81.0288 23.6729 80.7275C24.1357 80.4266 24.7545 80.5577 25.0557 81.0205C28.3264 86.0482 33.2842 89.6965 39.0332 91.0479C37.7759 89.6429 36.6804 87.7282 35.7715 85.4648C33.9343 80.8895 32.7875 74.7114 32.6846 67.9092H20.9473C21.0446 70.5289 21.5216 73.0424 22.3213 75.3877C22.4992 75.9103 22.2198 76.478 21.6973 76.6562C21.1746 76.8345 20.6061 76.5557 20.4277 76.0332C19.4564 73.1846 18.9278 70.111 18.9277 66.9092C18.9278 58.7372 22.3743 51.4078 27.8213 46.501C26.9028 45.5166 26.3449 44.1677 26.3447 42.709V41.9854C26.3447 40.69 27.3432 39.5255 28.7109 39.5254H29.3135V23.6943C29.3138 21.9885 30.6238 20.4914 32.376 20.4912H55.624ZM34.6846 67.9092C34.7876 74.5128 35.9034 80.4275 37.627 84.7197C38.533 86.976 39.5871 88.7353 40.7061 89.9141C41.8229 91.0903 42.9366 91.623 44 91.623C45.0634 91.623 46.177 91.0905 47.2939 89.9141C48.413 88.7353 49.4669 86.9761 50.373 84.7197C52.0966 80.4275 53.2115 74.5128 53.3145 67.9092H34.6846ZM55.3154 67.9092C55.2126 74.7114 54.0667 80.8895 52.2295 85.4648C51.3209 87.7274 50.2246 89.6411 48.9678 91.0459C58.9946 88.6847 66.6288 79.3284 67.0518 67.9092H55.3154ZM29.4941 47.6924C24.5024 52.0216 21.2218 58.5438 20.9482 65.9092H32.6826C32.7873 58.9896 33.9758 52.7104 35.875 48.1055H31.4619C30.7593 48.1055 30.0963 47.9567 29.4941 47.6924ZM38.0508 48.1055C36.0912 52.4474 34.7949 58.77 34.6836 65.9092H53.3164C53.2051 58.77 51.9079 52.4475 49.9482 48.1055H38.0508ZM28.7109 41.5254C28.5697 41.5255 28.3447 41.6686 28.3447 41.9854V42.709C28.3451 44.648 29.802 46.1055 31.4619 46.1055H56.5381C58.198 46.1054 59.6549 44.648 59.6553 42.709V41.9854C59.6553 41.7078 59.4823 41.5638 59.3447 41.5322L59.2891 41.5254H28.7109ZM32.376 22.4912C31.8504 22.4914 31.3138 22.967 31.3135 23.6943V39.5244H56.6875V23.6943C56.6872 22.9671 56.1497 22.4914 55.624 22.4912H32.376ZM38.377 31.6719C38.929 31.6721 39.377 32.1198 39.377 32.6719V34.3281L39.3721 34.4297C39.321 34.9339 38.8946 35.3279 38.377 35.3281C37.8591 35.3281 37.433 34.934 37.3818 34.4297L37.377 34.3281V32.6719C37.377 32.1196 37.8247 31.6719 38.377 31.6719ZM44 28.8574C44.5523 28.8574 45 29.3051 45 29.8574V34.3281C44.9997 34.8802 44.5521 35.3281 44 35.3281C43.4479 35.3281 43.0003 34.8802 43 34.3281V29.8574C43 29.3051 43.4477 28.8574 44 28.8574ZM49.624 26.6885C50.176 26.6887 50.6238 27.1365 50.624 27.6885V34.3271C50.624 34.8793 50.1761 35.3269 49.624 35.3271C49.0717 35.3271 48.624 34.8794 48.624 34.3271V27.6885C48.6242 27.1364 49.0719 26.6885 49.624 26.6885ZM44 11.9746C45.2375 11.9746 46.3456 12.5127 47.1348 13.3555C47.5121 13.7585 47.4917 14.3911 47.0889 14.7686C46.6857 15.146 46.0523 15.1258 45.6748 14.7227C45.233 14.2508 44.6408 13.9746 44 13.9746C43.359 13.9746 42.7669 14.2508 42.3252 14.7227C41.9478 15.1258 41.3143 15.1459 40.9111 14.7686C40.5083 14.3912 40.4871 13.7586 40.8643 13.3555C41.6535 12.5122 42.7624 11.9746 44 11.9746ZM44 6.55273C46.6391 6.55286 49.0168 7.69743 50.7246 9.52148C51.1016 9.92467 51.0817 10.5582 50.6787 10.9355C50.2757 11.3128 49.6421 11.2914 49.2646 10.8887C47.9043 9.43565 46.0426 8.55286 44 8.55273C41.9576 8.55283 40.0965 9.43571 38.7363 10.8887C38.3591 11.2917 37.7255 11.3125 37.3223 10.9355C36.9191 10.5581 36.898 9.92469 37.2754 9.52148C38.9831 7.69719 41.3609 6.55283 44 6.55273ZM44.001 0.376953C48.2364 0.377208 52.0596 2.21264 54.8135 5.1543C55.1906 5.55742 55.1695 6.19096 54.7666 6.56836C54.3635 6.9457 53.73 6.92446 53.3525 6.52148C50.9461 3.95112 47.6397 2.37721 44.001 2.37695C40.362 2.37695 37.055 3.95103 34.6484 6.52148C34.2711 6.92458 33.6376 6.94557 33.2344 6.56836C32.8312 6.19092 32.8101 5.55748 33.1875 5.1543C35.9416 2.21255 39.7653 0.376953 44.001 0.376953Z" fill="url(#paint0_linear_261_1711)"/>
<defs>
<linearGradient id="paint0_linear_261_1711" x1="44" y1="93.624" x2="44" y2="0.376953" gradientUnits="userSpaceOnUse">
<stop stop-color="#1A1A1A"/>
<stop offset="1" stop-color="#585858"/>
</linearGradient>
</defs>
</svg>
