<svg width="42" height="34" viewBox="0 0 42 34" fill="none" xmlns="http://www.w3.org/2000/svg">
<g clip-path="url(#clip0_281_779)">
<path fill-rule="evenodd" clip-rule="evenodd" d="M8.4736 2.91243H33.5285C34.3231 2.91243 34.9639 3.51359 34.9639 4.25554V16.9082C34.9639 17.6518 34.3231 18.2513 33.5285 18.2513H8.4736C7.67901 18.2513 7.03827 17.6518 7.03827 16.9082V4.25554C7.03827 3.512 7.67901 2.91243 8.4736 2.91243ZM7.35949 0C5.57419 0 4.13379 1.36367 4.13379 3.05956V20.3269C4.13379 22.0228 5.57419 23.3896 7.35949 23.3896H34.6427C36.4296 23.3896 37.8684 22.0228 37.8684 20.3269V3.05956C37.8684 1.36367 36.4296 0 34.6427 0H7.35949Z" fill="#272727"/>
<path fill-rule="evenodd" clip-rule="evenodd" d="M4.77943 25.4699C3.7938 25.4699 3.29845 26.147 3.00259 26.8415L0.15052 32.2203C-0.243394 33.1441 0.147139 34 1.13277 34H40.869C41.8513 34 42.2418 33.1457 41.8479 32.2203L38.9975 26.8415C38.7 26.147 38.2046 25.4699 37.2207 25.4699H4.77943Z" fill="#272727"/>
<path d="M17.9576 6.47666V5.66668C17.9576 5.30915 18.267 5.01965 18.6491 5.01965H23.3507C23.7328 5.01965 24.0422 5.30915 24.0422 5.66668V6.52095L25.1072 6.47666V5.36769C25.1072 4.62415 24.4631 4.01984 23.6668 4.01984H18.3296C17.535 4.01984 16.8892 4.62257 16.8892 5.36769V6.56367L17.9542 6.47666H17.9576Z" fill="#272727"/>
<path d="M27.674 10.7733V11.8506C27.674 12.0484 27.5016 12.2098 27.2903 12.2098H25.3072C25.0958 12.2098 24.9234 12.0484 24.9234 11.8506V10.7733H17.0772V11.8506C17.0772 12.0484 16.9048 12.2098 16.6935 12.2098H14.7104C14.4991 12.2098 14.3266 12.0484 14.3266 11.8506V10.7733H12.21V15.0257C12.21 16.0034 13.057 16.7975 14.1035 16.7975H27.8989C28.9437 16.7975 29.7924 16.0049 29.7924 15.0257V10.7733H27.6757H27.674Z" fill="#272727"/>
<path d="M28.6679 6.22985H21.2664L20.438 6.23144H13.3306C12.2419 6.22985 11.3594 7.05565 11.3594 8.07445V9.9839H14.3247V9.58366C14.3247 9.27201 14.5935 9.02047 14.9266 9.02047H16.3737C16.7051 9.02047 16.9756 9.27201 16.9756 9.58208V9.9839L20.6578 9.98548H24.9215V9.58366C24.9232 9.27359 25.192 9.02205 25.5251 9.02205H26.9722C27.3053 9.02205 27.5741 9.27359 27.5741 9.58524V9.98548H30.6392V8.07286C30.6392 7.05407 29.7567 6.22827 28.6679 6.22827V6.22985Z" fill="#272727"/>
<path d="M16.2047 9.87476H15.1582V11.3444H16.2047V9.87476Z" fill="#272727"/>
<path d="M26.9874 9.87476H25.9409V11.3444H26.9874V9.87476Z" fill="#272727"/>
</g>
<defs>
<clipPath id="clip0_281_779">
<rect width="42" height="34" fill="white"/>
</clipPath>
</defs>
</svg>
