<svg width="45" height="45" viewBox="0 0 45 45" fill="none" xmlns="http://www.w3.org/2000/svg">
<g clip-path="url(#clip0_261_6224)">
<path d="M13.8439 21.5038L13.8439 19.5396C13.8439 19.398 13.9591 19.2829 14.1006 19.2829L30.8989 19.2829C31.0404 19.2829 31.1556 19.398 31.1556 19.5396L31.1556 21.4993C31.1556 21.6958 31.3148 21.8551 31.5114 21.8551C31.7079 21.8551 31.8672 21.6958 31.8672 21.4993L31.8672 19.5396C31.8672 19.0057 31.4329 18.5713 30.899 18.5713L14.1007 18.5713C13.5668 18.5713 13.1325 19.0057 13.1325 19.5396L13.1325 21.5038C13.1325 21.7003 13.2917 21.8596 13.4883 21.8596C13.6848 21.8597 13.8439 21.7004 13.8439 21.5038Z" fill="url(#paint0_linear_261_6224)"/>
<path d="M31.8672 25.4604L31.8672 23.3124C31.8672 23.1158 31.7079 22.9565 31.5114 22.9565C31.3149 22.9565 31.1556 23.1158 31.1556 23.3124L31.1556 25.4604C31.1556 25.602 31.0404 25.7171 30.8989 25.7171L14.1006 25.7171C13.9591 25.7171 13.844 25.602 13.844 25.4604L13.844 23.3166C13.844 23.1201 13.6847 22.9609 13.4882 22.9609C13.2917 22.9609 13.1324 23.1202 13.1324 23.3166L13.1324 25.4604C13.1324 25.9943 13.5667 26.4287 14.1006 26.4287L30.899 26.4287C31.4329 26.4287 31.8672 25.9943 31.8672 25.4604Z" fill="url(#paint1_linear_261_6224)"/>
<path d="M25.344 31.8273C25.344 32.4111 25.819 32.886 26.4027 32.886L27.3452 32.886C27.9289 32.886 28.4039 32.4111 28.4039 31.8273L28.4039 29.5612L29.718 29.5612L29.718 31.8272C29.718 32.411 30.1929 32.886 30.7767 32.886L31.7191 32.886C32.3028 32.886 32.7778 32.411 32.7778 31.8272L32.7778 29.5612L33.6202 29.5612C34.3811 29.5612 35 28.9422 35 28.1814L35 16.8183C35 16.0575 34.3811 15.4385 33.6202 15.4385L32.7778 15.4385L32.7778 13.1725C32.7778 12.5887 32.3029 12.1138 31.7191 12.1138L30.7767 12.1138C30.193 12.1138 29.718 12.5887 29.718 13.1725L29.718 15.4385L28.4039 15.4385L28.4039 13.1725C28.4039 12.5887 27.929 12.1138 27.3452 12.1138L26.4028 12.1138C25.819 12.1138 25.3441 12.5887 25.3441 13.1725L25.3441 15.4385L24.0299 15.4385L24.0299 13.1725C24.0299 12.5887 23.555 12.1138 22.9712 12.1138L22.0288 12.1138C21.4451 12.1138 20.9701 12.5887 20.9701 13.1725L20.9701 15.4385L19.656 15.4385L19.656 13.1725C19.656 12.5887 19.181 12.1138 18.5973 12.1138L17.6548 12.1138C17.0711 12.1138 16.5961 12.5887 16.5961 13.1725L16.5961 15.4385L15.282 15.4385L15.282 13.1725C15.282 12.5887 14.8071 12.1138 14.2233 12.1138L13.2809 12.1138C12.6972 12.1138 12.2222 12.5887 12.2222 13.1725L12.2222 15.4385L11.3798 15.4385C10.619 15.4385 10 16.0575 10 16.8183L10 28.1814C10 28.9422 10.6189 29.5612 11.3798 29.5612L12.2222 29.5612L12.2222 31.8272C12.2222 32.411 12.6971 32.886 13.2809 32.886L14.2233 32.886C14.807 32.886 15.282 32.411 15.282 31.8272L15.282 29.5612L16.5961 29.5612L16.5961 31.8272C16.5961 32.411 17.071 32.886 17.6548 32.886L18.5972 32.886C19.181 32.886 19.6559 32.411 19.6559 31.8272L19.6559 29.5612L20.9701 29.5612L20.9701 31.8272C20.9701 32.411 21.445 32.886 22.0288 32.886L22.9712 32.886C23.5549 32.886 24.0299 32.411 24.0299 31.8272L24.0299 29.5612L25.344 29.5612L25.344 31.8273ZM32.0663 29.5612L32.0663 31.8272C32.0663 32.0187 31.9105 32.1744 31.7191 32.1744L30.7767 32.1744C30.5853 32.1744 30.4296 32.0187 30.4296 31.8272L30.4296 29.5612L32.0663 29.5612ZM27.6923 29.5612L27.6923 31.8272C27.6923 32.0187 27.5366 32.1744 27.3452 32.1744L26.4027 32.1744C26.2113 32.1744 26.0556 32.0187 26.0556 31.8272L26.0556 29.5612L27.6923 29.5612ZM12.9337 15.4386L12.9337 13.1725C12.9337 12.9811 13.0895 12.8253 13.2809 12.8253L14.2233 12.8253C14.4147 12.8253 14.5704 12.9811 14.5704 13.1725L14.5704 15.4385L12.9337 15.4386ZM17.3077 15.4386L17.3077 13.1725C17.3077 12.9811 17.4634 12.8253 17.6548 12.8253L18.5973 12.8253C18.7887 12.8253 18.9444 12.9811 18.9444 13.1725L18.9444 15.4385L17.3077 15.4386ZM21.6817 15.4386L21.6817 13.1725C21.6817 12.9811 21.8374 12.8253 22.0288 12.8253L22.9712 12.8253C23.1626 12.8253 23.3183 12.9811 23.3183 13.1725L23.3183 15.4385L21.6817 15.4386ZM26.0556 15.4386L26.0556 13.1725C26.0556 12.9811 26.2113 12.8253 26.4027 12.8253L27.3452 12.8253C27.5366 12.8253 27.6923 12.9811 27.6923 13.1725L27.6923 15.4385L26.0556 15.4386ZM30.4296 15.4386L30.4296 13.1725C30.4296 12.9811 30.5853 12.8253 30.7767 12.8253L31.7191 12.8253C31.9105 12.8253 32.0662 12.9811 32.0662 13.1725L32.0662 15.4385L30.4296 15.4386ZM11.3798 28.8496C11.0113 28.8496 10.7116 28.5499 10.7116 28.1814L10.7116 16.8183C10.7116 16.4499 11.0113 16.1501 11.3798 16.1501L12.578 16.1501L14.9262 16.1501L16.9519 16.1501L19.3001 16.1501L21.3259 16.1501L23.6741 16.1501L25.6999 16.1501L28.0481 16.1501L30.0738 16.1501L32.422 16.1501L33.6202 16.1501C33.9887 16.1501 34.2884 16.4499 34.2884 16.8183L34.2884 28.1814C34.2884 28.5499 33.9887 28.8496 33.6202 28.8496L11.3798 28.8496ZM14.5704 31.8272C14.5704 32.0186 14.4147 32.1744 14.2233 32.1744L13.2809 32.1744C13.0895 32.1744 12.9337 32.0186 12.9337 31.8272L12.9337 29.5612L14.5704 29.5612L14.5704 31.8272ZM18.9444 31.8272C18.9444 32.0186 18.7887 32.1744 18.5973 32.1744L17.6548 32.1744C17.4634 32.1744 17.3077 32.0186 17.3077 31.8272L17.3077 29.5612L18.9444 29.5612L18.9444 31.8272ZM23.3183 31.8272C23.3183 32.0186 23.1626 32.1744 22.9712 32.1744L22.0288 32.1744C21.8374 32.1744 21.6816 32.0186 21.6816 31.8272L21.6816 29.5612L23.3183 29.5612L23.3183 31.8272Z" fill="url(#paint2_linear_261_6224)"/>
<path d="M20.0504 24.0563C20.0711 24.1397 20.146 24.1983 20.232 24.1983L20.5088 24.1983C20.6365 24.1983 20.7268 24.0737 20.6866 23.9526C20.5606 23.5728 20.4177 23.1293 20.2579 22.6222C20.3351 22.5883 20.4021 22.546 20.4589 22.4953C20.5157 22.4446 20.5592 22.393 20.5894 22.3404C20.6196 22.2879 20.6434 22.2275 20.6609 22.1592C20.6784 22.091 20.6896 22.0303 20.6944 21.9771C20.6992 21.924 20.7017 21.8636 20.7017 21.7959C20.7017 21.6402 20.6775 21.5064 20.6292 21.3947C20.5809 21.283 20.5102 21.1942 20.4172 21.1284C20.3242 21.0625 20.2158 21.0143 20.092 20.9834C19.9682 20.9526 19.8248 20.9373 19.6617 20.9373L19.1314 20.9373C19.0281 20.9373 18.9443 21.021 18.9443 21.1244L18.9443 24.0111C18.9443 24.1145 19.0281 24.1983 19.1315 24.1983L19.4166 24.1983C19.52 24.1983 19.6038 24.1146 19.6038 24.0112L19.6038 22.6964L19.7125 22.6964L20.0504 24.0563ZM19.6038 22.2941L19.6038 21.4209L19.823 21.4209C19.8689 21.4209 19.9079 21.437 19.9399 21.4689C19.9719 21.501 19.9948 21.542 20.0087 21.5921C20.0226 21.6423 20.0323 21.6878 20.0377 21.7289C20.0431 21.77 20.0458 21.8098 20.0458 21.8485C20.0458 21.8872 20.0425 21.9282 20.0359 21.9717C20.0292 22.0151 20.0178 22.0629 20.0015 22.1148C19.9852 22.1667 19.9589 22.2096 19.9227 22.2434C19.8864 22.2772 19.8429 22.2941 19.7922 22.2941L19.6038 22.2941Z" fill="url(#paint3_linear_261_6224)"/>
<path d="M22.3763 24.0744C22.3902 24.1465 22.4532 24.1985 22.5265 24.1985L22.8611 24.1985C22.9586 24.1985 23.0312 24.1086 23.0107 24.0133L22.3737 21.0583C22.3585 20.9878 22.2962 20.9375 22.2241 20.9375L21.8877 20.9375C21.8157 20.9375 21.7534 20.9877 21.7382 21.0582L21.0996 24.0132C21.079 24.1085 21.1516 24.1985 21.249 24.1985L21.5858 24.1985C21.6598 24.1985 21.7231 24.1457 21.7363 24.0729L21.8403 23.501L22.2661 23.501L22.3763 24.0744ZM21.8857 23.0952L22.0577 21.885L22.2226 23.0952L21.8857 23.0952Z" fill="url(#paint4_linear_261_6224)"/>
<path d="M24.0084 24.0857L24.0222 21.8903L24.4063 24.1044C24.4157 24.1587 24.4628 24.1984 24.518 24.1984L24.8183 24.1984C24.8741 24.1984 24.9216 24.1579 24.9303 24.1028C24.9679 23.8646 25.0264 23.5142 25.1056 23.0516C25.1962 22.5225 25.2596 22.1403 25.2958 21.9047L25.3096 24.0857C25.31 24.148 25.3607 24.1983 25.423 24.1983L25.6825 24.1983C25.7452 24.1983 25.7959 24.1476 25.7959 24.085L25.7959 21.0506C25.7959 20.988 25.7451 20.9373 25.6825 20.9373L25.1286 20.9373C25.0734 20.9373 25.0263 20.977 25.0169 21.0313L24.6581 23.1113L24.3255 21.0327C24.3167 20.9777 24.2693 20.9373 24.2136 20.9373L23.6337 20.9373C23.5711 20.9373 23.5204 20.988 23.5204 21.0506L23.5204 24.085C23.5204 24.1476 23.5711 24.1983 23.6337 24.1984L23.8951 24.1984C23.9574 24.1984 24.0081 24.148 24.0084 24.0857Z" fill="url(#paint5_linear_261_6224)"/>
</g>
<defs>
<linearGradient id="paint0_linear_261_6224" x1="13.1325" y1="20.2155" x2="31.8672" y2="20.2155" gradientUnits="userSpaceOnUse">
<stop stop-color="#F7A615"/>
<stop offset="1" stop-color="#FFBD47"/>
</linearGradient>
<linearGradient id="paint1_linear_261_6224" x1="13.1324" y1="24.6926" x2="31.8672" y2="24.6926" gradientUnits="userSpaceOnUse">
<stop stop-color="#F7A615"/>
<stop offset="1" stop-color="#FFBD47"/>
</linearGradient>
<linearGradient id="paint2_linear_261_6224" x1="10" y1="22.4999" x2="35" y2="22.4999" gradientUnits="userSpaceOnUse">
<stop stop-color="#F7A615"/>
<stop offset="1" stop-color="#FFBD47"/>
</linearGradient>
<linearGradient id="paint3_linear_261_6224" x1="18.9443" y1="22.5678" x2="20.7017" y2="22.5678" gradientUnits="userSpaceOnUse">
<stop stop-color="#F7A615"/>
<stop offset="1" stop-color="#FFBD47"/>
</linearGradient>
<linearGradient id="paint4_linear_261_6224" x1="21.0961" y1="22.568" x2="23.0142" y2="22.568" gradientUnits="userSpaceOnUse">
<stop stop-color="#F7A615"/>
<stop offset="1" stop-color="#FFBD47"/>
</linearGradient>
<linearGradient id="paint5_linear_261_6224" x1="23.5204" y1="22.5678" x2="25.7959" y2="22.5678" gradientUnits="userSpaceOnUse">
<stop stop-color="#F7A615"/>
<stop offset="1" stop-color="#FFBD47"/>
</linearGradient>
<clipPath id="clip0_261_6224">
<rect width="25" height="25" fill="white" transform="translate(35 10) rotate(90)"/>
</clipPath>
</defs>
</svg>
