<svg width="45" height="45" viewBox="0 0 45 45" fill="none" xmlns="http://www.w3.org/2000/svg">
<path d="M32.3398 31.9453H12.6602C11.7188 31.9453 10.9492 31.1797 10.9492 30.2344V14.7617C10.9492 13.8203 11.7148 13.0508 12.6602 13.0508H32.3359C33.2773 13.0508 34.0469 13.8164 34.0469 14.7617V30.2344C34.0508 31.1797 33.2812 31.9453 32.3398 31.9453ZM12.6602 13.8359C12.1484 13.8359 11.7305 14.2539 11.7305 14.7656V30.2383C11.7305 30.75 12.1484 31.168 12.6602 31.168H32.3359C32.8477 31.168 33.2656 30.75 33.2656 30.2383V14.7617C33.2656 14.25 32.8477 13.832 32.3359 13.832H12.6602V13.8359Z" fill="url(#paint0_linear_261_6249)"/>
<path d="M33.6602 18.3164H11.3398C11.125 18.3164 10.9492 18.1406 10.9492 17.9258C10.9492 17.7109 11.125 17.5352 11.3398 17.5352H33.6562C33.8711 17.5352 34.0469 17.7109 34.0469 17.9258C34.0469 18.1406 33.875 18.3164 33.6602 18.3164Z" fill="url(#paint1_linear_261_6249)"/>
<path d="M14.4492 16.0391H13.1133C12.8984 16.0391 12.7227 15.8633 12.7227 15.6484C12.7227 15.4336 12.8984 15.2578 13.1133 15.2578H14.4492C14.6641 15.2578 14.8398 15.4336 14.8398 15.6484C14.8398 15.8633 14.6641 16.0391 14.4492 16.0391Z" fill="url(#paint2_linear_261_6249)"/>
<path d="M30.625 16.8008C29.9453 16.8008 29.3945 16.25 29.3945 15.5703C29.3945 14.8906 29.9453 14.3398 30.625 14.3398C31.3047 14.3398 31.8555 14.8906 31.8555 15.5703C31.8555 16.25 31.3047 16.8008 30.625 16.8008ZM30.625 15.1211C30.375 15.1211 30.1758 15.3242 30.1758 15.5703C30.1758 15.8164 30.3789 16.0195 30.625 16.0195C30.8711 16.0195 31.0742 15.8164 31.0742 15.5703C31.0742 15.3242 30.875 15.1211 30.625 15.1211Z" fill="url(#paint3_linear_261_6249)"/>
<path d="M17.2773 16.0391H15.9414C15.7266 16.0391 15.5508 15.8633 15.5508 15.6484C15.5508 15.4336 15.7266 15.2578 15.9414 15.2578H17.2773C17.4922 15.2578 17.668 15.4336 17.668 15.6484C17.668 15.8633 17.4922 16.0391 17.2773 16.0391Z" fill="url(#paint4_linear_261_6249)"/>
<path d="M20.3359 16.0391H19C18.7852 16.0391 18.6094 15.8633 18.6094 15.6484C18.6094 15.4336 18.7852 15.2578 19 15.2578H20.3359C20.5508 15.2578 20.7266 15.4336 20.7266 15.6484C20.7266 15.8633 20.5508 16.0391 20.3359 16.0391Z" fill="url(#paint5_linear_261_6249)"/>
<path d="M21.6797 27.1758H19.2773C18.6016 27.1758 18.0547 26.625 18.0547 25.9531V23.0547C18.0547 22.3789 18.6055 21.832 19.2773 21.832H21.6797C21.8945 21.832 22.0703 22.0078 22.0703 22.2227C22.0703 22.4375 21.8945 22.6133 21.6797 22.6133H19.2773C19.0312 22.6133 18.8359 22.8125 18.8359 23.0547V25.9531C18.8359 26.1953 19.0352 26.3945 19.2773 26.3945H21.2891V24.8945H20.3164C20.1016 24.8945 19.9258 24.7188 19.9258 24.5039C19.9258 24.2891 20.1016 24.1133 20.3164 24.1133H21.6797C21.8945 24.1133 22.0703 24.2891 22.0703 24.5039V26.7852C22.0703 27 21.8945 27.1758 21.6797 27.1758Z" fill="url(#paint6_linear_261_6249)"/>
<path d="M25.4141 24.8945H23.4141C23.1992 24.8945 23.0234 24.7188 23.0234 24.5039V22.2227C23.0234 22.0078 23.1992 21.832 23.4141 21.832H25.4141C26.2578 21.832 26.9453 22.5195 26.9453 23.3633C26.9453 24.207 26.2617 24.8945 25.4141 24.8945ZM23.8086 24.1133H25.418C25.832 24.1133 26.168 23.7773 26.168 23.3633C26.168 22.9492 25.832 22.6133 25.418 22.6133H23.8086V24.1133Z" fill="url(#paint7_linear_261_6249)"/>
<path d="M25.4141 27.1758H23.4141C23.1992 27.1758 23.0234 27 23.0234 26.7852V24.5039C23.0234 24.2891 23.1992 24.1133 23.4141 24.1133H25.4141C26.2578 24.1133 26.9453 24.8008 26.9453 25.6445C26.9453 26.4883 26.2617 27.1758 25.4141 27.1758ZM23.8086 26.3945H25.418C25.832 26.3945 26.168 26.0586 26.168 25.6445C26.168 25.2305 25.832 24.8945 25.418 24.8945H23.8086V26.3945Z" fill="url(#paint8_linear_261_6249)"/>
<path d="M15.8008 24.8945H13.7812C13.5664 24.8945 13.3906 24.7188 13.3906 24.5039C13.3906 24.2891 13.5664 24.1133 13.7812 24.1133H15.8008C16.0156 24.1133 16.1914 24.2891 16.1914 24.5039C16.1914 24.7188 16.0195 24.8945 15.8008 24.8945Z" fill="url(#paint9_linear_261_6249)"/>
<path d="M31.6367 24.8945H29.6172C29.4023 24.8945 29.2266 24.7188 29.2266 24.5039C29.2266 24.2891 29.4023 24.1133 29.6172 24.1133H31.6367C31.8516 24.1133 32.0273 24.2891 32.0273 24.5039C32.0273 24.7188 31.8516 24.8945 31.6367 24.8945Z" fill="url(#paint10_linear_261_6249)"/>
<defs>
<linearGradient id="paint0_linear_261_6249" x1="22.4981" y1="31.9453" x2="22.4981" y2="13.0508" gradientUnits="userSpaceOnUse">
<stop stop-color="#F7A615"/>
<stop offset="1" stop-color="#FFBD47"/>
</linearGradient>
<linearGradient id="paint1_linear_261_6249" x1="22.498" y1="18.3164" x2="22.498" y2="17.5352" gradientUnits="userSpaceOnUse">
<stop stop-color="#F7A615"/>
<stop offset="1" stop-color="#FFBD47"/>
</linearGradient>
<linearGradient id="paint2_linear_261_6249" x1="13.7813" y1="16.0391" x2="13.7813" y2="15.2578" gradientUnits="userSpaceOnUse">
<stop stop-color="#F7A615"/>
<stop offset="1" stop-color="#FFBD47"/>
</linearGradient>
<linearGradient id="paint3_linear_261_6249" x1="30.625" y1="16.8008" x2="30.625" y2="14.3398" gradientUnits="userSpaceOnUse">
<stop stop-color="#F7A615"/>
<stop offset="1" stop-color="#FFBD47"/>
</linearGradient>
<linearGradient id="paint4_linear_261_6249" x1="16.6094" y1="16.0391" x2="16.6094" y2="15.2578" gradientUnits="userSpaceOnUse">
<stop stop-color="#F7A615"/>
<stop offset="1" stop-color="#FFBD47"/>
</linearGradient>
<linearGradient id="paint5_linear_261_6249" x1="19.668" y1="16.0391" x2="19.668" y2="15.2578" gradientUnits="userSpaceOnUse">
<stop stop-color="#F7A615"/>
<stop offset="1" stop-color="#FFBD47"/>
</linearGradient>
<linearGradient id="paint6_linear_261_6249" x1="20.0625" y1="27.1758" x2="20.0625" y2="21.832" gradientUnits="userSpaceOnUse">
<stop stop-color="#F7A615"/>
<stop offset="1" stop-color="#FFBD47"/>
</linearGradient>
<linearGradient id="paint7_linear_261_6249" x1="24.9844" y1="24.8945" x2="24.9844" y2="21.832" gradientUnits="userSpaceOnUse">
<stop stop-color="#F7A615"/>
<stop offset="1" stop-color="#FFBD47"/>
</linearGradient>
<linearGradient id="paint8_linear_261_6249" x1="24.9844" y1="27.1758" x2="24.9844" y2="24.1133" gradientUnits="userSpaceOnUse">
<stop stop-color="#F7A615"/>
<stop offset="1" stop-color="#FFBD47"/>
</linearGradient>
<linearGradient id="paint9_linear_261_6249" x1="14.791" y1="24.8945" x2="14.791" y2="24.1133" gradientUnits="userSpaceOnUse">
<stop stop-color="#F7A615"/>
<stop offset="1" stop-color="#FFBD47"/>
</linearGradient>
<linearGradient id="paint10_linear_261_6249" x1="30.627" y1="24.8945" x2="30.627" y2="24.1133" gradientUnits="userSpaceOnUse">
<stop stop-color="#F7A615"/>
<stop offset="1" stop-color="#FFBD47"/>
</linearGradient>
</defs>
</svg>
