<svg width="45" height="39" viewBox="0 0 45 39" fill="none" xmlns="http://www.w3.org/2000/svg">
<path d="M16.2501 24.5833C16.8251 24.5833 17.2918 24.1167 17.2918 23.5417C17.2918 22.9667 16.8251 22.5 16.2501 22.5C15.6751 22.5 15.2085 22.9667 15.2085 23.5417C15.2085 24.1166 15.6751 24.5833 16.2501 24.5833Z" fill="url(#paint0_linear_261_6213)"/>
<path d="M13.1251 24.5833C13.7001 24.5833 14.1668 24.1167 14.1668 23.5417C14.1668 22.9667 13.7001 22.5 13.1251 22.5C12.5501 22.5 12.0835 22.9667 12.0835 23.5417C12.0835 24.1167 12.5501 24.5833 13.1251 24.5833Z" fill="url(#paint1_linear_261_6213)"/>
<path d="M34.8031 21.6302C34.8021 21.6271 34.8021 21.624 34.801 21.6208L29.5875 11.1875C29.5781 11.1687 29.5667 11.15 29.5541 11.1312C29.1979 10.4417 28.4802 10 27.7062 10H17.2896C16.5167 10 15.8 10.4406 15.4437 11.1281C15.4302 11.1469 15.4187 11.1677 15.4083 11.1885L10.1948 21.6219C10.1917 21.6292 10.1917 21.6365 10.1885 21.6437C10.0698 21.9062 10 22.1938 10 22.5V26.6667C10 27.8156 10.9344 28.75 12.0833 28.75H32.9167C34.0656 28.75 35 27.8156 35 26.6667V22.5C35 22.1885 34.9271 21.8959 34.8031 21.6302ZM16.3135 11.7104C16.3292 11.6885 16.3427 11.6656 16.3542 11.6406C16.5302 11.2719 16.8885 11.0427 17.2916 11.0427H27.7083C28.1114 11.0427 28.4708 11.2719 28.6458 11.6406C28.6573 11.6635 28.6698 11.6854 28.6843 11.7073L33.0437 20.4291C33.001 20.4271 32.9604 20.4167 32.9166 20.4167H12.0833C12.0396 20.4167 11.999 20.4271 11.9562 20.4291L16.3135 11.7104ZM33.9583 26.6667C33.9583 27.2406 33.4906 27.7083 32.9167 27.7083H12.0833C11.5094 27.7083 11.0417 27.2406 11.0417 26.6667V22.5C11.0417 21.926 11.5094 21.4583 12.0833 21.4583H32.9167C33.4907 21.4583 33.9583 21.9261 33.9583 22.5V26.6667Z" fill="url(#paint2_linear_261_6213)"/>
<path d="M32.396 25.6252H12.6043C12.3168 25.6252 12.0835 25.8586 12.0835 26.1461C12.0835 26.4336 12.3168 26.6669 12.6043 26.6669H32.396C32.6835 26.6669 32.9168 26.4336 32.9168 26.1461C32.9168 25.8586 32.6835 25.6252 32.396 25.6252Z" fill="url(#paint3_linear_261_6213)"/>
<defs>
<linearGradient id="paint0_linear_261_6213" x1="16.2501" y1="24.5833" x2="16.2501" y2="22.5" gradientUnits="userSpaceOnUse">
<stop stop-color="#F7A615"/>
<stop offset="1" stop-color="#FFBD47"/>
</linearGradient>
<linearGradient id="paint1_linear_261_6213" x1="13.1251" y1="24.5833" x2="13.1251" y2="22.5" gradientUnits="userSpaceOnUse">
<stop stop-color="#F7A615"/>
<stop offset="1" stop-color="#FFBD47"/>
</linearGradient>
<linearGradient id="paint2_linear_261_6213" x1="22.5" y1="28.75" x2="22.5" y2="10" gradientUnits="userSpaceOnUse">
<stop stop-color="#F7A615"/>
<stop offset="1" stop-color="#FFBD47"/>
</linearGradient>
<linearGradient id="paint3_linear_261_6213" x1="22.5002" y1="26.6669" x2="22.5002" y2="25.6252" gradientUnits="userSpaceOnUse">
<stop stop-color="#F7A615"/>
<stop offset="1" stop-color="#FFBD47"/>
</linearGradient>
</defs>
</svg>
