<svg width="45" height="45" viewBox="0 0 45 45" fill="none" xmlns="http://www.w3.org/2000/svg">
<mask id="mask0_261_6180" style="mask-type:luminance" maskUnits="userSpaceOnUse" x="10" y="10" width="25" height="25">
<path d="M10 10H35V35H10V10Z" fill="white"/>
</mask>
<g mask="url(#mask0_261_6180)">
<path d="M10.4883 17.5842H18.1492H32.7304" stroke="url(#paint0_linear_261_6180)" stroke-miterlimit="10" stroke-linecap="round" stroke-linejoin="round"/>
<path d="M14.5656 15.5063C15.2051 15.5063 15.7269 14.9862 15.7269 14.3471C15.7269 13.708 15.2051 13.1879 14.5656 13.1879C13.9276 13.1879 13.4058 13.708 13.4058 14.3471C13.4058 14.9862 13.9276 15.5063 14.5656 15.5063Z" stroke="url(#paint1_linear_261_6180)" stroke-miterlimit="10" stroke-linecap="round" stroke-linejoin="round"/>
<path d="M24.6462 13.1879H29.0144C29.6524 13.1879 30.1742 13.7094 30.1742 14.3471C30.1742 14.9849 29.6524 15.5063 29.0144 15.5063H24.6462C24.0082 15.5063 23.4863 14.9849 23.4863 14.3471C23.4863 13.7094 24.0082 13.1879 24.6462 13.1879Z" stroke="url(#paint2_linear_261_6180)" stroke-miterlimit="10" stroke-linecap="round" stroke-linejoin="round"/>
<path d="M18.8483 15.5063C19.4878 15.5063 20.0096 14.9862 20.0096 14.3471C20.0096 13.708 19.4878 13.1879 18.8483 13.1879C18.2103 13.1879 17.6885 13.708 17.6885 14.3471C17.6885 14.9862 18.2103 15.5063 18.8483 15.5063Z" stroke="url(#paint3_linear_261_6180)" stroke-miterlimit="10" stroke-linecap="round" stroke-linejoin="round"/>
<path d="M17.9303 21.34L16.9531 25.4292" stroke="url(#paint4_linear_261_6180)" stroke-miterlimit="10" stroke-linecap="round" stroke-linejoin="round"/>
<path d="M20.1812 25.0598L21.5638 23.5077C21.6247 23.4399 21.6247 23.3292 21.5638 23.2615L20.1812 21.7093" stroke="url(#paint5_linear_261_6180)" stroke-miterlimit="10" stroke-linecap="round" stroke-linejoin="round"/>
<path d="M14.7028 25.0598L13.3201 23.5077C13.2592 23.4399 13.2592 23.3292 13.3201 23.2615L14.7028 21.7093" stroke="url(#paint6_linear_261_6180)" stroke-miterlimit="10" stroke-linecap="round" stroke-linejoin="round"/>
<path d="M29.7519 23.498C30.2861 23.617 30.7857 23.8273 31.2356 24.1095L31.6356 23.7111C31.8723 23.4731 32.2612 23.4731 32.4993 23.7111L33.129 24.3405C33.367 24.5785 33.367 24.9672 33.129 25.2038L32.7304 25.6035C33.0114 26.049 33.2189 26.5442 33.3394 27.0727H33.8999C34.2363 27.0727 34.5117 27.348 34.5117 27.6827V28.575C34.5117 28.9097 34.2363 29.185 33.8999 29.185H33.3366C33.2162 29.7107 33.0086 30.2032 32.7304 30.6458L33.129 31.0442C33.367 31.2822 33.367 31.6709 33.129 31.9075L32.4993 32.5383C32.2612 32.7762 31.8723 32.7762 31.6356 32.5383L31.2356 32.1398C30.7913 32.4193 30.2972 32.6268 29.7685 32.7472V33.3143C29.7685 33.6505 29.493 33.9258 29.1581 33.9258H28.2654C27.9304 33.9258 27.655 33.6505 27.655 33.3143V32.7458C27.129 32.6268 26.6349 32.4179 26.1906 32.1398L25.792 32.5383C25.5539 32.7762 25.165 32.7762 24.9283 32.5383L24.2972 31.9075C24.0605 31.6709 24.0605 31.2822 24.2972 31.0442L24.6972 30.6458C24.4176 30.2032 24.21 29.7107 24.0896 29.185H23.5235C23.1872 29.185 22.9131 28.9097 22.9131 28.575V27.6827C22.9131 27.348 23.1872 27.0727 23.5235 27.0727H24.0882C24.2072 26.5498 24.4121 26.0601 24.6875 25.6188L24.2861 25.2162C24.0481 24.9796 24.0481 24.5909 24.2861 24.353L24.9159 23.7235C25.154 23.4856 25.5429 23.4856 25.7795 23.7235L26.1768 24.1192C26.6197 23.8384 27.1124 23.6294 27.6384 23.5063V22.9434C27.6384 22.6072 27.9124 22.3319 28.2487 22.3319H29.1401C29.4764 22.3319 29.7519 22.6072 29.7519 22.9434V23.498Z" stroke="url(#paint7_linear_261_6180)" stroke-miterlimit="10" stroke-linecap="round" stroke-linejoin="round"/>
<path d="M28.7125 25.6133C30.1021 25.6133 31.2288 26.7394 31.2288 28.1296C31.2288 29.5185 30.1021 30.6445 28.7125 30.6445C27.3215 30.6445 26.1948 29.5185 26.1948 28.1296C26.1948 26.7394 27.3215 25.6133 28.7125 25.6133Z" stroke="url(#paint8_linear_261_6180)" stroke-miterlimit="10" stroke-linecap="round" stroke-linejoin="round"/>
<path d="M15.1969 29.1851H12.3069C11.3077 29.1851 10.4883 28.2071 10.4883 27.0132V13.2461C10.4883 12.0509 11.3062 11.0743 12.3069 11.0743H14.4135H30.9118C31.9125 11.0743 32.7304 12.0523 32.7304 13.2461V23.9422M23.5235 29.1851H19.5609" stroke="url(#paint9_linear_261_6180)" stroke-miterlimit="10" stroke-linecap="round" stroke-linejoin="round"/>
<path d="M17.3838 29.1851H17.3935" stroke="url(#paint10_linear_261_6180)" stroke-miterlimit="10" stroke-linecap="round" stroke-linejoin="round"/>
</g>
<defs>
<linearGradient id="paint0_linear_261_6180" x1="21.6094" y1="16.5842" x2="21.6094" y2="17.5842" gradientUnits="userSpaceOnUse">
<stop stop-color="#F7A615"/>
<stop offset="1" stop-color="#FFBD47"/>
</linearGradient>
<linearGradient id="paint1_linear_261_6180" x1="14.5663" y1="13.1879" x2="14.5663" y2="15.5063" gradientUnits="userSpaceOnUse">
<stop stop-color="#F7A615"/>
<stop offset="1" stop-color="#FFBD47"/>
</linearGradient>
<linearGradient id="paint2_linear_261_6180" x1="26.8303" y1="13.1879" x2="26.8303" y2="15.5063" gradientUnits="userSpaceOnUse">
<stop stop-color="#F7A615"/>
<stop offset="1" stop-color="#FFBD47"/>
</linearGradient>
<linearGradient id="paint3_linear_261_6180" x1="18.849" y1="13.1879" x2="18.849" y2="15.5063" gradientUnits="userSpaceOnUse">
<stop stop-color="#F7A615"/>
<stop offset="1" stop-color="#FFBD47"/>
</linearGradient>
<linearGradient id="paint4_linear_261_6180" x1="17.4417" y1="21.34" x2="17.4417" y2="25.4292" gradientUnits="userSpaceOnUse">
<stop stop-color="#F7A615"/>
<stop offset="1" stop-color="#FFBD47"/>
</linearGradient>
<linearGradient id="paint5_linear_261_6180" x1="20.8953" y1="21.7093" x2="20.8953" y2="25.0598" gradientUnits="userSpaceOnUse">
<stop stop-color="#F7A615"/>
<stop offset="1" stop-color="#FFBD47"/>
</linearGradient>
<linearGradient id="paint6_linear_261_6180" x1="13.9886" y1="21.7093" x2="13.9886" y2="25.0598" gradientUnits="userSpaceOnUse">
<stop stop-color="#F7A615"/>
<stop offset="1" stop-color="#FFBD47"/>
</linearGradient>
<linearGradient id="paint7_linear_261_6180" x1="28.7124" y1="22.3319" x2="28.7124" y2="33.9258" gradientUnits="userSpaceOnUse">
<stop stop-color="#F7A615"/>
<stop offset="1" stop-color="#FFBD47"/>
</linearGradient>
<linearGradient id="paint8_linear_261_6180" x1="28.7118" y1="25.6133" x2="28.7118" y2="30.6445" gradientUnits="userSpaceOnUse">
<stop stop-color="#F7A615"/>
<stop offset="1" stop-color="#FFBD47"/>
</linearGradient>
<linearGradient id="paint9_linear_261_6180" x1="21.6094" y1="11.0743" x2="21.6094" y2="29.1851" gradientUnits="userSpaceOnUse">
<stop stop-color="#F7A615"/>
<stop offset="1" stop-color="#FFBD47"/>
</linearGradient>
<linearGradient id="paint10_linear_261_6180" x1="17.3886" y1="28.1851" x2="17.3886" y2="29.1851" gradientUnits="userSpaceOnUse">
<stop stop-color="#F7A615"/>
<stop offset="1" stop-color="#FFBD47"/>
</linearGradient>
</defs>
</svg>
