<svg width="45" height="45" viewBox="0 0 45 45" fill="none" xmlns="http://www.w3.org/2000/svg">
<path d="M13.7993 19.3563C13.7993 19.5451 13.9524 19.6982 14.1411 19.6982C14.3299 19.6982 14.4829 19.5451 14.4829 19.3563V17.1093L18.9713 12.8985H30.5171V19.3563C30.5171 19.5451 30.6702 19.6981 30.8589 19.6981C31.0477 19.6981 31.2008 19.5451 31.2008 19.3563V12.5567C31.2008 12.3679 31.0477 12.2148 30.8589 12.2148L18.8373 12.2149C18.7535 12.2149 18.6694 12.2455 18.6035 12.3074L13.9252 16.6975C13.8484 16.7602 13.7993 16.8556 13.7993 16.9625L13.7993 19.3563Z" fill="url(#paint0_linear_261_6163)"/>
<path d="M11.5644 32.7798C11.7524 32.7938 11.9162 32.6528 11.9302 32.4648C11.9442 32.2767 11.8031 32.113 11.6151 32.0989C11.3539 32.079 11.1199 31.9591 10.952 31.7779C10.7857 31.5984 10.6836 31.3573 10.6836 31.0925V14.8159C10.6836 14.2606 11.1375 13.8069 11.6927 13.8069H17.8592C18.0479 13.8069 18.201 13.6539 18.201 13.4651C18.201 13.2764 18.0479 13.1233 17.8592 13.1233H11.6927C10.7628 13.1233 10 13.8855 10 14.8159V31.0925C10 31.5333 10.1721 31.937 10.4527 32.2398C10.7353 32.5448 11.1276 32.7465 11.5644 32.7798ZM30.861 15.7779C30.6722 15.7779 30.5192 15.931 30.5192 16.1197C30.5192 16.3085 30.6722 16.4615 30.861 16.4615H31.436C31.9913 16.4615 32.4451 16.9153 32.4451 17.4705V19.3563C32.4451 19.545 32.5981 19.6981 32.7869 19.6981C32.9756 19.6981 33.1287 19.545 33.1287 19.3563V17.4705C33.1287 16.5406 32.3664 15.7779 31.436 15.7779L30.861 15.7779Z" fill="url(#paint1_linear_261_6163)"/>
<path d="M13.761 19.0147H33.5042C34.4585 19.0147 35.1273 19.8139 34.9781 20.7594L33.1246 32.4969C33.098 32.6654 32.9524 32.7856 32.787 32.7854H11.6929C10.7331 32.7854 10.0706 31.9811 10.219 31.0406L11.8602 20.6553C12.0026 19.7537 12.8439 19.0147 13.761 19.0147ZM33.5042 19.6983H13.761C13.1796 19.6983 12.6233 20.188 12.5331 20.7594L10.8919 31.1448C10.8083 31.6741 11.151 32.1018 11.6929 32.1018H32.4964L34.3052 20.6553C34.3893 20.1229 34.0422 19.6983 33.5042 19.6983Z" fill="url(#paint2_linear_261_6163)"/>
<path d="M19.1676 12.5566V16.9655C19.1676 17.1542 19.0145 17.3073 18.8258 17.3073H14.1411C13.9524 17.3073 13.7993 17.1542 13.7993 16.9655C13.7993 16.8588 13.8483 16.7635 13.9249 16.7008L18.5921 12.3084C18.7295 12.179 18.9453 12.1849 19.0747 12.3224C19.1368 12.3884 19.1676 12.4726 19.1676 12.5566ZM18.4839 16.6237V13.3466L15.0018 16.6237H18.4839Z" fill="url(#paint3_linear_261_6163)"/>
<path d="M28.4312 15.1372C28.6199 15.1372 28.773 14.9842 28.773 14.7954C28.773 14.6067 28.6199 14.4536 28.4312 14.4536H21.2539C21.0652 14.4536 20.9121 14.6067 20.9121 14.7954C20.9121 14.9842 21.0652 15.1372 21.2539 15.1372H28.4312Z" fill="url(#paint4_linear_261_6163)"/>
<path d="M28.4312 17.4593C28.6199 17.4593 28.773 17.3062 28.773 17.1175C28.773 16.9287 28.6199 16.7756 28.4312 16.7756H21.2539C21.0652 16.7756 20.9121 16.9287 20.9121 17.1175C20.9121 17.3062 21.0652 17.4593 21.2539 17.4593H28.4312Z" fill="url(#paint5_linear_261_6163)"/>
<path d="M22.5982 21.2725C23.8759 21.2725 25.0328 21.7905 25.8703 22.6279C26.7077 23.4654 27.2257 24.6222 27.2257 25.9C27.2257 27.1778 26.7077 28.3347 25.8703 29.1721C25.0328 30.0095 23.8759 30.5275 22.5982 30.5275C21.3205 30.5275 20.1636 30.0095 19.3262 29.1721C18.4887 28.3347 17.9707 27.1778 17.9707 25.9C17.9707 24.6223 18.4887 23.4653 19.3262 22.6279C20.1636 21.7905 21.3205 21.2725 22.5982 21.2725ZM25.387 23.1112C24.6734 22.3976 23.6873 21.9561 22.5982 21.9561C21.5091 21.9561 20.5231 22.3976 19.8094 23.1112C19.0958 23.8248 18.6543 24.8109 18.6543 25.9C18.6543 26.9891 19.0958 27.9752 19.8094 28.6888C20.5231 29.4024 21.5091 29.8439 22.5982 29.8439C23.6873 29.8439 24.6734 29.4024 25.387 28.6888C26.1006 27.9752 26.5421 26.9891 26.5421 25.9C26.5421 24.8109 26.1006 23.8248 25.387 23.1112Z" fill="url(#paint6_linear_261_6163)"/>
<path d="M22.5986 24.667C23.102 24.667 23.514 25.0792 23.514 25.5824V28.5462C23.514 29.0497 23.1018 29.4616 22.5986 29.4616C22.0952 29.4616 21.6831 29.0495 21.6831 28.5462V25.5824C21.6831 25.0791 22.0952 24.667 22.5986 24.667ZM22.5986 25.3506C22.471 25.3506 22.3667 25.4548 22.3667 25.5824V28.5462C22.3667 28.6737 22.4708 28.778 22.5985 28.778C22.7262 28.778 22.8304 28.6739 22.8304 28.5462V25.5824C22.8304 25.4549 22.7263 25.3506 22.5986 25.3506Z" fill="url(#paint7_linear_261_6163)"/>
<path d="M22.5984 22.3379C23.1656 22.3379 23.627 22.7995 23.627 23.3666C23.627 23.9334 23.1645 24.3951 22.5984 24.3951C22.0315 24.3951 21.5698 23.9327 21.5698 23.3666C21.5698 22.7994 22.0315 22.3379 22.5984 22.3379ZM22.5984 23.0215C22.4069 23.0215 22.2535 23.1762 22.2535 23.3666C22.2535 23.558 22.4069 23.7115 22.5984 23.7115C22.7898 23.7115 22.9433 23.558 22.9433 23.3666C22.9433 23.1758 22.7897 23.0215 22.5984 23.0215Z" fill="url(#paint8_linear_261_6163)"/>
<defs>
<linearGradient id="paint0_linear_261_6163" x1="22.5" y1="19.6982" x2="22.5" y2="12.2148" gradientUnits="userSpaceOnUse">
<stop stop-color="#F7A615"/>
<stop offset="1" stop-color="#FFBD47"/>
</linearGradient>
<linearGradient id="paint1_linear_261_6163" x1="21.5643" y1="32.7808" x2="21.5643" y2="13.1233" gradientUnits="userSpaceOnUse">
<stop stop-color="#F7A615"/>
<stop offset="1" stop-color="#FFBD47"/>
</linearGradient>
<linearGradient id="paint2_linear_261_6163" x1="22.5986" y1="32.7854" x2="22.5986" y2="19.0146" gradientUnits="userSpaceOnUse">
<stop stop-color="#F7A615"/>
<stop offset="1" stop-color="#FFBD47"/>
</linearGradient>
<linearGradient id="paint3_linear_261_6163" x1="16.4835" y1="17.3073" x2="16.4835" y2="12.2148" gradientUnits="userSpaceOnUse">
<stop stop-color="#F7A615"/>
<stop offset="1" stop-color="#FFBD47"/>
</linearGradient>
<linearGradient id="paint4_linear_261_6163" x1="24.8426" y1="15.1372" x2="24.8426" y2="14.4536" gradientUnits="userSpaceOnUse">
<stop stop-color="#F7A615"/>
<stop offset="1" stop-color="#FFBD47"/>
</linearGradient>
<linearGradient id="paint5_linear_261_6163" x1="24.8426" y1="17.4593" x2="24.8426" y2="16.7756" gradientUnits="userSpaceOnUse">
<stop stop-color="#F7A615"/>
<stop offset="1" stop-color="#FFBD47"/>
</linearGradient>
<linearGradient id="paint6_linear_261_6163" x1="22.5982" y1="30.5275" x2="22.5982" y2="21.2725" gradientUnits="userSpaceOnUse">
<stop stop-color="#F7A615"/>
<stop offset="1" stop-color="#FFBD47"/>
</linearGradient>
<linearGradient id="paint7_linear_261_6163" x1="22.5985" y1="29.4616" x2="22.5985" y2="24.667" gradientUnits="userSpaceOnUse">
<stop stop-color="#F7A615"/>
<stop offset="1" stop-color="#FFBD47"/>
</linearGradient>
<linearGradient id="paint8_linear_261_6163" x1="22.5984" y1="24.3951" x2="22.5984" y2="22.3379" gradientUnits="userSpaceOnUse">
<stop stop-color="#F7A615"/>
<stop offset="1" stop-color="#FFBD47"/>
</linearGradient>
</defs>
</svg>
