<svg width="45" height="45" viewBox="0 0 45 45" fill="none" xmlns="http://www.w3.org/2000/svg">
<g clip-path="url(#clip0_261_6279)">
<path d="M20.1034 12.1327C9.93872 13.4761 11.1207 13.3153 10.4564 13.4218C10.203 13.4624 10.019 13.6782 10.019 13.9348V21.9035C10.019 22.1908 10.2515 22.4235 10.5389 22.4235C10.539 22.4235 10.5392 22.4235 10.5393 22.4235C13.7149 22.4208 16.9208 22.3374 20.1717 22.3348C20.4581 22.3346 20.691 22.1016 20.691 21.8154V12.648C20.6911 12.3335 20.4137 12.0916 20.1034 12.1327ZM19.9597 21.6038C16.8451 21.6096 13.7877 21.6859 10.7504 21.6919V14.1153C11.1821 14.0461 10.1216 14.1896 19.9597 12.8894V21.6038Z" fill="url(#paint0_linear_261_6279)"/>
<path d="M20.1585 22.6728C17.3407 22.7423 10.4901 22.6687 10.5389 22.6687C10.2516 22.6687 10.019 22.9013 10.019 23.1886V31.154C10.019 31.4129 10.2125 31.6343 10.469 31.669C10.5205 31.676 20.0453 32.964 20.171 32.964C20.4572 32.964 20.691 32.7319 20.691 32.4443V23.1919C20.691 22.8954 20.4455 22.6654 20.1585 22.6728ZM19.9597 32.2029C16.7987 31.7862 13.7261 31.3711 10.7503 30.969V23.4047C13.7797 23.4105 16.8408 23.475 19.9597 23.4047V32.2029Z" fill="url(#paint1_linear_261_6279)"/>
<path d="M34.3874 10.0053C32.356 10.2953 30.3796 10.5742 28.4055 10.8626C28.2056 10.8918 28.0673 11.0775 28.0965 11.2773C28.1257 11.4771 28.311 11.6155 28.5112 11.5863C30.3959 11.3109 32.2643 11.047 34.2496 10.7638V21.515C30.1457 21.5195 25.9445 21.5988 21.8451 21.6033V12.6101C22.5727 12.5019 23.7328 12.2978 26.806 11.8381C27.0058 11.8082 27.1435 11.6221 27.1136 11.4224C27.0837 11.2227 26.8975 11.0849 26.6979 11.1148C23.6185 11.5754 22.5266 11.7694 21.5571 11.9135C21.3044 11.9511 21.1138 12.172 21.1138 12.4275V21.8149C21.1138 22.102 21.3459 22.3347 21.6333 22.3347C25.6598 22.3347 30.2282 22.2481 34.4619 22.2461C34.7481 22.2459 34.981 22.0129 34.981 21.7266V10.5196C34.981 10.2039 34.7007 9.96063 34.3874 10.0053Z" fill="url(#paint2_linear_261_6279)"/>
<path d="M34.6153 28.8327C34.8172 28.8327 34.981 28.669 34.981 28.467V23.277C34.981 22.9904 34.7479 22.7573 34.4613 22.7573H21.6334C21.3469 22.7573 21.1138 22.9904 21.1138 23.277V32.6636C21.1138 32.9207 21.3057 33.142 21.5602 33.1782C25.7846 33.7797 30.1479 34.3074 34.3786 34.9931C34.6937 35.0444 34.981 34.8009 34.981 34.4804V30.1734C34.981 29.9715 34.8173 29.8078 34.6153 29.8078C34.4134 29.8078 34.2497 29.9715 34.2497 30.1734V34.2315C30.1447 33.5729 25.9399 33.0604 21.8452 32.4799V23.4886H34.2496V28.467C34.2496 28.669 34.4133 28.8327 34.6153 28.8327Z" fill="url(#paint3_linear_261_6279)"/>
</g>
<defs>
<linearGradient id="paint0_linear_261_6279" x1="15.355" y1="22.4235" x2="15.355" y2="12.1282" gradientUnits="userSpaceOnUse">
<stop stop-color="#F7A615"/>
<stop offset="1" stop-color="#FFBD47"/>
</linearGradient>
<linearGradient id="paint1_linear_261_6279" x1="15.355" y1="32.964" x2="15.355" y2="22.6687" gradientUnits="userSpaceOnUse">
<stop stop-color="#F7A615"/>
<stop offset="1" stop-color="#FFBD47"/>
</linearGradient>
<linearGradient id="paint2_linear_261_6279" x1="28.0474" y1="22.3347" x2="28.0474" y2="10" gradientUnits="userSpaceOnUse">
<stop stop-color="#F7A615"/>
<stop offset="1" stop-color="#FFBD47"/>
</linearGradient>
<linearGradient id="paint3_linear_261_6279" x1="28.0474" y1="35" x2="28.0474" y2="22.7573" gradientUnits="userSpaceOnUse">
<stop stop-color="#F7A615"/>
<stop offset="1" stop-color="#FFBD47"/>
</linearGradient>
<clipPath id="clip0_261_6279">
<rect width="25" height="25" fill="white" transform="translate(10 10)"/>
</clipPath>
</defs>
</svg>
